<?xml version="1.0" encoding="utf-8"?>
<!-- Generator: Adobe Illustrator 18.0.0, SVG Export Plug-In . SVG Version: 6.00 Build 0)  -->
<!DOCTYPE svg PUBLIC "-//W3C//DTD SVG 1.1//EN" "http://www.w3.org/Graphics/SVG/1.1/DTD/svg11.dtd">
<svg version="1.1" id="圖層_1" xmlns="http://www.w3.org/2000/svg" xmlns:xlink="http://www.w3.org/1999/xlink" x="0px" y="0px"
	 viewBox="0 0 400 382" enable-background="new 0 0 400 382" xml:space="preserve">
<g>
	<g>
		<path fill="none" stroke="#ADAEAE" stroke-width="3.8" stroke-miterlimit="10" d="M253.9,51.9c0,0-14.5,21.3-19.3,29.8
			c-4.8,8.5-42,66.9-45.7,80.6"/>
		<path fill="none" stroke="#ADAEAE" stroke-width="3.8" stroke-miterlimit="10" d="M36.1,249.1c0,0,11.6-9.3,21-15.2
			s13.8-8.9,19.3-12.3c5.6-3.3,7.8-5.2,23-8.2c15.2-3,28.6-11.5,40.5-18.2c11.9-6.7,15.2-15.2,27.1-22.3s14.5-10.4,24.9-10.8
			c10.4-0.4,35.3,5.9,46,0c10.8-5.9,30.1-18.5,38.3-25.2c8.2-6.7,18.9-22,24.1-29.4c5.2-7.4,10.4-23.3,10.4-23.3"/>
		<path fill="none" stroke="#ADAEAE" stroke-width="3.8" stroke-miterlimit="10" d="M272.9,76.4c0,0-11.9,27.5-17.1,34.9
			c-5.2,7.4-33.8,28.9-42,33c-8.2,4.1-19.1,4.7-19.1,4.7l-2.1,4.3c0,0-31.2,6.3-39,13.3c-7.8,7-16.7,21.5-17.6,30.8"/>
		<path fill="none" stroke="#6A8732" stroke-width="3.8" stroke-miterlimit="10" d="M262.8,92.5l-18.9-14.3c0,0-3.7-4.8-7.1,0
			c-3.3,4.8-5.6,14.3-10.8,9.5c-3.6-3.3-13-4.3-16-6.5c-3-2.3-6.7-5.2-11.5-10.8c-4.8-5.6-4.8-5.2-8.9-10c-4.1-4.8-4.4-7-10.8-5
			c-6.3,2-8.2,11.6-15.2,8.7c-7.1-3-11.5-4.1-12.6-9.5c-1.1-5.4-5.6-12.8-8.9-10.6c-3.3,2.3-8.5,2.3-11.5,6
			c-3,3.7-11.2,2.6-14.9,5.4c-3.7,2.8-5.6,0.9-6.3,5.4c-0.8,4.4,1.5,8.5-3.7,9.3c-5.2,0.8-8.9,3-11.9,5.2c-3,2.3-4.1,3-10.4,3.3
			c-6.3,0.4-8.9,1.1-11.5-2.3c-2.6-3.3-5.6-8.9-9.3-10c-3.7-1.1-7.4-3-13-1.1s-12.3,2.3-12.3,6.3c0,4.1,0,5.2,4.4,7.8
			c4.4,2.6-7.4,15.4-4.4,21.7c3,6.2,4.8,9.6,1.8,14c-3,4.4-4.8,7.1-0.8,9.7c4.1,2.6-1.8,8,1.8,10.1c3.7,2.2,8.5,3.7,8.5,7.7
			c0,4.1-1.1,9.6,3.7,13.9c4.8,4.3,4.4,2,9.7,5.4c5.2,3.3,5.9,3.3,6.7,9.3c0.8,5.9,4.1,13,7.4,16.7c3.3,3.7,5.2,10,6.3,13.8
			c1.1,3.7,4.4,14.5,4.4,14.5"/>
	</g>
	<circle fill="#E50012" cx="87.2" cy="216.1" r="4.2"/>
	<circle fill="#E50012" cx="262.8" cy="92.1" r="4.2"/>
	<circle fill="#B4B316" cx="183.7" cy="54.6" r="4.2"/>
	<circle fill="#B4B316" cx="143.1" cy="43.7" r="4.2"/>
	<circle fill="#B4B316" cx="38.2" cy="69.5" r="4.2"/>
	<g>
		<path fill="#6A8732" d="M65.6,237.8c0,0.1-0.1,0.1-0.1,0.1c-0.1,0-0.1,0.1-0.1,0.2v7.8h3.2v-6.2c0-0.1,0.1-0.1,0.1-0.1
			c0.6,0,0.8,0.1,0.8,0.1s0,0.1-0.1,0.1c-0.1,0-0.1,0.1-0.1,0.2v7.5c0,0.1-0.1,0.1-0.2,0.1h-0.4c-0.1,0-0.1-0.1-0.1-0.1v-0.9h-7.3
			v0.9c0,0.1-0.1,0.1-0.2,0.1h-0.4c-0.1,0-0.2-0.1-0.2-0.1v-7.8c0-0.1,0.1-0.1,0.2-0.1c0.6,0,0.8,0.1,0.8,0.1c0,0.1-0.1,0.1-0.1,0.1
			c-0.1,0-0.1,0.1-0.1,0.2v5.8h3.3v-8.2c0-0.1,0.1-0.1,0.2-0.1C65.3,237.6,65.6,237.7,65.6,237.8z"/>
		<path fill="#6A8732" d="M74.9,238C74.9,238.1,74.9,238.1,74.9,238c-0.2,0.1-0.3,0.1-0.4,0.2c-0.3,0.8-0.6,1.3-0.8,1.9v7.6
			c0,0.1-0.1,0.1-0.2,0.1h-0.4c-0.1,0-0.2-0.1-0.2-0.1v-6.4c-0.3,0.4-0.6,0.8-1.1,1.3c-0.1,0-0.1,0-0.2-0.1
			c-0.1-0.1-0.2-0.2-0.4-0.3c-0.1,0-0.1-0.1-0.1-0.1c0.3-0.4,0.6-0.8,1-1.1c0.4-0.6,0.8-1.1,1.1-1.8c0.3-0.6,0.5-1.1,0.6-1.7
			c0-0.1,0.1-0.1,0.1-0.1C74.7,237.8,74.9,237.9,74.9,238z M77.7,244.3v-1.2c0-0.1,0.1-0.1,0.2-0.1c0.6,0,0.8,0.1,0.8,0.1
			s-0.1,0.1-0.1,0.1c-0.1,0-0.1,0.1-0.1,0.2v0.8h2.5c0.1,0,0.1,0.1,0.1,0.2v0.4c0,0.1-0.1,0.2-0.1,0.2h-2.5v1.8h3
			c0.1,0,0.1,0.1,0.1,0.2v0.4c0,0.1-0.1,0.1-0.1,0.1h-6.8c-0.1,0-0.1-0.1-0.1-0.1v-0.4c0-0.1,0.1-0.2,0.1-0.2h3.1v-1.8h-2.4
			c-0.1,0-0.1-0.1-0.1-0.2v-0.4c0-0.1,0-0.2,0.1-0.2H77.7z M77.7,239.1v-1.3c0-0.1,0.1-0.1,0.2-0.1c0.6,0,0.8,0.1,0.8,0.1
			s-0.1,0.1-0.1,0.1c-0.1,0-0.1,0.1-0.1,0.2v0.9h2.4c0.1,0,0.1,0.1,0.1,0.2v0.4c0,0.1-0.1,0.2-0.1,0.2h-2.3v1.6h2.9
			c0.1,0,0.1,0.1,0.1,0.2v0.4c0,0.1-0.1,0.2-0.1,0.2h-6.7c-0.1,0-0.1-0.1-0.1-0.2v-0.4c0-0.1,0.1-0.2,0.1-0.2h3v-1.6h-2.4
			c-0.1,0-0.1-0.1-0.1-0.2v-0.4c0-0.1,0-0.2,0.1-0.2L77.7,239.1L77.7,239.1z"/>
		<path fill="#6A8732" d="M88.9,237.8c0.1,0,0.1,0.1,0.1,0.1c0,0.1-0.1,0.2-0.1,0.2c-0.1,0-0.1,0.1-0.1,0.2c0,1.3-0.1,2.3-0.1,3.2
			c0.2,0.8,0.4,1.5,0.7,2c0.3,0.6,0.7,1.2,1.2,1.7c0.6,0.6,1.1,1.1,1.8,1.3c0.4,0.2,0.6,0.3,1,0.4c0.1,0.1,0.1,0.1,0.1,0.1
			s0,0.1-0.1,0.1c-0.1,0.1-0.3,0.3-0.4,0.4c0,0.1-0.1,0.1-0.1,0.1c-0.1,0-0.3-0.1-0.7-0.3c-1-0.6-1.8-1.1-2.3-1.8
			c-0.4-0.5-0.8-1.1-1.2-1.8c-0.1-0.3-0.3-0.6-0.4-0.8c-0.2,0.8-0.5,1.5-0.8,2.1c-0.4,0.6-0.9,1.1-1.6,1.6c-0.4,0.4-1.1,0.7-2,1.1
			c-0.1,0-0.1,0-0.2-0.1c-0.1-0.1-0.3-0.2-0.4-0.3l-0.1-0.1c0-0.1,0-0.1,0.1-0.1c1.1-0.6,2-1.1,2.7-1.7c0.6-0.6,1.1-1.3,1.3-2.2
			c0.4-1,0.5-2.5,0.5-4.7c0-0.3,0-0.6-0.1-0.8c0-0.1,0.1-0.1,0.1-0.1L88.9,237.8z M86.3,239.3c0.1,0.1,0.1,0.1,0.1,0.1
			c0,0.1-0.1,0.1-0.1,0.2c-0.1,0-0.1,0.1-0.1,0.1c-0.2,0.6-0.4,1.1-0.5,1.3c-0.1,0.4-0.4,0.6-0.5,1c-0.2,0.3-0.4,0.5-0.6,0.7
			c-0.1,0-0.2,0-0.3-0.1c-0.1-0.1-0.3-0.1-0.5-0.2c-0.1,0-0.1-0.1-0.1-0.1s0-0.1,0.1-0.1c0.4-0.4,0.6-0.7,0.8-1.2
			c0.1-0.3,0.3-0.6,0.4-0.8c0.1-0.3,0.3-0.7,0.4-1.3c0-0.1,0.1-0.1,0.1-0.1L86.3,239.3z M92.8,239.7c0.1,0.1,0.1,0.1,0.1,0.2
			c0,0.1,0,0.1-0.1,0.1s-0.1,0.1-0.2,0.1c-0.2,0.5-0.4,1-0.6,1.3c-0.3,0.5-0.6,0.9-1.1,1.4c-0.1,0-0.2,0-0.2-0.1
			c-0.2-0.1-0.4-0.3-0.4-0.4c-0.1,0-0.1-0.1-0.1-0.1s0-0.1,0.1-0.1c0.2-0.1,0.4-0.3,0.5-0.5c0.3-0.4,0.5-0.7,0.7-1.1
			c0.1-0.4,0.4-0.8,0.6-1.3c0-0.1,0.1-0.1,0.1-0.1L92.8,239.7z"/>
		<path fill="#6A8732" d="M99.7,238.7v-1.1c0-0.1,0.1-0.1,0.2-0.1c0.6,0,0.8,0.1,0.8,0.1c0,0.1,0,0.1-0.1,0.1s-0.1,0.1-0.1,0.2v0.7
			h4c0.1,0,0.1,0.1,0.1,0.2v0.4c0,0.1-0.1,0.2-0.1,0.2h-4v0.9h3c0.1,0,0.2,0.1,0.2,0.1v4c0,0.1-0.1,0.1-0.2,0.1h-3v1h4.5
			c0.1,0,0.1,0.1,0.1,0.1v0.4c0,0.1-0.1,0.2-0.1,0.2h-4.5v1.5c0,0.1-0.1,0.1-0.2,0.1h-0.4c-0.1,0-0.2-0.1-0.2-0.1v-1.5h-4.4
			c-0.1,0-0.1-0.1-0.1-0.2v-0.4c0-0.1,0.1-0.1,0.1-0.1h4.4v-1h-3c-0.1,0-0.2-0.1-0.2-0.1v-4c0-0.1,0.1-0.1,0.2-0.1h3v-0.9h-4
			c-0.1,0-0.1-0.1-0.1-0.2v-0.4c0-0.1,0.1-0.2,0.1-0.2L99.7,238.7L99.7,238.7z M99.7,242.1V241h-2.3v1.1H99.7z M99.7,242.8h-2.3v1.1
			h2.3V242.8z M100.5,242.1h2.4V241h-2.4V242.1z M102.8,242.8h-2.4v1.1h2.4V242.8z"/>
		<path fill="#6A8732" d="M111.1,241.3c0.1,0.1,0.1,0.1,0.1,0.1c0,0.1,0,0.1-0.1,0.1c-0.1,0-0.1,0.1-0.2,0.1
			c-0.1,0.7-0.4,1.6-0.6,2.5c-0.1,0.6-0.3,1.1-0.5,1.7c0.2,0,0.4-0.1,0.6-0.1c0.4-0.1,0.6-0.1,0.8-0.2c0,0,0.1,0,0.1,0.1
			c-0.1,0.2-0.1,0.4-0.1,0.6c0,0.1,0,0.1-0.1,0.1c-0.3,0.1-0.6,0.1-0.8,0.2c-1,0.3-2,0.5-3,0.8c-0.1,0.2-0.1,0.3-0.2,0.3
			c-0.1,0-0.1,0-0.1-0.1l-0.3-1.1c0.3,0,1.1-0.1,2.4-0.4c0.2-0.7,0.4-1.4,0.6-2.3c0.2-1,0.4-1.8,0.5-2.6c0-0.1,0-0.1,0.1-0.1
			L111.1,241.3z M110,237.7c0,0.1-0.1,0.1-0.1,0.1c-0.1,0-0.1,0.1-0.1,0.2v1.5h2c0.1,0,0.1,0.1,0.1,0.2v0.4c0,0.1-0.1,0.2-0.1,0.2
			h-4.8c-0.1,0-0.1-0.1-0.1-0.2v-0.3c0-0.1,0.1-0.2,0.1-0.2h2v-1.9c0-0.1,0.1-0.1,0.1-0.1C109.7,237.6,110,237.6,110,237.7z
			 M107.9,241.4c0.3,0.8,0.5,1.6,0.6,2.2c0.1,0.8,0.2,1.3,0.2,1.6c0,0.1-0.1,0.1-0.1,0.1c-0.3,0.1-0.5,0.2-0.6,0.2
			c-0.1-0.8-0.2-1.6-0.4-2.4c-0.1-0.6-0.3-1.1-0.5-1.6c0,0,0.2-0.1,0.6-0.1C107.8,241.2,107.9,241.3,107.9,241.4z M114.4,237.7
			c0,0.1-0.1,0.1-0.1,0.1s-0.1,0.1-0.1,0.2v1.4h2.6c0.1,0,0.1,0.1,0.1,0.2v0.4c0,0.1-0.1,0.2-0.1,0.2h-2.6v2.4h2.4
			c0.1,0,0.2,0.1,0.2,0.1v5c0,0.1-0.1,0.1-0.2,0.1h-0.4c-0.1,0-0.1-0.1-0.1-0.1v-0.6h-3.3v0.6c0,0.1-0.1,0.1-0.2,0.1h-0.4
			c-0.1,0-0.1-0.1-0.1-0.1v-5c0-0.1,0.1-0.1,0.1-0.1h1.3v-4.9c0-0.1,0.1-0.1,0.2-0.1C114.1,237.6,114.4,237.6,114.4,237.7z
			 M116,246.5v-3.1h-3.3v3.2L116,246.5L116,246.5z"/>
	</g>
	<g>
		<path fill="#6A8732" d="M171.9,41.1c0-0.1,0-0.3,0.1-0.4c0.1-0.7,0.1-1.6,0-2.6l1.2,0.1c0,0.1,0,0.1-0.1,0.1
			c-0.1,0.1-0.1,0.1-0.1,0.2c0,1.1-0.1,1.9-0.1,2.5h4.4c0.1,0,0.1,0.1,0.1,0.1v0.4c0,0.1-0.1,0.1-0.1,0.1h-4.2
			c0.1,0.6,0.3,1,0.5,1.4c0.2,0.5,0.4,1,0.7,1.3c0.4,0.6,0.8,1.1,1.4,1.6c0.5,0.4,1.1,0.8,1.7,0.9c0.1,0,0.1,0.1,0.1,0.1
			c0,0.1-0.1,0.1-0.1,0.2c-0.1,0.1-0.3,0.3-0.4,0.5c-0.1,0.1-0.1,0.1-0.2,0.1c-0.1,0-0.2-0.1-0.4-0.3c-0.8-0.5-1.5-1.1-2-1.8
			c-0.4-0.6-0.8-1.1-1-1.7c-0.1-0.3-0.4-0.9-0.6-1.7c-0.1,0.2-0.1,0.4-0.2,0.6c-0.2,0.6-0.5,1.2-0.8,1.7c-0.3,0.6-0.6,1.1-1.1,1.4
			c-0.6,0.5-1.3,1.1-2.3,1.6c-0.1,0-0.1-0.1-0.1-0.1c-0.1-0.1-0.3-0.3-0.4-0.4c-0.1-0.1-0.1-0.1-0.1-0.2c0.2-0.1,0.6-0.2,0.9-0.4
			c0.4-0.2,0.8-0.5,1.1-0.7c0.4-0.3,0.7-0.6,0.9-1c0.3-0.4,0.6-0.8,0.8-1.3c0.2-0.5,0.4-1,0.6-1.5c0.1-0.2,0.1-0.4,0.1-0.6h-4.4
			c-0.1,0-0.1-0.1-0.1-0.1v-0.4c0-0.1,0.1-0.1,0.1-0.1h4.4V41.1z"/>
		<path fill="#6A8732" d="M188.5,38.4c0.1,0,0.2,0.1,0.2,0.1V47c0,0.4-0.2,0.6-0.5,0.8c-0.3,0.1-0.7,0.3-1.3,0.3
			c-0.1,0-0.1-0.1-0.1-0.1c0-0.1-0.1-0.4-0.3-0.8c0-0.1,0-0.1,0.1-0.1c0.6,0,0.9,0,1.1-0.1c0.1-0.1,0.2-0.2,0.2-0.4v-7.5h-7.5V48
			c0,0.1-0.1,0.1-0.2,0.1h-0.4c-0.1,0-0.2-0.1-0.2-0.1v-9.5c0-0.1,0.1-0.1,0.2-0.1H188.5z M186.8,40.3c0.1,0,0.1,0.1,0.1,0.1v0.4
			c0,0.1-0.1,0.2-0.1,0.2h-5.3c-0.1,0-0.1-0.1-0.1-0.2v-0.4c0-0.1,0.1-0.1,0.1-0.1H186.8z M186.1,42.3c0.1,0,0.2,0.1,0.2,0.1v3.7
			c0,0.1-0.1,0.1-0.2,0.1h-0.4c-0.1,0-0.1-0.1-0.1-0.1v-0.5h-2.8v0.6c0,0.1-0.1,0.1-0.2,0.1h-0.4c-0.1,0-0.2-0.1-0.2-0.1v-3.7
			c0-0.1,0.1-0.2,0.2-0.2H186.1z M185.5,44.9V43h-2.8v1.9H185.5z"/>
		<path fill="#6A8732" d="M196.6,38.2c0,0.1-0.1,0.1-0.1,0.1s-0.1,0.1-0.1,0.2v7.8h3.1v-6.2c0-0.1,0.1-0.1,0.1-0.1
			c0.6,0,0.8,0.1,0.8,0.1c0,0.1,0,0.1-0.1,0.1s-0.1,0.1-0.1,0.2V48c0,0.1-0.1,0.1-0.2,0.1h-0.4c-0.1,0-0.1-0.1-0.1-0.1v-0.9h-7.2V48
			c0,0.1-0.1,0.1-0.2,0.1h-0.4c-0.1,0-0.2-0.1-0.2-0.1v-7.8c0-0.1,0.1-0.1,0.2-0.1c0.6,0,0.8,0.1,0.8,0.1c0,0.1-0.1,0.1-0.1,0.1
			s-0.1,0.1-0.1,0.2v5.9h3.3v-8.2c0-0.1,0.1-0.1,0.2-0.1C196.3,38.1,196.6,38.1,196.6,38.2z"/>
	</g>
	<g>
		<path fill="#6A8732" d="M130.7,26.5v-0.6c0-0.1,0.1-0.1,0.2-0.1c0.6,0,0.8,0.1,0.8,0.1c0,0.1-0.1,0.1-0.1,0.1
			c-0.1,0-0.1,0.1-0.1,0.2v0.3h4.2c0.1,0,0.1,0.1,0.1,0.1V27c0,0.1,0,0.1-0.1,0.1h-4.2v0.8h3.6c0.1,0,0.1,0.1,0.1,0.1v0.4
			c0,0.1,0,0.1-0.1,0.1h-3.6v0.8h4.4c0.1,0,0.1,0.1,0.1,0.1v0.4c0,0.1,0,0.1-0.1,0.1h-9.8c-0.1,0-0.1-0.1-0.1-0.1v-0.4
			c0-0.1,0-0.1,0.1-0.1h4.6v-0.8h-3.7c-0.1,0-0.1-0.1-0.1-0.1V28c0-0.1,0-0.1,0.1-0.1h3.7v-0.8h-4.3c-0.1,0-0.1-0.1-0.1-0.1v-0.4
			c0-0.1,0-0.1,0.1-0.1H130.7z M134.3,30.6c0.1,0,0.2,0.1,0.2,0.1v4.7c0,0.2-0.2,0.4-0.6,0.5c-0.4,0.1-0.8,0.1-1.4,0.1
			c-0.1,0-0.1-0.1-0.1-0.1c0-0.1-0.1-0.4-0.3-0.7c0,0,0,0,0.1,0c0.7,0,1.1,0,1.3-0.1c0.1-0.1,0.2-0.1,0.2-0.2v-0.7h-5.3v1.6
			c0,0.1-0.1,0.1-0.2,0.1h-0.4c-0.1,0-0.1-0.1-0.1-0.1v-5.1c0-0.1,0.1-0.1,0.1-0.1C127.8,30.6,134.3,30.6,134.3,30.6z M133.7,32.1
			v-0.8h-5.3v0.8H133.7z M133.7,33.5v-0.8h-5.3v0.8H133.7z"/>
		<path fill="#6A8732" d="M140.7,25.8c0,0.1-0.1,0.1-0.1,0.1c-0.1,0-0.1,0.1-0.1,0.2v0.3h2c0.1,0,0.1,0.1,0.1,0.1v0.4
			c0,0.1,0,0.1-0.1,0.1h-0.8l0.4,0.2c0.1,0.1,0.1,0.1,0.1,0.1c0,0.1,0,0.1-0.1,0.1c-0.1,0-0.1,0.1-0.1,0.1c-0.1,0.4-0.3,0.8-0.6,1.3
			h1.2c0.1,0,0.1,0.1,0.1,0.1v0.4c0,0.1,0,0.2-0.1,0.2h-5.1c-0.1,0-0.1-0.1-0.1-0.2V29c0-0.1,0-0.1,0.1-0.1h3.7l-0.5-0.3
			c0.1-0.3,0.3-0.5,0.4-0.8c0.1-0.3,0.1-0.5,0.2-0.8h-2.4c0.1,0.3,0.3,0.6,0.4,0.8c0.1,0.3,0.2,0.6,0.3,0.8c0,0-0.2,0.1-0.7,0.2
			c-0.1-0.2-0.1-0.4-0.2-0.7c-0.1-0.3-0.3-0.6-0.4-0.9c0,0,0.1-0.1,0.3-0.2h-0.7c-0.1,0-0.1-0.1-0.1-0.1v-0.3c0-0.1,0-0.1,0.1-0.1h2
			v-0.7c0-0.1,0.1-0.1,0.1-0.1C140.5,25.6,140.7,25.7,140.7,25.8z M142,30.3c0.1,0,0.2,0.1,0.2,0.1v4.9c0,0.2-0.1,0.4-0.4,0.5
			c-0.3,0.1-0.6,0.1-1.1,0.2c-0.1,0-0.1-0.1-0.1-0.1c0-0.1-0.1-0.4-0.3-0.7c0,0,0,0,0.1,0c0.5,0,0.8,0,0.8-0.1
			c0.1-0.1,0.1-0.1,0.1-0.2v-0.8h-2.6v1.7c0,0.1-0.1,0.1-0.2,0.1h-0.4c-0.1,0-0.1-0.1-0.1-0.1v-5.4c0-0.1,0.1-0.1,0.1-0.1
			C138.1,30.3,142,30.3,142,30.3z M141.5,31.9v-0.9h-2.6v0.9H141.5z M141.5,33.5v-1h-2.6v1H141.5z M144.1,27.9h3.2
			c0.1,0,0.1,0.1,0.1,0.1v1.8c0,0.1-0.1,0.1-0.1,0.1h-3.2v0.8h3.2c0.1,0,0.1,0.1,0.1,0.1v0.4c0,0.1,0,0.1-0.1,0.1h-3.2v0.8h3.2
			c0.1,0,0.1,0.1,0.1,0.1v0.4c0,0.1,0,0.1-0.1,0.1h-3.2v0.7h3.2c0.1,0,0.1,0.1,0.1,0.1V34c0,0.1,0,0.1-0.1,0.1h-3.2v0.4
			c0,0.3,0.2,0.5,0.6,0.5h2c0.3,0,0.5-0.1,0.6-0.2c0.1-0.1,0.1-0.3,0.2-0.5c0.2,0.2,0.4,0.3,0.6,0.3c0.1,0,0.1,0.1,0.1,0.1
			c-0.1,0.4-0.2,0.6-0.4,0.7c-0.1,0.2-0.4,0.3-0.8,0.3h-2.8c-0.6,0-0.9-0.2-0.9-0.7v-5.6c0-0.1,0.1-0.1,0.1-0.1h3.2v-0.8h-3.2
			c-0.1,0-0.2-0.1-0.2-0.1v-2.7c0-0.1,0.1-0.1,0.2-0.1c0.6,0,0.8,0.1,0.8,0.1c0,0.1-0.1,0.1-0.1,0.1c-0.1,0-0.1,0.1-0.1,0.2v0.4h3.7
			c0.1,0,0.1,0.1,0.1,0.1v0.4c0,0.1,0,0.1-0.1,0.1h-3.7V27.9z"/>
		<path fill="#6A8732" d="M152.4,28.7c0.1,0.1,0.1,0.1,0.1,0.1s-0.1,0.1-0.2,0.1c-0.1,0-0.1,0-0.1,0c0.4,0.4,0.7,0.8,1,1
			c0.4,0.3,0.8,0.6,1.4,0.9c0,0.1,0,0.1-0.1,0.1c-0.1,0.1-0.3,0.2-0.4,0.4h-0.1c-0.4-0.1-0.6-0.4-0.9-0.6c-0.4-0.3-0.8-0.7-1.2-1.2
			c-0.1,0.2-0.3,0.4-0.4,0.6c-0.1,0.2-0.4,0.5-0.6,0.7c-0.1,0.1-0.2,0.2-0.3,0.3h2.5c0.1,0,0.1,0.1,0.1,0.1v0.4c0,0.1,0,0.2-0.1,0.2
			h-2.5c-0.1,0-0.1-0.1-0.1-0.2v-0.4c-0.1,0.1-0.1,0.1-0.2,0.2c-0.2,0.2-0.4,0.4-0.5,0.4c-0.1,0-0.1,0-0.1-0.1
			c-0.1-0.1-0.2-0.3-0.3-0.4c-0.1,0-0.1-0.1-0.1-0.1s0,0,0-0.1c0.3-0.1,0.6-0.3,0.8-0.5c0.3-0.2,0.6-0.5,0.8-0.8
			c0.2-0.2,0.4-0.4,0.4-0.6c0.1-0.2,0.3-0.5,0.4-0.7c0-0.1,0.1-0.1,0.1-0.1L152.4,28.7z M153.5,32.3c0.1,0,0.1,0,0.1,0.1
			c0.1,0.1,0.2,0.2,0.2,0.3l-1.5,2.2c0.1,0.1,0.1,0.1,0.2,0.1c0.3,0.2,0.5,0.4,0.7,0.6c0,0,0,0,0,0.1c0,0.1-0.2,0.2-0.6,0.4h-0.1
			c-0.4-0.3-0.6-0.6-1.1-0.8c-0.2-0.1-0.4-0.3-0.7-0.4c-0.4-0.1-0.7-0.3-1.1-0.5c0,0-0.1,0-0.1-0.1c0,0,0.1-0.2,0.4-0.5
			c0.1,0,0.1-0.1,0.1-0.1c0.3,0.1,0.6,0.3,1,0.4c0.1,0.1,0.3,0.2,0.5,0.3l1.1-1.5h-3.1c-0.1,0-0.1-0.1-0.1-0.2v-0.4
			c0-0.1,0-0.1,0.1-0.1L153.5,32.3L153.5,32.3z M155,25.8c0,0.1,0,0.1-0.1,0.1c-0.1,0-0.1,0.1-0.1,0.2v1.1h3v-1.1
			c0-0.1,0.1-0.1,0.1-0.1c0.5,0,0.8,0.1,0.8,0.1c0,0.1,0,0.1-0.1,0.1s-0.1,0.1-0.1,0.2v1.6c0,0.1-0.1,0.1-0.2,0.1H158
			c-0.1,0-0.1-0.1-0.1-0.1v-0.3h-6.6v0.3c0,0.1-0.1,0.1-0.1,0.1h-0.5c-0.1,0-0.1-0.1-0.1-0.1v-2c0-0.1,0.1-0.1,0.1-0.1
			c0.5,0,0.8,0.1,0.8,0.1c0,0.1,0,0.1-0.1,0.1s-0.1,0.1-0.1,0.2v0.7h2.9v-1.5c0-0.1,0.1-0.1,0.1-0.1C154.7,25.6,155,25.7,155,25.8z
			 M159.3,28.7c0.1,0,0.1,0.1,0.1,0.1v0.4c0,0.1,0,0.1-0.1,0.1H157l-0.3,0.6h2c0.1,0,0.2,0.1,0.2,0.1v4.3c0,0.1-0.1,0.1-0.2,0.1H158
			c0.6,0.3,1.1,0.6,1.6,0.8c0,0,0,0.1-0.1,0.1c-0.2,0.3-0.3,0.5-0.4,0.5c-0.6-0.3-1.2-0.6-1.8-0.9c0,0,0.1-0.1,0.4-0.4
			c0,0,0-0.1,0.1-0.1h-2l0.5,0.4c0.1,0.1,0.1,0.1,0.1,0.1c0,0,0,0-0.1,0s-0.1,0-0.2,0.1c-0.2,0.1-0.4,0.3-0.6,0.4
			c-0.3,0.1-0.6,0.3-1.1,0.4c-0.1,0-0.1,0-0.1-0.1c-0.1-0.1-0.3-0.2-0.4-0.3c-0.1,0-0.1-0.1-0.1-0.1s0,0,0.1,0
			c0.2-0.1,0.4-0.1,0.5-0.1c0.3-0.1,0.5-0.2,0.7-0.4c0.1-0.1,0.4-0.3,0.6-0.4h-0.8c-0.1,0-0.1-0.1-0.1-0.1v-4.4
			c0-0.1,0.1-0.1,0.1-0.1h1l0.3-0.6h-2c-0.1,0-0.1-0.1-0.1-0.1v-0.4c0-0.1,0-0.1,0.1-0.1H159.3z M158.3,31.3v-0.8h-2.8v0.8H158.3z
			 M158.3,32.6v-0.7h-2.8v0.7H158.3z M158.3,33.2h-2.8v0.7h2.8V33.2z"/>
	</g>
	<g>
		<path fill="#6A8732" d="M25.4,54.9c0-0.1,0-0.3,0.1-0.4c0.1-0.7,0.1-1.6,0-2.6l1.2,0.1c0,0.1,0,0.1-0.1,0.1
			c-0.1,0.1-0.1,0.1-0.1,0.2c0,1.1-0.1,1.9-0.1,2.5h4.4c0.1,0,0.1,0.1,0.1,0.1v0.4c0,0.1-0.1,0.1-0.1,0.1h-4.2
			c0.1,0.6,0.3,1,0.5,1.4c0.2,0.5,0.4,1,0.7,1.3c0.4,0.6,0.8,1.1,1.4,1.6c0.5,0.4,1.1,0.8,1.7,0.9c0.1,0,0.1,0.1,0.1,0.1
			c0,0.1-0.1,0.1-0.1,0.2c-0.1,0.1-0.3,0.3-0.4,0.5c-0.1,0.1-0.1,0.1-0.2,0.1c-0.1,0-0.2-0.1-0.4-0.3c-0.8-0.5-1.5-1.1-2-1.8
			c-0.4-0.6-0.8-1.1-1-1.7c-0.1-0.3-0.4-0.9-0.6-1.7c-0.1,0.2-0.1,0.4-0.2,0.6c-0.2,0.6-0.5,1.2-0.8,1.7c-0.3,0.6-0.6,1.1-1.1,1.4
			c-0.6,0.5-1.3,1.1-2.3,1.6c-0.1,0-0.1-0.1-0.1-0.1c-0.1-0.1-0.3-0.3-0.4-0.4c-0.1-0.1-0.1-0.1-0.1-0.2c0.2-0.1,0.6-0.2,0.9-0.4
			c0.4-0.2,0.8-0.5,1.1-0.7c0.4-0.3,0.7-0.6,0.9-1c0.3-0.4,0.6-0.8,0.8-1.3c0.2-0.5,0.4-1,0.6-1.5c0.1-0.2,0.1-0.4,0.1-0.6h-4.3
			c-0.1,0-0.1-0.1-0.1-0.1v-0.4c0-0.1,0.1-0.1,0.1-0.1h4.3V54.9z"/>
		<path fill="#6A8732" d="M34,53.9v-2.2c0-0.1,0.1-0.1,0.2-0.1c0.6,0,0.8,0.1,0.8,0.1c0,0.1-0.1,0.1-0.1,0.1s-0.1,0.1-0.1,0.2v1.8
			H36c0.1,0,0.1,0.1,0.1,0.1v0.4c0,0.1-0.1,0.1-0.1,0.1h-1.1c0.2,0.6,0.4,1,0.5,1.3c0.2,0.4,0.6,0.9,1,1.5c0.1,0.1,0.1,0.1,0.1,0.1
			c0,0,0,0.1-0.1,0.1c-0.1,0.1-0.2,0.2-0.3,0.4c-0.1,0.1-0.1,0.1-0.1,0.1s-0.1,0-0.1-0.1c-0.4-0.4-0.6-0.9-0.8-1.4
			c-0.1-0.1-0.1-0.1-0.1-0.2v5.4c0,0.1-0.1,0.1-0.1,0.1h-0.4c-0.1,0-0.2-0.1-0.2-0.1v-4.6c-0.1,0.4-0.3,0.7-0.4,1
			c-0.2,0.5-0.4,1-0.7,1.4c-0.1,0-0.1,0-0.2-0.1c-0.1-0.1-0.3-0.1-0.5-0.2c-0.1,0-0.1,0-0.1-0.1c0.4-0.6,0.6-1.1,0.8-1.6
			c0.2-0.5,0.4-1,0.5-1.5c0.1-0.3,0.2-0.8,0.4-1.5h-1.3c-0.1,0-0.1-0.1-0.1-0.1v-0.2c0-0.1,0.1-0.1,0.1-0.1L34,53.9L34,53.9z
			 M38.9,52.7v-0.8c0-0.1,0.1-0.1,0.1-0.1c0.6,0,0.8,0.1,0.8,0.1c0,0.1,0,0.1-0.1,0.1s-0.1,0.1-0.1,0.2v0.4h2.7
			c0.1,0,0.1,0.1,0.1,0.1v0.4c0,0.1-0.1,0.2-0.1,0.2h-2.7v0.8h2.2c0.1,0,0.2,0.1,0.2,0.1v3.6c0,0.1-0.1,0.1-0.2,0.1h-2
			c0.1,0.4,0.4,0.6,0.5,0.8c0.3,0.4,0.6,0.7,0.8,0.9c0.4,0.4,0.8,0.6,1.3,0.8c0.1,0,0.1,0.1,0.1,0.1c0,0.1,0,0.1-0.1,0.1
			c-0.1,0.1-0.3,0.3-0.4,0.4c-0.1,0.1-0.1,0.1-0.1,0.1c-0.4-0.2-0.7-0.4-1-0.6c-0.4-0.3-0.7-0.6-1-1.1c-0.1-0.1-0.3-0.4-0.4-0.6v2.7
			c0,0.1-0.1,0.1-0.2,0.1h-0.4c-0.1,0-0.1-0.1-0.1-0.1v-2.7c-0.1,0.1-0.3,0.3-0.4,0.4c-0.3,0.4-0.6,0.7-1.1,1.1
			c-0.4,0.4-0.8,0.6-1.3,0.9c-0.1,0-0.1,0-0.2-0.1c-0.1-0.1-0.3-0.3-0.4-0.4c0-0.1,0-0.1,0-0.1c0.4-0.2,0.7-0.4,1-0.6
			c0.4-0.3,0.8-0.6,1.2-1.1c0.2-0.3,0.6-0.6,1-1.3h-2c-0.1,0-0.2-0.1-0.2-0.1v-3.6c0-0.1,0.1-0.1,0.2-0.1H39v-0.8h-2.8
			c-0.1,0-0.1-0.1-0.1-0.2v-0.4c0-0.1,0-0.1,0.1-0.1L38.9,52.7L38.9,52.7z M38.9,55.8v-0.8h-1.6v0.8H38.9z M38.9,56.5h-1.6v0.8h1.6
			V56.5z M39.7,55.8h1.6v-0.8h-1.6V55.8z M41.3,56.5h-1.6v0.8h1.6V56.5z"/>
		<path fill="#6A8732" d="M50,51.9C50,52,50,52,49.9,52s-0.1,0.1-0.1,0.2v7.8h3.1v-6.2c0-0.1,0.1-0.1,0.1-0.1c0.6,0,0.8,0.1,0.8,0.1
			c0,0.1,0,0.1-0.1,0.1s-0.1,0.1-0.1,0.2v7.5c0,0.1-0.1,0.1-0.2,0.1H53c-0.1,0-0.1-0.1-0.1-0.1v-0.9h-7.3v0.9c0,0.1-0.1,0.1-0.2,0.1
			h-0.4c-0.1,0-0.2-0.1-0.2-0.1v-7.8c0-0.1,0.1-0.1,0.2-0.1c0.6,0,0.8,0.1,0.8,0.1c0,0.1-0.1,0.1-0.1,0.1s-0.1,0.1-0.1,0.2v5.8h3.3
			v-8.2c0-0.1,0.1-0.1,0.2-0.1C49.7,51.8,50,51.8,50,51.9z"/>
	</g>
	<g>
		<path fill="#6A8732" d="M254.1,102.7v-2.3c0-0.1,0.1-0.1,0.1-0.1c0.6,0,0.8,0.1,0.8,0.1s-0.1,0.1-0.1,0.1s-0.1,0.1-0.1,0.2v1.9
			h0.8c0.1,0,0.1,0.1,0.1,0.2v0.4c0,0.1-0.1,0.2-0.1,0.2h-0.8c0.1,0.4,0.3,0.8,0.4,1c0.1,0.4,0.4,0.8,0.8,1.3c0,0,0.1,0.1,0.1,0.1
			c0,0,0,0.1-0.1,0.1c-0.1,0.1-0.1,0.2-0.3,0.3c-0.1,0.1-0.1,0.1-0.1,0.1c0,0-0.1,0-0.1-0.1c-0.3-0.4-0.5-0.8-0.6-1.2
			c0-0.1,0-0.1-0.1-0.1v5.5c0,0.1-0.1,0.1-0.2,0.1h-0.4c-0.1,0-0.1-0.1-0.1-0.1v-4.9c-0.1,0.3-0.2,0.6-0.3,0.8
			c-0.1,0.4-0.3,0.8-0.5,1.1c-0.1,0-0.1,0-0.1-0.1c-0.1-0.1-0.3-0.1-0.4-0.2c-0.1,0-0.1,0-0.1-0.1c0.3-0.4,0.5-0.9,0.6-1.3
			c0.1-0.4,0.3-0.8,0.4-1.2c0.1-0.3,0.1-0.6,0.3-1.1h-0.9c-0.1,0-0.1-0.1-0.1-0.2v-0.4c0-0.1,0.1-0.2,0.1-0.2L254.1,102.7
			L254.1,102.7z M257.4,108.6c0.1,0.2,0.1,0.4,0.2,0.7h0.1c0.2,0,0.4-0.1,0.6-0.1c0.1-0.2,0.1-0.4,0.3-0.6c0.1-0.4,0.2-0.7,0.3-1
			v-0.1l0.8,0.3c0.1,0.1,0.1,0.1,0.1,0.1c0,0,0,0-0.1,0c-0.1,0-0.1,0-0.1,0.1c-0.1,0.3-0.2,0.6-0.4,0.8c-0.1,0.1-0.1,0.2-0.1,0.3
			c0.2-0.1,0.5-0.1,0.7-0.1c0,0,0,0,0.1,0c0.1,0,0.1,0,0.1,0.1c0,0.4,0,0.5-0.1,0.6c-1.2,0.2-2.4,0.4-3.6,0.6
			c-0.1,0.1-0.1,0.3-0.2,0.3s-0.2-0.3-0.4-0.8c0.4,0,0.8-0.1,1.2-0.1c0-0.1-0.1-0.3-0.1-0.4c-0.1-0.4-0.3-0.7-0.4-1.1
			c0-0.1,0.2-0.1,0.6-0.4C257.1,108,257.2,108.3,257.4,108.6z M257.5,101.4v-1c0-0.1,0.1-0.1,0.2-0.1c0.6,0,0.8,0.1,0.8,0.1
			s0,0.1-0.1,0.1c-0.1,0-0.1,0.1-0.1,0.2v0.6h1.4c0.1,0,0.1,0.1,0.1,0.1v0.4c0,0.1,0,0.2-0.1,0.2h-1.4v1h1.2c0.1,0,0.1,0.1,0.1,0.1
			v0.4c0,0.1,0,0.1-0.1,0.1h-3.2c-0.1,0-0.1-0.1-0.1-0.1v-0.4c0-0.1,0-0.1,0.1-0.1h1.2v-1h-1.4c-0.1,0-0.1-0.1-0.1-0.2v-0.4
			c0-0.1,0-0.1,0.1-0.1L257.5,101.4L257.5,101.4z M259.2,104.5c0.1,0,0.1,0.1,0.1,0.1v2.4c0,0.1-0.1,0.1-0.1,0.1h-2.7
			c-0.1,0-0.1-0.1-0.1-0.1v-2.4c0-0.1,0.1-0.1,0.1-0.1C256.5,104.5,259.2,104.5,259.2,104.5z M258.6,105.1h-1.5v1.4h1.5V105.1z
			 M261.1,105.8c0.1,0.3,0.3,0.6,0.4,0.9c0,0-0.2,0.1-0.6,0.2c-0.1-0.2-0.1-0.5-0.3-0.8c-0.1-0.4-0.4-0.7-0.6-1.1
			c0-0.1,0.2-0.1,0.6-0.4C260.8,105.2,261,105.6,261.1,105.8z M261.7,102.8V101c0-0.2,0-0.4,0-0.5c0-0.1,0-0.1,0-0.2
			c0,0,0.1-0.1,0.1-0.1l0.8,0.1c0.1,0.1,0.1,0.1,0.1,0.1c0,0.1-0.1,0.1-0.1,0.1c-0.1,0.1-0.2,0.2-0.2,0.5v1.8h0.6
			c0.1,0,0.1,0.1,0.1,0.2v0.4c0,0.1-0.1,0.2-0.1,0.2h-0.6v6.3c0,0.5-0.4,0.8-1.1,0.8h-0.6c-0.1,0-0.1-0.1-0.1-0.2s-0.1-0.3-0.2-0.5
			c0-0.1,0-0.1,0.1-0.1c0.3,0.1,0.5,0.1,0.7,0.1c0.3,0,0.4-0.1,0.4-0.4v-6h-1.5c-0.1,0-0.1-0.1-0.1-0.2v-0.4c0-0.1,0.1-0.2,0.1-0.2
			L261.7,102.8L261.7,102.8z"/>
		<path fill="#6A8732" d="M266.8,102.8v-2.4c0-0.1,0.1-0.1,0.1-0.1c0.6,0,0.8,0.1,0.8,0.1s0,0.1-0.1,0.1c-0.1,0-0.1,0.1-0.1,0.2v2
			h1.5c0.1,0,0.1,0.1,0.1,0.2v0.4c0,0.1-0.1,0.2-0.1,0.2h-1.3c0.2,0.5,0.4,0.9,0.6,1.2c0.2,0.4,0.6,0.8,1.1,1.4
			c0.1,0.1,0.1,0.1,0.1,0.1c0,0,0,0.1-0.1,0.1c-0.1,0.1-0.2,0.2-0.4,0.4c-0.1,0.1-0.1,0.1-0.1,0.1c-0.1,0-0.1,0-0.1-0.1
			c-0.4-0.4-0.6-0.8-0.9-1.3c-0.1-0.1-0.1-0.3-0.2-0.4v5.4c0,0.1-0.1,0.1-0.2,0.1H267c-0.1,0-0.1-0.1-0.1-0.1v-4.8
			c-0.2,0.6-0.5,1.1-0.8,1.6s-0.6,1-1,1.4c-0.1,0-0.1,0-0.2-0.1c-0.1-0.1-0.4-0.1-0.5-0.2c-0.1,0-0.1,0-0.1-0.1
			c0.5-0.6,0.9-1.1,1.2-1.7c0.3-0.5,0.6-1,0.7-1.5c0.1-0.4,0.3-0.8,0.5-1.6h-1.8c-0.1,0-0.1-0.1-0.1-0.2v-0.4c0-0.1,0.1-0.2,0.1-0.2
			h2V102.8z M271.4,102.8v-2.4c0-0.1,0.1-0.1,0.1-0.1c0.6,0,0.8,0.1,0.8,0.1s-0.1,0.1-0.1,0.1s-0.1,0.1-0.1,0.2v2h2
			c0.1,0,0.1,0.1,0.1,0.2v0.4c0,0.1-0.1,0.2-0.1,0.2h-2c0.3,0.8,0.6,1.5,0.8,2c0.3,0.6,0.6,1.1,1,1.6c0.3,0.4,0.6,0.7,0.9,0.9
			c0,0.1-0.1,0.1-0.1,0.1c-0.1,0.1-0.3,0.3-0.4,0.4c-0.1,0.1-0.1,0.1-0.1,0.1c-0.5-0.4-0.8-0.9-1.2-1.4c-0.4-0.5-0.6-1.1-0.8-1.7
			c-0.1-0.1-0.1-0.2-0.1-0.3v5.2c0,0.1-0.1,0.1-0.1,0.1h-0.4c-0.1,0-0.1-0.1-0.1-0.1v-4.9c-0.3,0.6-0.6,1.1-0.9,1.6
			c-0.4,0.5-0.7,1-1.1,1.4c-0.1,0-0.1,0-0.2-0.1c-0.1-0.1-0.4-0.1-0.5-0.2c-0.1,0-0.1,0-0.1-0.1c0.6-0.6,1.1-1.1,1.4-1.7
			c0.4-0.5,0.6-1,0.8-1.5c0.1-0.4,0.4-0.8,0.6-1.6h-1.6c-0.1,0-0.1-0.1-0.1-0.2v-0.4c0-0.1,0-0.2,0.1-0.2h1.7V102.8z"/>
		<path fill="#6A8732" d="M281.9,100.5c0.1,0,0.1,0.1,0.1,0.1c0,0.1-0.1,0.2-0.1,0.2c-0.1,0-0.1,0.1-0.1,0.2c0,1.3-0.1,2.3-0.1,3.2
			c0.2,0.8,0.4,1.5,0.7,2c0.3,0.6,0.7,1.2,1.2,1.7c0.6,0.6,1.1,1.1,1.8,1.3c0.4,0.2,0.6,0.3,1,0.4c0.1,0.1,0.1,0.1,0.1,0.1
			c0,0.1,0,0.1-0.1,0.1c-0.1,0.1-0.3,0.3-0.4,0.4c0,0.1-0.1,0.1-0.1,0.1c-0.1,0-0.3-0.1-0.7-0.3c-1-0.6-1.8-1.1-2.3-1.8
			c-0.4-0.5-0.8-1.1-1.2-1.8c-0.1-0.3-0.3-0.6-0.4-0.8c-0.2,0.8-0.5,1.5-0.8,2.1c-0.4,0.6-0.9,1.1-1.6,1.6c-0.4,0.4-1.1,0.7-2,1.1
			c-0.1,0-0.1,0-0.2-0.1c-0.1-0.1-0.3-0.2-0.4-0.3l-0.1-0.1c0-0.1,0-0.1,0.1-0.1c1.1-0.6,2-1.1,2.7-1.7c0.6-0.6,1.1-1.3,1.3-2.2
			c0.4-1,0.5-2.5,0.5-4.7c0-0.3,0-0.6-0.1-0.8c0-0.1,0.1-0.1,0.1-0.1L281.9,100.5z M279.4,102.1c0.1,0.1,0.1,0.1,0.1,0.1
			c0,0.1-0.1,0.1-0.1,0.2c-0.1,0-0.1,0.1-0.1,0.1c-0.2,0.6-0.4,1.1-0.5,1.3c-0.1,0.4-0.4,0.6-0.5,1c-0.2,0.3-0.4,0.5-0.6,0.7
			c-0.1,0-0.2,0-0.3-0.1c-0.1-0.1-0.3-0.1-0.5-0.2c-0.1,0-0.1-0.1-0.1-0.1s0-0.1,0.1-0.1c0.4-0.4,0.6-0.7,0.8-1.2
			c0.1-0.3,0.3-0.6,0.4-0.8c0.1-0.3,0.3-0.7,0.4-1.3c0-0.1,0.1-0.1,0.1-0.1L279.4,102.1z M285.8,102.4c0.1,0.1,0.1,0.1,0.1,0.2
			s0,0.1-0.1,0.1c-0.1,0-0.1,0.1-0.2,0.1c-0.2,0.5-0.4,1-0.6,1.3c-0.3,0.5-0.6,0.9-1.1,1.4c-0.1,0-0.2,0-0.2-0.1
			c-0.2-0.1-0.4-0.3-0.4-0.4c-0.1,0-0.1-0.1-0.1-0.1s0-0.1,0.1-0.1c0.2-0.1,0.4-0.3,0.5-0.5c0.3-0.4,0.5-0.7,0.7-1.1
			c0.1-0.4,0.4-0.8,0.6-1.3c0-0.1,0.1-0.1,0.1-0.1L285.8,102.4z"/>
		<path fill="#6A8732" d="M292.7,101.4v-1.1c0-0.1,0.1-0.1,0.2-0.1c0.6,0,0.8,0.1,0.8,0.1c0,0.1,0,0.1-0.1,0.1
			c-0.1,0-0.1,0.1-0.1,0.2v0.7h4c0.1,0,0.1,0.1,0.1,0.2v0.4c0,0.1-0.1,0.2-0.1,0.2h-4v0.9h3c0.1,0,0.2,0.1,0.2,0.1v4
			c0,0.1-0.1,0.1-0.2,0.1h-3v1h4.5c0.1,0,0.1,0.1,0.1,0.1v0.4c0,0.1-0.1,0.2-0.1,0.2h-4.5v1.5c0,0.1-0.1,0.1-0.2,0.1H293
			c-0.1,0-0.2-0.1-0.2-0.1v-1.5h-4.4c-0.1,0-0.1-0.1-0.1-0.2v-0.4c0-0.1,0.1-0.1,0.1-0.1h4.4v-1h-3c-0.1,0-0.2-0.1-0.2-0.1v-4
			c0-0.1,0.1-0.1,0.2-0.1h3v-0.8h-4c-0.1,0-0.1-0.1-0.1-0.2v-0.4c0-0.1,0.1-0.2,0.1-0.2C288.8,101.4,292.7,101.4,292.7,101.4z
			 M292.7,104.8v-1.1h-2.3v1.1H292.7z M292.7,105.6h-2.3v1.1h2.3V105.6z M293.5,104.8h2.4v-1.1h-2.4V104.8z M295.9,105.6h-2.4v1.1
			h2.4V105.6z"/>
		<path fill="#6A8732" d="M304.2,104c0.1,0.1,0.1,0.1,0.1,0.1c0,0.1,0,0.1-0.1,0.1c-0.1,0-0.1,0.1-0.2,0.1c-0.1,0.7-0.4,1.6-0.6,2.5
			c-0.1,0.6-0.3,1.1-0.5,1.7c0.2,0,0.4-0.1,0.6-0.1c0.4-0.1,0.6-0.1,0.8-0.2c0,0,0.1,0,0.1,0.1c-0.1,0.2-0.1,0.4-0.1,0.6
			c0,0.1,0,0.1-0.1,0.1c-0.3,0.1-0.6,0.1-0.8,0.2c-1,0.3-2,0.5-3,0.8c-0.1,0.2-0.1,0.3-0.2,0.3s-0.1,0-0.1-0.1l-0.3-1.1
			c0.3,0,1.1-0.1,2.4-0.4c0.2-0.7,0.4-1.4,0.6-2.3c0.2-1,0.4-1.8,0.5-2.6c0-0.1,0-0.1,0.1-0.1L304.2,104z M303,100.5
			c0,0.1-0.1,0.1-0.1,0.1c-0.1,0-0.1,0.1-0.1,0.2v1.5h2c0.1,0,0.1,0.1,0.1,0.2v0.4c0,0.1-0.1,0.2-0.1,0.2h-4.8
			c-0.1,0-0.1-0.1-0.1-0.2v-0.4c0-0.1,0.1-0.2,0.1-0.2h2v-1.9c0-0.1,0.1-0.1,0.1-0.1C302.7,100.3,303,100.3,303,100.5z M301,104.1
			c0.3,0.8,0.5,1.6,0.6,2.2c0.1,0.8,0.2,1.3,0.2,1.6c0,0.1-0.1,0.1-0.1,0.1c-0.3,0.1-0.5,0.2-0.6,0.2c-0.1-0.8-0.2-1.6-0.4-2.4
			c-0.1-0.6-0.3-1.1-0.5-1.6c0,0,0.2-0.1,0.6-0.1C300.9,104,301,104,301,104.1z M307.5,100.5c0,0.1-0.1,0.1-0.1,0.1
			s-0.1,0.1-0.1,0.2v1.4h2.6c0.1,0,0.1,0.1,0.1,0.2v0.4c0,0.1-0.1,0.2-0.1,0.2h-2.6v2.4h2.4c0.1,0,0.2,0.1,0.2,0.1v5
			c0,0.1-0.1,0.1-0.2,0.1h-0.4c-0.1,0-0.1-0.1-0.1-0.1v-0.6h-3.3v0.6c0,0.1-0.1,0.1-0.2,0.1h-0.4c-0.1,0-0.1-0.1-0.1-0.1v-5
			c0-0.1,0.1-0.1,0.1-0.1h1.3v-4.9c0-0.1,0.1-0.1,0.2-0.1C307.2,100.3,307.5,100.3,307.5,100.5z M309,109.2V106h-3.3v3.2H309z"/>
	</g>
	<g>
		<g>
			<path fill="#E50012" d="M273.1,88.6v-1.5c0-0.1,0.1-0.1,0.1-0.1c0.6,0,0.8,0.1,0.8,0.1s-0.1,0.1-0.1,0.1c-0.1,0-0.1,0.1-0.1,0.2
				v1.1h1.6c0.1,0,0.1,0.1,0.1,0.2v0.4c0,0.1-0.1,0.2-0.1,0.2h-1.6v1.5h1.8c0.1,0,0.1,0.1,0.1,0.1v0.4c0,0.1-0.1,0.2-0.1,0.2h-1.8
				v1.8h1.8c0.1,0,0.1,0.1,0.1,0.2v0.4c0,0.1-0.1,0.2-0.1,0.2h-1.8v2.2c0.4,0.1,1,0.1,1.7,0.1c1.7,0,3.3-0.1,5-0.2
				c0.1,0,0.1,0.1,0.1,0.1c-0.1,0.3-0.2,0.6-0.3,0.8c0,0.1-0.1,0.1-0.1,0.1h-4.7c-0.6,0-1.2-0.1-1.7-0.1c-0.6-0.1-1-0.3-1.3-0.4
				c-0.4-0.2-0.6-0.5-0.8-0.8c-0.1-0.1-0.1-0.1-0.1-0.2c-0.2,0.7-0.5,1.3-0.8,1.7c-0.1,0-0.1,0-0.2-0.1c-0.1-0.1-0.3-0.2-0.4-0.4
				c-0.1-0.1-0.1-0.1-0.1-0.1c0-0.1,0-0.1,0.1-0.1c0.2-0.2,0.4-0.4,0.5-0.7s0.2-0.6,0.3-0.8c0.1-0.3,0.1-0.6,0.2-1
				c0.1-0.4,0.1-1,0.1-1.6c0-0.1,0-0.2,0.1-0.2l0.8,0.2c0.1,0.1,0.1,0.1,0.1,0.1s-0.1,0.1-0.1,0.1c-0.1,0.1-0.1,0.1-0.1,0.2
				c0,0.4-0.1,0.8-0.1,1.3c0.1,0.6,0.3,1,0.5,1.2c0.1,0.2,0.4,0.4,0.6,0.6v-4.5h-2.3c-0.1,0-0.1-0.1-0.1-0.2V91
				c0-0.1,0.1-0.1,0.1-0.1h2.3v-1.5h-1.8c-0.1,0-0.1-0.1-0.1-0.2v-0.4c0-0.1,0.1-0.2,0.1-0.2H273.1z M277.1,94.3
				c0,0.4,0.2,0.5,0.6,0.5h1.6c0.3,0,0.4-0.1,0.4-0.4c0.1-0.1,0.1-0.4,0.1-0.8c0.2,0.1,0.4,0.3,0.6,0.3c0.1,0,0.1,0.1,0.1,0.1
				c-0.1,0.5-0.2,0.8-0.3,1.1c-0.1,0.3-0.4,0.4-0.8,0.4h-2.3c-0.6,0-0.9-0.2-0.9-0.7v-6.6c0-0.1,0-0.1,0.1-0.1h3.4
				c0.1,0,0.2,0.1,0.2,0.1v4c0,0.1-0.1,0.1-0.2,0.1h-0.4c-0.1,0-0.1,0-0.1-0.1v-0.5h-2.1V94.3z M277.1,90.9h2.1v-2.3h-2.1V90.9z"/>
			<path fill="#E50012" d="M283.2,95.2c0.1,0,0.1,0.1,0.1,0.1c-0.1,0.8-0.3,1.5-0.4,2c0,0.1,0,0.1,0,0.1c-0.1,0-0.2,0-0.3-0.1
				c-0.1-0.1-0.3-0.1-0.4-0.1c-0.1,0-0.1-0.1-0.1-0.1c0.3-0.6,0.4-1.2,0.6-1.8c0-0.1,0.1-0.1,0.1-0.1L283.2,95.2z M287.4,87.3
				c0.1,0,0.2,0.1,0.2,0.1v3.4c0,0.1-0.1,0.1-0.2,0.1h-2v1h2c0.1,0,0.1,0.1,0.1,0.1v0.4c0,0.1,0,0.2-0.1,0.2h-2v1.1
				c0.6-0.1,1.4-0.1,2.2-0.3c0.1,0,0.1,0.1,0.1,0.1c-0.1,0.1-0.1,0.3-0.1,0.4s-0.1,0.2-0.1,0.2c-1.3,0.1-2.7,0.3-4.2,0.4
				c-0.2,0-0.3,0.1-0.4,0.1c-0.1,0.1-0.1,0.1-0.1,0.1c-0.1,0-0.1,0-0.1-0.1l-0.3-0.6c0-0.1,0.1-0.1,0.1-0.1c0.8,0,1.3-0.1,1.7-0.1
				c0.1,0,0.3,0,0.4,0v-1.2h-1.9c-0.1,0-0.1-0.1-0.1-0.2v-0.4c0-0.1,0-0.1,0.1-0.1h1.9v-1h-1.9c-0.1,0-0.2,0-0.2-0.1v-3.4
				c0-0.1,0.1-0.1,0.2-0.1h4.8V87.3z M284.5,88h-1.4v2.3h1.4V88z M284.1,89.1c0.1,0.2,0.1,0.4,0.2,0.6c0,0-0.2,0.1-0.6,0.1
				c0-0.1-0.1-0.3-0.1-0.6c-0.1-0.3-0.2-0.5-0.4-0.8c0-0.1,0.1-0.1,0.5-0.3C283.8,88.6,284,88.9,284.1,89.1z M284.3,95
				c0.1,0,0.1,0,0.1,0.1c0.1,0.6,0.1,1.3,0.1,2c0,0.1-0.1,0.1-0.1,0.1H284c-0.1,0-0.2,0-0.2-0.1c0.1-0.6,0.1-1.3,0.1-2
				c0-0.1,0-0.1,0.1-0.1H284.3z M285.7,95c0.3,0.8,0.4,1.4,0.5,1.9c0,0.1-0.1,0.1-0.1,0.1h-0.5c-0.1,0-0.1-0.1-0.1-0.1
				c-0.1-0.6-0.1-1.2-0.3-1.9c0-0.1,0-0.1,0.1-0.1h0.4C285.7,95,285.7,95,285.7,95z M286.8,88h-1.5v2.3h1.5V88z M286.6,88.5
				c0.1,0.1,0.1,0.1,0.1,0.1s0,0.1-0.1,0.1s-0.1,0-0.1,0.1c-0.1,0.4-0.4,0.8-0.5,1.1c-0.1,0.1-0.1,0.1-0.1,0.1c-0.1,0-0.1,0-0.1-0.1
				c-0.1-0.1-0.2-0.1-0.4-0.1c-0.1,0-0.1,0-0.1,0s0,0,0-0.1c0.1-0.2,0.3-0.4,0.4-0.6c0.1-0.2,0.2-0.4,0.3-0.6c0-0.1,0-0.1,0.1-0.1
				L286.6,88.5z M287.1,94.8c0.3,0.6,0.5,1.3,0.6,1.9c0,0.1-0.1,0.1-0.1,0.1l-0.6,0.1c-0.1,0-0.1-0.1-0.1-0.1
				c-0.1-0.5-0.2-1.1-0.5-1.9c0-0.1,0-0.1,0.1-0.1l0.4-0.1C287,94.7,287.1,94.7,287.1,94.8z M290.5,87.1c0,0.1-0.1,0.1-0.1,0.1
				c-0.1,0-0.1,0.1-0.1,0.2v1.9h2.1c0.1,0,0.1,0.1,0.1,0.1v0.4c0,0.1,0,0.2-0.1,0.2h-2.1v2.1h1.8c0.1,0,0.2,0.1,0.2,0.1v4.8
				c0,0.1-0.1,0.1-0.2,0.1h-0.4c-0.1,0-0.1-0.1-0.1-0.1v-0.8h-2.6v0.8c0,0.1-0.1,0.1-0.1,0.1h-0.4c-0.1,0-0.1-0.1-0.1-0.1v-4.8
				c0-0.1,0.1-0.1,0.1-0.1h1.2v-5.1c0-0.1,0.1-0.1,0.2-0.1C290.2,87.1,290.5,87.1,290.5,87.1z M291.5,95.7v-2.8h-2.6v2.8H291.5z"/>
		</g>
	</g>
	<g>
		<g>
			<path fill="#E50012" d="M78.8,230.6c0,0.1-0.1,0.1-0.1,0.2c-0.1,0.1-0.1,0.1-0.1,0.2c-0.1,0.8-0.1,1.3-0.2,1.8
				c-0.1,0.3-0.1,0.6-0.2,0.8c0,0.1-0.1,0.1-0.1,0.1c-0.3-0.1-0.5-0.1-0.6-0.1c-0.1,0-0.1-0.1-0.1-0.1c0.1-0.4,0.2-0.7,0.4-1.1
				c0.1-0.4,0.1-1.1,0.2-1.8c0-0.1,0-0.1,0.1-0.1C78.5,230.4,78.8,230.5,78.8,230.6z M80.6,224.2c0,0.1,0.1,0.1,0.1,0.1
				c0,0.1-0.1,0.1-0.2,0.1c-0.2,0-0.3,0.1-0.4,0.1c-0.4,0.6-0.8,1.1-1.1,1.6c0.3,0.2,0.6,0.5,0.8,0.8c0.1-0.1,0.1-0.1,0.1-0.1
				c0.5-0.6,0.9-1.1,1.2-1.6c0.6,0.4,0.8,0.6,0.8,0.7s-0.1,0.1-0.1,0.1c-0.2,0-0.4,0-0.4,0.1c-0.8,1.1-1.6,2-2.3,2.8
				c0.5,0,1.1-0.1,1.7-0.1c-0.1-0.3-0.2-0.5-0.4-0.8c0-0.1,0.2-0.1,0.6-0.4c0.2,0.4,0.4,0.9,0.6,1.3c0.1,0.4,0.3,0.7,0.4,1.1
				c0,0-0.2,0.1-0.7,0.2c-0.1-0.3-0.1-0.6-0.2-0.9c0,0,0,0,0-0.1l-1.1,0.2v4.7c0,0.1-0.1,0.1-0.2,0.1h-0.4c-0.1,0-0.1-0.1-0.1-0.1
				v-4.5l-1.3,0.3c-0.2,0.2-0.3,0.3-0.3,0.3s-0.1-0.4-0.2-1.1c0,0,0.3-0.1,0.8-0.1c0.5-0.6,0.9-1.1,1.3-1.5c-0.4-0.4-0.8-0.6-1-0.8
				c-0.4-0.2-0.7-0.4-1.1-0.6c0-0.1,0.1-0.3,0.5-0.6c0-0.1,0.1-0.1,0.1-0.1c0.1,0.1,0.4,0.2,0.5,0.4c0.2-0.3,0.4-0.6,0.6-0.8
				c0.3-0.5,0.6-0.8,0.7-1.1L80.6,224.2z M81.2,230.6c0.2,0.5,0.5,1.3,0.8,2.5c0,0.1-0.2,0.1-0.6,0.1c-0.1,0-0.1,0-0.1-0.1
				c-0.1-0.8-0.3-1.6-0.6-2.5c0-0.1,0.1-0.1,0.5-0.2C81.2,230.5,81.2,230.6,81.2,230.6z M84.8,224.2
				C84.8,224.2,84.8,224.2,84.8,224.2c-0.2,0.1-0.3,0.1-0.3,0.2c-0.1,0.2-0.1,0.4-0.2,0.6h2.8c0.1,0,0.2,0,0.2,0
				c0.1,0.1,0.1,0.1,0.1,0.2c-0.4,0.8-0.7,1.6-1.1,2.1c-0.2,0.3-0.4,0.6-0.7,0.8c0.1,0.1,0.4,0.4,0.6,0.5c0.3,0.2,0.6,0.4,0.9,0.5
				c0.1,0.1,0.4,0.1,0.6,0.2c0.1,0,0.1,0,0.1,0.1s0,0.1-0.1,0.1c-0.1,0.1-0.2,0.3-0.3,0.4c-0.1,0.1-0.1,0.1-0.1,0.1
				c-0.6-0.2-1-0.4-1.4-0.8c-0.3-0.2-0.6-0.4-0.7-0.6c-0.1,0.1-0.3,0.2-0.4,0.3c-0.6,0.5-1.2,0.8-2,1.1c-0.1,0-0.1,0-0.1-0.1
				c-0.1-0.1-0.1-0.4-0.3-0.5c0-0.1,0.1-0.2,0.1-0.2c0.4-0.1,0.8-0.3,1.3-0.5c0.3-0.1,0.6-0.4,0.8-0.6c-0.1-0.2-0.3-0.4-0.4-0.6
				c-0.2-0.3-0.4-0.7-0.6-1.1l-0.1,0.1c-0.2,0.3-0.5,0.7-0.9,1.2c-0.1,0-0.1,0-0.2-0.1c-0.1-0.1-0.2-0.1-0.4-0.3
				c-0.1,0-0.1-0.1-0.1-0.1c0.2-0.3,0.4-0.6,0.6-0.8c0.3-0.4,0.6-0.8,0.8-1.3c0.2-0.4,0.4-0.8,0.4-1.3c0-0.1,0-0.1,0.1-0.1
				C84.5,223.9,84.8,224.1,84.8,224.2z M84.6,232.3c0.4,0.1,0.8,0.3,1.3,0.5c0.4,0.2,0.8,0.4,1.3,0.6c0,0.1,0,0.1-0.1,0.1
				c-0.3,0.3-0.4,0.5-0.5,0.5h-0.1c-0.5-0.3-0.9-0.4-1.2-0.6c-0.4-0.2-0.8-0.3-1.1-0.4c-0.4-0.1-0.8-0.3-1.4-0.4
				c-0.1,0-0.1,0-0.1-0.1c0.1-0.4,0.3-0.6,0.4-0.6C83.7,232.1,84.2,232.1,84.6,232.3z M85.7,230.7c0.4,0.2,0.8,0.4,1.1,0.6
				c0,0,0,0.1-0.1,0.1c-0.2,0.3-0.4,0.5-0.4,0.5c-0.5-0.3-1-0.5-1.6-0.8c-0.4-0.2-0.8-0.3-1.1-0.4c0-0.1,0.1-0.2,0.4-0.5
				c0-0.1,0.1-0.1,0.1-0.1C84.8,230.4,85.3,230.6,85.7,230.7z M84.6,227c0.1,0.3,0.3,0.5,0.5,0.7c0.2-0.2,0.4-0.4,0.6-0.6
				c0.3-0.4,0.6-0.8,0.8-1.3h-2.4C84.3,226.3,84.4,226.7,84.6,227z"/>
			<path fill="#E50012" d="M90.1,232c0.1,0,0.1,0.1,0.1,0.1c-0.1,0.8-0.3,1.5-0.4,2c0,0.1,0,0.1,0,0.1c-0.1,0-0.2,0-0.3-0.1
				c-0.1-0.1-0.3-0.1-0.4-0.1c-0.1,0-0.1-0.1-0.1-0.1c0.3-0.6,0.4-1.2,0.6-1.8c0-0.1,0.1-0.1,0.1-0.1L90.1,232z M94.3,224
				c0.1,0,0.2,0.1,0.2,0.1v3.4c0,0.1-0.1,0.1-0.2,0.1h-2v1h2c0.1,0,0.1,0.1,0.1,0.1v0.4c0,0.1,0,0.2-0.1,0.2h-2v1.1
				c0.6-0.1,1.4-0.1,2.2-0.3c0.1,0,0.1,0.1,0.1,0.1c-0.1,0.1-0.1,0.3-0.1,0.4c0,0.1-0.1,0.2-0.1,0.2c-1.3,0.1-2.7,0.3-4.2,0.4
				c-0.2,0-0.3,0.1-0.4,0.1c-0.1,0.1-0.1,0.1-0.1,0.1c-0.1,0-0.1,0-0.1-0.1l-0.3-0.6c0-0.1,0.1-0.1,0.1-0.1c0.8,0,1.3-0.1,1.7-0.1
				c0.1,0,0.3,0,0.4,0v-1.2h-1.9c-0.1,0-0.1-0.1-0.1-0.2V229c0-0.1,0-0.1,0.1-0.1h1.9v-1h-2c-0.1,0-0.2,0-0.2-0.1v-3.4
				c0-0.1,0.1-0.1,0.2-0.1h4.9V224z M91.5,224.7h-1.4v2.3h1.4V224.7z M91,225.8c0.1,0.2,0.1,0.4,0.2,0.6c0,0-0.2,0.1-0.6,0.1
				c0-0.1-0.1-0.3-0.1-0.6c-0.1-0.3-0.2-0.5-0.4-0.8c0-0.1,0.1-0.1,0.5-0.3C90.8,225.4,90.9,225.6,91,225.8z M91.3,231.8
				c0.1,0,0.1,0,0.1,0.1c0.1,0.6,0.1,1.3,0.1,2c0,0.1-0.1,0.1-0.1,0.1H91c-0.1,0-0.2,0-0.2-0.1c0.1-0.6,0.1-1.3,0.1-2
				c0-0.1,0-0.1,0.1-0.1H91.3z M92.7,231.8c0.3,0.8,0.4,1.4,0.5,1.9c0,0.1-0.1,0.1-0.1,0.1h-0.5c-0.1,0-0.1-0.1-0.1-0.1
				c-0.1-0.6-0.1-1.2-0.3-1.9c0-0.1,0-0.1,0.1-0.1h0.4C92.6,231.7,92.7,231.8,92.7,231.8z M93.7,224.7h-1.5v2.3h1.5V224.7z
				 M93.5,225.2c0.1,0.1,0.1,0.1,0.1,0.1c0,0.1,0,0.1-0.1,0.1s-0.1,0-0.1,0.1c-0.1,0.4-0.4,0.8-0.5,1.1c-0.1,0.1-0.1,0.1-0.1,0.1
				c-0.1,0-0.1,0-0.1-0.1c-0.1-0.1-0.2-0.1-0.4-0.1c-0.1,0-0.1,0-0.1,0s0,0,0-0.1c0.1-0.2,0.3-0.4,0.4-0.6c0.1-0.2,0.2-0.4,0.3-0.6
				c0-0.1,0-0.1,0.1-0.1L93.5,225.2z M94,231.5c0.3,0.6,0.5,1.3,0.6,1.9c0,0.1-0.1,0.1-0.1,0.1l-0.6,0.1c-0.1,0-0.1-0.1-0.1-0.1
				c-0.1-0.5-0.2-1.1-0.5-1.9c0-0.1,0-0.1,0.1-0.1l0.4-0.1C93.9,231.4,94,231.4,94,231.5z M97.4,223.9c0,0.1-0.1,0.1-0.1,0.1
				s-0.1,0.1-0.1,0.2v1.9h2.1c0.1,0,0.1,0.1,0.1,0.1v0.4c0,0.1,0,0.2-0.1,0.2h-2.1v2.1h1.8c0.1,0,0.2,0.1,0.2,0.1v4.8
				c0,0.1-0.1,0.1-0.2,0.1h-0.4c-0.1,0-0.1-0.1-0.1-0.1v-0.8h-2.6v0.8c0,0.1-0.1,0.1-0.1,0.1h-0.4c-0.1,0-0.1-0.1-0.1-0.1v-4.8
				c0-0.1,0.1-0.1,0.1-0.1h1.2v-5.1c0-0.1,0.1-0.1,0.2-0.1C97.1,223.8,97.4,223.8,97.4,223.9z M98.4,232.5v-2.8h-2.6v2.8H98.4z"/>
		</g>
	</g>
</g>
<g>
	<g>
		<path fill="#ADAEAE" d="M209.6,83.7c0-0.1,0-0.2,0-0.3c0.1-0.5,0.1-1.1,0-1.9l0.8,0.1c0,0.1,0,0.1-0.1,0.1
			c-0.1,0.1-0.1,0.1-0.1,0.1c0,0.8-0.1,1.3-0.1,1.8h3.2c0.1,0,0.1,0.1,0.1,0.1v0.4c0,0.1,0,0.1-0.1,0.1h-3c0.1,0.4,0.2,0.7,0.4,1
			c0.1,0.4,0.3,0.7,0.5,1c0.3,0.4,0.6,0.8,1.1,1.1c0.4,0.3,0.8,0.6,1.2,0.7l0.1,0.1c0,0.1,0,0.1-0.1,0.1c-0.1,0.1-0.2,0.2-0.3,0.4
			c0,0.1-0.1,0.1-0.1,0.1c0,0-0.1-0.1-0.4-0.2c-0.6-0.4-1.1-0.8-1.5-1.3c-0.3-0.4-0.6-0.8-0.7-1.2c-0.1-0.2-0.3-0.6-0.4-1.2
			c-0.1,0.1-0.1,0.4-0.1,0.5c-0.1,0.4-0.4,0.8-0.6,1.2c-0.2,0.4-0.5,0.7-0.8,1c-0.4,0.4-0.9,0.8-1.7,1.2c-0.1,0-0.1,0-0.1-0.1
			c-0.1-0.1-0.2-0.2-0.3-0.3c-0.1-0.1-0.1-0.1-0.1-0.1c0.1-0.1,0.4-0.1,0.6-0.3c0.3-0.1,0.6-0.4,0.8-0.5c0.3-0.2,0.5-0.4,0.6-0.7
			c0.2-0.3,0.4-0.6,0.6-1c0.1-0.4,0.3-0.7,0.4-1.1c0-0.1,0.1-0.3,0.1-0.4h-3.1c-0.1,0-0.1-0.1-0.1-0.1v-0.4c0-0.1,0-0.1,0.1-0.1
			C206.3,83.7,209.6,83.7,209.6,83.7z"/>
	</g>
	<g>
		<path fill="#ADAEAE" d="M196,107.9C196,108,196.1,108,196,107.9c0.1,0.1,0.1,0.1,0,0.1c-0.1,0-0.2,0.1-0.3,0.1
			c-0.1,0.3-0.4,0.6-0.5,0.8h3.8c0.1,0,0.1,0,0.1,0.1v0.3c0,0.1,0,0.1-0.1,0.1h-1.5c-0.1,0.3-0.2,0.6-0.4,0.8
			c-0.1,0.4-0.4,0.6-0.6,0.9c-0.1,0.1-0.1,0.1-0.1,0.1c0.1,0.1,0.1,0.1,0.2,0.1c0.8,0.4,1.5,0.8,2.1,1.1c0,0,0,0-0.1,0.1
			c-0.2,0.2-0.3,0.4-0.3,0.4c-0.8-0.5-1.6-0.9-2.5-1.3c-0.1,0.1-0.1,0.1-0.2,0.1c-0.3,0.2-0.6,0.4-1.1,0.6c-0.5,0.2-1.1,0.4-1.8,0.6
			c-0.1,0-0.1,0-0.1-0.1c-0.1-0.1-0.1-0.2-0.2-0.4c-0.1-0.1-0.1-0.1-0.1-0.1c0.1,0,0.4-0.1,0.6-0.1c0.3-0.1,0.6-0.1,1-0.3
			c0.5-0.1,0.8-0.4,1.2-0.6c0.1-0.1,0.1-0.1,0.2-0.1c-0.6-0.3-1.1-0.5-1.5-0.6c-0.1,0.1-0.2,0.3-0.4,0.4c-0.1,0-0.1,0-0.1-0.1
			c-0.1-0.1-0.2-0.1-0.4-0.1c0,0-0.1,0-0.1-0.1c0.5-0.6,0.8-1.1,1.1-1.5l0.1-0.1h-2.1c-0.1,0-0.1-0.1-0.1-0.1V109
			c0-0.1,0-0.1,0.1-0.1h2.5c0.2-0.3,0.4-0.6,0.5-0.8c0.1-0.2,0.2-0.4,0.3-0.6c0-0.1,0.1-0.1,0.1-0.1L196,107.9z M196,105.9
			c0,0.1,0,0.1-0.1,0.1c-0.1,0-0.1,0.1-0.1,0.1v0.4h2.7c0.1,0,0.1,0,0.1,0.1v1.5c0,0.1-0.1,0.1-0.1,0.1h-0.3c-0.1,0-0.1,0-0.1-0.1
			V107h-5.5v1.2c0,0.1-0.1,0.1-0.1,0.1h-0.3c-0.1,0-0.1,0-0.1-0.1v-1.5c0-0.1,0.1-0.1,0.1-0.1h3v-0.7c0-0.1,0.1-0.1,0.1-0.1
			C195.8,105.8,196,105.8,196,105.9z M194.9,109.5C194.8,109.6,194.8,109.6,194.9,109.5c-0.2,0.3-0.4,0.6-0.7,0.9
			c0.6,0.2,1.2,0.4,1.7,0.6l0,0c0.2-0.2,0.4-0.5,0.6-0.8c0.1-0.2,0.3-0.5,0.4-0.8C196.8,109.5,194.9,109.5,194.9,109.5z"/>
	</g>
	<g>
		<path fill="#ADAEAE" d="M182.8,130.5c0.1,0,0.1,0,0.1,0.1v2.3c0,0.1-0.1,0.1-0.1,0.1h-0.6v1.3h0.9c0.1,0,0.1,0.1,0.1,0.1v0.3
			c0,0.1,0,0.1-0.1,0.1h-0.9v1.5c0.4-0.1,0.7-0.2,1.1-0.3c0,0,0,0,0.1,0s0.1,0,0.1,0.1c0,0.3,0,0.4,0,0.5c-0.8,0.2-1.8,0.4-2.6,0.6
			c-0.1,0.1-0.1,0.2-0.2,0.2c-0.1,0-0.1-0.2-0.3-0.7c0.1,0,0.3,0,0.4-0.1v-2.7c0,0,0-0.1,0.1-0.1c0.4,0,0.6,0,0.6,0.1
			c0,0.1,0,0.1-0.1,0.1c-0.1,0-0.1,0.1-0.1,0.1v2.4c0.1,0,0.4-0.1,0.6-0.1V133h-1.1c-0.1,0-0.1,0-0.1-0.1v-2.3
			c0-0.1,0.1-0.1,0.1-0.1L182.8,130.5L182.8,130.5z M182.3,131H181v1.4h1.3V131z M184.9,130.3c0.1,0.1,0.1,0.1,0.1,0.1
			c0,0.1,0,0.1-0.1,0.1s-0.1,0-0.1,0.1c0,0.1-0.1,0.2-0.1,0.3h1.9c0.1,0,0.1,0,0.1,0.1c0.1,0.1,0.2,0.2,0.2,0.3
			c-0.1,0.5-0.3,0.8-0.4,1.1c-0.1,0.4-0.4,0.6-0.5,0.8c-0.1,0.1-0.1,0.1-0.1,0.2c0.1,0.1,0.4,0.3,0.6,0.4c0.3,0.1,0.6,0.3,1,0.4
			c0.1,0,0.1,0,0.1,0.1c0,0.1,0,0.1-0.1,0.1c-0.1,0.1-0.2,0.2-0.3,0.3c-0.1,0.1-0.1,0.1-0.1,0.1s-0.1,0-0.1-0.1
			c-0.2-0.1-0.4-0.1-0.6-0.3c-0.3-0.1-0.5-0.3-0.8-0.5c-0.1-0.1-0.1-0.1-0.1-0.1l-0.1,0.1c-0.3,0.2-0.6,0.4-0.9,0.6
			c-0.2,0.1-0.6,0.2-0.9,0.3c-0.1,0-0.1,0-0.1-0.1c-0.1-0.1-0.1-0.2-0.2-0.3l-0.1-0.1c0,0,0-0.1,0.1-0.1c0.2-0.1,0.4-0.1,0.7-0.2
			c0.4-0.1,0.8-0.3,1.1-0.5c0.1-0.1,0.1-0.1,0.1-0.1l-0.1-0.1c-0.2-0.2-0.4-0.5-0.4-0.8c-0.1-0.1-0.1-0.3-0.2-0.5
			c-0.1,0.1-0.1,0.4-0.2,0.5c-0.1,0.2-0.3,0.4-0.4,0.6c-0.1,0-0.1,0-0.1,0c-0.1-0.1-0.2-0.1-0.3-0.1c0,0-0.1,0-0.1-0.1v-0.1
			c0.2-0.2,0.4-0.6,0.6-0.9c0.1-0.2,0.2-0.4,0.3-0.6c0.1-0.2,0.1-0.6,0.2-0.9c0,0,0-0.1,0.1-0.1L184.9,130.3z M186.8,134.6
			c0.1,0,0.1,0,0.1,0.1v2.6c0,0.1-0.1,0.1-0.1,0.1h-0.3c-0.1,0-0.1,0-0.1-0.1v-0.4h-1.9v0.4c0,0.1-0.1,0.1-0.1,0.1h-0.3
			c-0.1,0-0.1,0-0.1-0.1v-2.6c0-0.1,0.1-0.1,0.1-0.1L186.8,134.6L186.8,134.6z M186.4,136.4V135h-1.9v1.4H186.4z M185,131.9
			c0.1,0.3,0.2,0.5,0.4,0.8c0.1,0.1,0.1,0.1,0.1,0.1c0.1-0.1,0.1-0.1,0.1-0.1c0.2-0.2,0.4-0.5,0.4-0.8c0.1-0.1,0.1-0.3,0.2-0.5h-1.5
			C184.9,131.5,184.9,131.7,185,131.9z"/>
	</g>
</g>
<g>
	<g>
		<g>
			<line fill="none" stroke="#9E9E9F" stroke-miterlimit="10" x1="212.2" y1="312.2" x2="212.8" y2="312.2"/>
			
				<line fill="none" stroke="#9E9E9F" stroke-miterlimit="10" stroke-dasharray="1.986,1.986" x1="213.9" y1="312.2" x2="373.8" y2="312.2"/>
			<line fill="none" stroke="#9E9E9F" stroke-miterlimit="10" x1="374.4" y1="312.2" x2="374.9" y2="312.2"/>
		</g>
	</g>
	<g>
		<g>
			<line fill="none" stroke="#9E9E9F" stroke-miterlimit="10" x1="212.2" y1="323.3" x2="212.8" y2="323.3"/>
			
				<line fill="none" stroke="#9E9E9F" stroke-miterlimit="10" stroke-dasharray="1.986,1.986" x1="213.9" y1="323.3" x2="373.8" y2="323.3"/>
			<line fill="none" stroke="#9E9E9F" stroke-miterlimit="10" x1="374.4" y1="323.3" x2="374.9" y2="323.3"/>
		</g>
	</g>
	<g>
		<g>
			<line fill="none" stroke="#9E9E9F" stroke-miterlimit="10" x1="212.2" y1="334.3" x2="212.8" y2="334.3"/>
			
				<line fill="none" stroke="#9E9E9F" stroke-miterlimit="10" stroke-dasharray="1.986,1.986" x1="213.9" y1="334.3" x2="373.8" y2="334.3"/>
			<line fill="none" stroke="#9E9E9F" stroke-miterlimit="10" x1="374.4" y1="334.3" x2="374.9" y2="334.3"/>
		</g>
	</g>
	<g>
		<g>
			<line fill="none" stroke="#9E9E9F" stroke-miterlimit="10" x1="212.2" y1="345.4" x2="212.8" y2="345.4"/>
			
				<line fill="none" stroke="#9E9E9F" stroke-miterlimit="10" stroke-dasharray="1.986,1.986" x1="213.9" y1="345.4" x2="373.8" y2="345.4"/>
			<line fill="none" stroke="#9E9E9F" stroke-miterlimit="10" x1="374.4" y1="345.4" x2="374.9" y2="345.4"/>
		</g>
	</g>
	<line fill="none" stroke="#9E9E9F" stroke-miterlimit="10" x1="212.2" y1="356.4" x2="374.9" y2="356.4"/>
	<g>
		<path fill="#231815" d="M208.1,358.8c-1,0-1.5-0.8-1.5-2.3c0-0.7,0.1-1.3,0.3-1.7c0.2-0.4,0.6-0.6,1.2-0.6c0.5,0,0.9,0.2,1.2,0.6
			c0.2,0.4,0.3,0.9,0.3,1.7C209.5,358.1,209,358.8,208.1,358.8z M208.8,355c-0.2-0.2-0.4-0.4-0.7-0.4s-0.6,0.1-0.7,0.4
			c-0.2,0.3-0.2,0.8-0.2,1.4c0,0.7,0.1,1.2,0.2,1.5c0.2,0.2,0.4,0.4,0.7,0.4s0.6-0.1,0.7-0.4c0.2-0.3,0.2-0.8,0.2-1.5
			C209.1,355.8,208.9,355.4,208.8,355z"/>
	</g>
	<g>
		<path fill="#231815" d="M220.7,363.9c-1,0-1.5-0.8-1.5-2.3c0-0.7,0.1-1.3,0.3-1.7c0.2-0.4,0.6-0.6,1.2-0.6c0.5,0,0.9,0.2,1.2,0.6
			c0.2,0.4,0.3,0.9,0.3,1.7C222.2,363.2,221.7,363.9,220.7,363.9z M221.4,360.2c-0.2-0.2-0.4-0.4-0.7-0.4c-0.3,0-0.6,0.1-0.7,0.4
			c-0.2,0.3-0.2,0.8-0.2,1.4c0,0.7,0.1,1.2,0.2,1.5c0.2,0.2,0.4,0.4,0.7,0.4c0.3,0,0.6-0.1,0.7-0.4c0.2-0.3,0.2-0.8,0.2-1.5
			C221.7,361,221.6,360.5,221.4,360.2z"/>
	</g>
	<g>
		<path fill="#231815" d="M250,361.3c-0.1,0.2-0.4,0.4-0.7,0.8c-0.6,0.6-0.9,1-1,1.4h2v0.4h-2.7c0.1-0.4,0.2-0.8,0.5-1.2
			c0.2-0.3,0.5-0.6,0.9-1c0.3-0.3,0.6-0.6,0.7-0.7c0.1-0.2,0.2-0.4,0.2-0.6c0-0.2-0.1-0.4-0.2-0.5s-0.4-0.2-0.7-0.2
			c-0.6,0-0.9,0.4-0.9,1.1l-0.4-0.2c0.1-0.4,0.2-0.7,0.4-1c0.2-0.2,0.6-0.4,0.9-0.4c0.4,0,0.7,0.1,1,0.3s0.4,0.5,0.4,0.9
			C250.4,360.8,250.3,361.1,250,361.3z"/>
	</g>
	<g>
		<path fill="#231815" d="M278.2,362.8v1.1h-0.5v-1.1h-1.8v-0.4l1.9-3h0.4v3h0.6v0.4H278.2z M277.7,360.3l-1.4,2.1h1.4V360.3z"/>
	</g>
	<g>
		<path fill="#231815" d="M306.8,363.4c-0.3,0.3-0.7,0.5-1.1,0.5c-1,0-1.5-0.7-1.5-2.2c0-1.6,0.5-2.4,1.5-2.4c0.6,0,1,0.3,1.3,0.9
			l-0.4,0.2c-0.1-0.2-0.2-0.4-0.3-0.4c-0.1-0.1-0.3-0.2-0.6-0.2c-0.6,0-1,0.6-1,1.7c0.3-0.3,0.7-0.4,1.1-0.4s0.8,0.1,1,0.4
			c0.2,0.2,0.4,0.6,0.4,1S307,363.2,306.8,363.4z M306.4,361.8c-0.2-0.2-0.4-0.3-0.7-0.3c-0.2,0-0.4,0.1-0.6,0.2
			c-0.2,0.1-0.4,0.2-0.5,0.4c0.1,1,0.4,1.5,1,1.5c0.3,0,0.6-0.1,0.7-0.3c0.2-0.2,0.2-0.4,0.2-0.7
			C306.7,362.1,306.6,361.9,306.4,361.8z"/>
	</g>
	<g>
		<path fill="#231815" d="M335,363.6c-0.2,0.2-0.6,0.4-1,0.4c-0.5,0-0.8-0.1-1-0.4s-0.4-0.6-0.4-0.9c0-0.6,0.2-1,0.8-1.2
			c-0.4-0.2-0.6-0.6-0.6-1c0-0.4,0.1-0.6,0.4-0.8c0.2-0.2,0.6-0.3,0.9-0.3s0.7,0.1,0.9,0.3c0.2,0.2,0.4,0.5,0.4,0.8
			c0,0.4-0.2,0.7-0.6,1c0.5,0.3,0.8,0.7,0.8,1.2C335.4,363,335.3,363.4,335,363.6z M334.7,361.9c-0.2-0.2-0.4-0.2-0.7-0.2
			c-0.3,0-0.6,0.1-0.7,0.2c-0.2,0.2-0.2,0.4-0.2,0.7c0,0.2,0.1,0.4,0.2,0.6c0.2,0.2,0.4,0.2,0.7,0.2c0.6,0,0.9-0.3,0.9-0.9
			C334.9,362.3,334.8,362.1,334.7,361.9z M334,359.8c-0.6,0-0.8,0.2-0.8,0.7c0,0.2,0.1,0.4,0.2,0.5c0.1,0.1,0.4,0.2,0.6,0.2
			c0.2,0,0.4-0.1,0.6-0.2s0.2-0.3,0.2-0.5C334.8,360,334.5,359.8,334,359.8z"/>
	</g>
	<g>
		<path fill="#231815" d="M360.1,363.9v-3.6h-1v-0.2h0.1c0.2,0,0.4-0.1,0.6-0.1c0.2-0.1,0.4-0.2,0.4-0.5h0.4v4.5L360.1,363.9
			L360.1,363.9z"/>
		<path fill="#231815" d="M364.3,363.9c-1,0-1.5-0.8-1.5-2.3c0-0.7,0.1-1.3,0.3-1.7c0.2-0.4,0.6-0.6,1.2-0.6c0.5,0,0.9,0.2,1.2,0.6
			c0.2,0.4,0.3,0.9,0.3,1.7C365.7,363.2,365.2,363.9,364.3,363.9z M365.1,360.2c-0.2-0.2-0.4-0.4-0.7-0.4c-0.3,0-0.6,0.1-0.7,0.4
			c-0.2,0.3-0.2,0.8-0.2,1.4c0,0.7,0.1,1.2,0.2,1.5c0.2,0.2,0.4,0.4,0.7,0.4c0.3,0,0.6-0.1,0.7-0.4c0.2-0.3,0.2-0.8,0.2-1.5
			C365.3,361,365.2,360.5,365.1,360.2z"/>
	</g>
	<g>
		<path fill="#231815" d="M199.8,347.7v-3.6h-1v-0.2h0.1c0.2,0,0.4-0.1,0.6-0.1c0.2-0.1,0.4-0.2,0.4-0.5h0.4v4.5L199.8,347.7
			L199.8,347.7z"/>
		<path fill="#231815" d="M204,347.8c-1,0-1.5-0.8-1.5-2.3c0-0.7,0.1-1.3,0.3-1.7c0.2-0.4,0.6-0.6,1.2-0.6c0.5,0,0.9,0.2,1.2,0.6
			c0.2,0.4,0.3,0.9,0.3,1.7C205.5,347,205,347.8,204,347.8z M204.8,344c-0.2-0.2-0.4-0.4-0.7-0.4s-0.6,0.1-0.7,0.4
			c-0.2,0.3-0.2,0.8-0.2,1.4c0,0.7,0.1,1.2,0.2,1.5c0.2,0.2,0.4,0.4,0.7,0.4s0.6-0.1,0.7-0.4c0.2-0.3,0.2-0.8,0.2-1.5
			C205,344.8,204.9,344.3,204.8,344z"/>
		<path fill="#231815" d="M208.1,347.8c-1,0-1.5-0.8-1.5-2.3c0-0.7,0.1-1.3,0.3-1.7c0.2-0.4,0.6-0.6,1.2-0.6c0.5,0,0.9,0.2,1.2,0.6
			c0.2,0.4,0.3,0.9,0.3,1.7C209.5,347,209,347.8,208.1,347.8z M208.8,344c-0.2-0.2-0.4-0.4-0.7-0.4s-0.6,0.1-0.7,0.4
			c-0.2,0.3-0.2,0.8-0.2,1.4c0,0.7,0.1,1.2,0.2,1.5c0.2,0.2,0.4,0.4,0.7,0.4s0.6-0.1,0.7-0.4c0.2-0.3,0.2-0.8,0.2-1.5
			C209.1,344.8,208.9,344.3,208.8,344z"/>
	</g>
	<g>
		<path fill="#231815" d="M201.1,334.1c-0.1,0.2-0.4,0.4-0.7,0.8c-0.6,0.6-0.9,1-1,1.4h2v0.4h-2.7c0.1-0.4,0.2-0.8,0.5-1.2
			c0.2-0.3,0.5-0.6,0.9-1c0.3-0.3,0.6-0.6,0.7-0.7s0.2-0.4,0.2-0.6c0-0.2-0.1-0.4-0.2-0.5s-0.4-0.2-0.7-0.2c-0.6,0-0.9,0.4-0.9,1.1
			l-0.4-0.2c0.1-0.4,0.2-0.7,0.4-1s0.6-0.4,0.9-0.4c0.4,0,0.7,0.1,1,0.3c0.2,0.2,0.4,0.5,0.4,0.9
			C201.4,333.6,201.2,333.9,201.1,334.1z"/>
		<path fill="#231815" d="M204,336.8c-1,0-1.5-0.8-1.5-2.3c0-0.7,0.1-1.3,0.3-1.7c0.2-0.4,0.6-0.6,1.2-0.6c0.5,0,0.9,0.2,1.2,0.6
			c0.2,0.4,0.3,0.9,0.3,1.7C205.5,336,205,336.8,204,336.8z M204.8,333c-0.2-0.2-0.4-0.4-0.7-0.4s-0.6,0.1-0.7,0.4
			c-0.2,0.3-0.2,0.8-0.2,1.4c0,0.7,0.1,1.2,0.2,1.5c0.2,0.2,0.4,0.4,0.7,0.4s0.6-0.1,0.7-0.4c0.2-0.3,0.2-0.8,0.2-1.5
			C205,333.8,204.9,333.3,204.8,333z"/>
		<path fill="#231815" d="M208.1,336.8c-1,0-1.5-0.8-1.5-2.3c0-0.7,0.1-1.3,0.3-1.7c0.2-0.4,0.6-0.6,1.2-0.6c0.5,0,0.9,0.2,1.2,0.6
			c0.2,0.4,0.3,0.9,0.3,1.7C209.5,336,209,336.8,208.1,336.8z M208.8,333c-0.2-0.2-0.4-0.4-0.7-0.4s-0.6,0.1-0.7,0.4
			c-0.2,0.3-0.2,0.8-0.2,1.4c0,0.7,0.1,1.2,0.2,1.5c0.2,0.2,0.4,0.4,0.7,0.4s0.6-0.1,0.7-0.4c0.2-0.3,0.2-0.8,0.2-1.5
			C209.1,333.8,208.9,333.3,208.8,333z"/>
	</g>
	<g>
		<path fill="#231815" d="M200.9,325.3c-0.2,0.2-0.6,0.4-1,0.4c-0.7,0-1.2-0.4-1.4-1l0.4-0.2c0.1,0.5,0.4,0.7,0.9,0.7
			c0.2,0,0.5-0.1,0.7-0.2s0.2-0.4,0.2-0.6c0-0.2-0.1-0.4-0.2-0.6c-0.2-0.2-0.4-0.2-0.6-0.2h-0.6v-0.4h0.4c0.2,0,0.4-0.1,0.6-0.2
			s0.2-0.4,0.2-0.6c0-0.5-0.2-0.7-0.7-0.7c-0.4,0-0.7,0.2-0.8,0.7l-0.4-0.1c0.1-0.3,0.2-0.6,0.4-0.7c0.2-0.2,0.5-0.3,0.9-0.3
			s0.7,0.1,0.9,0.3c0.2,0.2,0.3,0.5,0.3,0.9c0,0.4-0.2,0.8-0.6,1c0.2,0.1,0.4,0.2,0.6,0.4c0.1,0.2,0.2,0.4,0.2,0.7
			C201.4,324.8,201.2,325.1,200.9,325.3z"/>
		<path fill="#231815" d="M204,325.7c-1,0-1.5-0.8-1.5-2.3c0-0.7,0.1-1.3,0.3-1.7c0.2-0.4,0.6-0.6,1.2-0.6c0.5,0,0.9,0.2,1.2,0.6
			c0.2,0.4,0.3,0.9,0.3,1.7C205.5,325,205,325.7,204,325.7z M204.8,321.9c-0.2-0.2-0.4-0.4-0.7-0.4s-0.6,0.1-0.7,0.4
			c-0.2,0.3-0.2,0.8-0.2,1.4c0,0.7,0.1,1.2,0.2,1.5c0.2,0.2,0.4,0.4,0.7,0.4s0.6-0.1,0.7-0.4c0.2-0.3,0.2-0.8,0.2-1.5
			C205,322.7,204.9,322.2,204.8,321.9z"/>
		<path fill="#231815" d="M208.1,325.7c-1,0-1.5-0.8-1.5-2.3c0-0.7,0.1-1.3,0.3-1.7c0.2-0.4,0.6-0.6,1.2-0.6c0.5,0,0.9,0.2,1.2,0.6
			c0.2,0.4,0.3,0.9,0.3,1.7C209.5,325,209,325.7,208.1,325.7z M208.8,321.9c-0.2-0.2-0.4-0.4-0.7-0.4s-0.6,0.1-0.7,0.4
			c-0.2,0.3-0.2,0.8-0.2,1.4c0,0.7,0.1,1.2,0.2,1.5c0.2,0.2,0.4,0.4,0.7,0.4s0.6-0.1,0.7-0.4c0.2-0.3,0.2-0.8,0.2-1.5
			C209.1,322.7,208.9,322.2,208.8,321.9z"/>
	</g>
	<g>
		<path fill="#231815" d="M200.9,313.5v1.1h-0.5v-1.1h-1.8v-0.4l1.9-3h0.4v3h0.6v0.4H200.9z M200.4,311l-1.4,2.1h1.4V311z"/>
		<path fill="#231815" d="M204,314.7c-1,0-1.5-0.8-1.5-2.3c0-0.7,0.1-1.3,0.3-1.7c0.2-0.4,0.6-0.6,1.2-0.6c0.5,0,0.9,0.2,1.2,0.6
			c0.2,0.4,0.3,0.9,0.3,1.7C205.5,313.9,205,314.7,204,314.7z M204.8,310.9c-0.2-0.2-0.4-0.4-0.7-0.4s-0.6,0.1-0.7,0.4
			c-0.2,0.3-0.2,0.8-0.2,1.4c0,0.7,0.1,1.2,0.2,1.5c0.2,0.2,0.4,0.4,0.7,0.4s0.6-0.1,0.7-0.4c0.2-0.3,0.2-0.8,0.2-1.5
			C205,311.7,204.9,311.2,204.8,310.9z"/>
		<path fill="#231815" d="M208.1,314.7c-1,0-1.5-0.8-1.5-2.3c0-0.7,0.1-1.3,0.3-1.7c0.2-0.4,0.6-0.6,1.2-0.6c0.5,0,0.9,0.2,1.2,0.6
			c0.2,0.4,0.3,0.9,0.3,1.7C209.5,313.9,209,314.7,208.1,314.7z M208.8,310.9c-0.2-0.2-0.4-0.4-0.7-0.4s-0.6,0.1-0.7,0.4
			c-0.2,0.3-0.2,0.8-0.2,1.4c0,0.7,0.1,1.2,0.2,1.5c0.2,0.2,0.4,0.4,0.7,0.4s0.6-0.1,0.7-0.4c0.2-0.3,0.2-0.8,0.2-1.5
			C209.1,311.7,208.9,311.2,208.8,310.9z"/>
	</g>
	<g>
		<path fill="#231815" d="M198.8,300.9c0.2,0.1,0.4,0.2,0.5,0.4c0,0,0,0-0.1,0.1c-0.1,0.2-0.2,0.3-0.2,0.3c-0.2-0.2-0.4-0.3-0.7-0.5
			c-0.2-0.1-0.4-0.2-0.5-0.2c0,0,0.1-0.1,0.2-0.2l0.1-0.1C198.4,300.7,198.7,300.8,198.8,300.9z M199.2,302c0.1,0.2,0.1,0.4,0.1,0.4
			c0,0.1,0,0.1,0,0.1c-0.2,0.5-0.3,0.9-0.4,1.2c-0.1,0.2-0.2,0.4-0.3,0.6c0,0.1-0.1,0.1-0.1,0.2s0,0.1-0.1,0.1s-0.2-0.1-0.4-0.4
			l-0.1-0.1c0-0.1,0-0.1,0-0.1c0.1-0.1,0.2-0.2,0.3-0.4c0.1-0.2,0.2-0.5,0.4-0.8c0.1-0.2,0.2-0.5,0.3-0.7
			C199,302,199.1,302,199.2,302C199.1,302,199.1,302,199.2,302z M199.1,299.5c0.2,0.1,0.4,0.2,0.6,0.4c0,0,0,0.1-0.1,0.1
			c-0.1,0.2-0.2,0.3-0.2,0.3c-0.2-0.2-0.5-0.4-0.7-0.5c-0.2-0.1-0.4-0.2-0.5-0.2c0,0,0.1-0.1,0.2-0.2l0.1-0.1
			C198.7,299.2,198.9,299.4,199.1,299.5z M203.2,300.5c0.1,0,0.1,0.1,0.1,0.1c0,0.6,0,1,0,1.4h0.4c0.1,0,0.1,0.1,0.1,0.1v0.2
			c0,0.1,0,0.1-0.1,0.1h-0.4c0,0.2-0.1,0.5-0.1,0.6c0,0.2-0.1,0.3-0.1,0.4h0.3c0.1,0,0.1,0.1,0.1,0.1v0.2c0,0.1,0,0.1-0.1,0.1h-0.4
			c-0.1,0.2-0.1,0.4-0.1,0.5c-0.1,0.3-0.3,0.4-0.7,0.4s-0.6-0.1-0.6-0.1c0-0.1-0.1-0.2-0.2-0.4v-0.1c0.3,0.1,0.6,0.1,0.8,0.1
			c0.2,0,0.3-0.1,0.3-0.3c0-0.1,0-0.1,0.1-0.1h-2.5c-0.1,0.1-0.1,0.1-0.1,0.2c0,0.1-0.1,0.1-0.1,0.1c-0.1,0-0.2,0-0.3-0.1
			c-0.1,0-0.1,0-0.1-0.1c0.1-0.2,0.2-0.4,0.3-0.7c0.1-0.3,0.2-0.7,0.3-1H200c-0.1,0-0.1-0.1-0.1-0.1v-0.2c0-0.1,0-0.1,0.1-0.1h0.4
			l0,0c0.1-0.4,0.1-0.9,0.1-1.4c0-0.1,0.1-0.1,0.1-0.1L203.2,300.5L203.2,300.5z M200.9,299.1C200.9,299.2,200.9,299.2,200.9,299.1
			c0.1,0.1,0.1,0.1,0,0.1c-0.1,0-0.1,0-0.1,0.1s-0.1,0.1-0.1,0.2h2.8c0.1,0,0.1,0.1,0.1,0.1v0.2c0,0.1,0,0.1-0.1,0.1h-2.9
			c0,0.1,0,0.1-0.1,0.1c-0.1,0.2-0.1,0.4-0.2,0.5c-0.1,0.1-0.2,0.2-0.2,0.4c-0.1,0-0.1,0-0.1,0c-0.1-0.1-0.2-0.1-0.2-0.1
			c0,0-0.1,0-0.1-0.1v-0.1c0.1-0.2,0.2-0.4,0.4-0.6c0.1-0.1,0.1-0.3,0.2-0.4c0.1-0.2,0.1-0.4,0.1-0.6c0,0,0-0.1,0.1-0.1L200.9,299.1
			z M202.8,302.9c0-0.2,0.1-0.4,0.1-0.6h-2.2c0,0.1-0.1,0.1-0.1,0.2c-0.1,0.3-0.2,0.6-0.2,0.9h2.3
			C202.7,303.3,202.8,303.1,202.8,302.9z M202.8,301.9c0-0.3,0-0.7,0-1h-2c0,0.4-0.1,0.7-0.1,1H202.8z M202,302.7
			c0.2,0.1,0.3,0.2,0.4,0.3c0,0,0,0-0.1,0.1c-0.1,0.2-0.2,0.2-0.2,0.2c-0.2-0.1-0.4-0.3-0.6-0.4s-0.3-0.2-0.4-0.2
			c0,0,0.1-0.1,0.2-0.2l0.1-0.1C201.6,302.6,201.8,302.7,202,302.7z M202,301.3c0.2,0.1,0.3,0.2,0.4,0.3c0,0,0,0-0.1,0.1
			c-0.1,0.2-0.2,0.2-0.2,0.2c-0.2-0.1-0.4-0.2-0.6-0.4c-0.2-0.1-0.3-0.2-0.4-0.2c0,0,0.1-0.1,0.2-0.2l0.1-0.1
			C201.7,301.1,201.9,301.3,202,301.3z"/>
		<path fill="#231815" d="M205.4,300.3v-0.9c0-0.1,0-0.2,0-0.2c0-0.1,0-0.1,0-0.1c0,0,0.1-0.1,0.1-0.1l0.5,0.1
			c0.1,0,0.1,0.1,0.1,0.1c0,0.1,0,0.1-0.1,0.1c-0.1,0.1-0.1,0.1-0.1,0.3v0.9h0.7c0.1,0,0.1,0.1,0.1,0.1v0.2c0,0.1,0,0.1-0.1,0.1
			h-0.7v1.3c0.2-0.1,0.5-0.2,0.7-0.4c0,0,0,0,0.1,0s0.1,0,0.1,0.1c0,0.2,0,0.4,0,0.4c-0.2,0.2-0.5,0.3-0.7,0.4v1.7
			c0,0.3-0.2,0.4-0.7,0.4H205c-0.1,0-0.1-0.1-0.1-0.1c0-0.1-0.1-0.2-0.1-0.3c0-0.1,0-0.1,0.1-0.1c0.1,0,0.2,0.1,0.4,0.1
			c0.2,0,0.2-0.1,0.2-0.2v-1.3c-0.2,0.1-0.4,0.2-0.6,0.3c-0.1,0.1-0.1,0.2-0.2,0.2s-0.1-0.2-0.2-0.6c0.2-0.1,0.6-0.2,0.9-0.4v-1.5
			h-0.7c-0.1,0-0.1-0.1-0.1-0.1v-0.2c0-0.1,0-0.1,0.1-0.1H205.4z M207.8,300.3c0-0.3,0-0.7,0-1.2c0-0.1,0.1-0.1,0.1-0.1l0.5,0.1
			c0.1,0,0.1,0,0.1,0.1s-0.1,0.1-0.1,0.1s-0.1,0.1-0.1,0.1c0,0.4,0,0.7-0.1,0.9h2c0.1,0,0.1,0.1,0.1,0.1v0.2c0,0.1,0,0.1-0.1,0.1h-2
			c0,0.2-0.1,0.4-0.1,0.6c0.1,0.3,0.1,0.6,0.1,0.7c0.1,0.3,0.2,0.6,0.3,0.9c0.1,0.1,0.1,0.2,0.2,0.3c0.1-0.2,0.2-0.4,0.3-0.7
			c0.1-0.2,0.2-0.5,0.2-0.7c0-0.2,0.1-0.4,0.1-0.6c0,0,0-0.1,0.1-0.1c0.3,0.1,0.5,0.2,0.5,0.2c0,0.1,0,0.1-0.1,0.1
			c-0.1,0-0.1,0.1-0.1,0.1c-0.1,0.3-0.1,0.6-0.2,0.9c-0.1,0.4-0.2,0.7-0.4,1c0,0.1-0.1,0.1-0.1,0.1c0.1,0.1,0.2,0.2,0.4,0.4
			s0.4,0.3,0.7,0.4c0.1,0,0.1,0.1,0.1,0.1s0,0.1-0.1,0.1c-0.1,0.1-0.1,0.1-0.2,0.2c-0.1,0.1-0.1,0.1-0.1,0.1s-0.1,0-0.1-0.1
			c-0.1-0.1-0.3-0.2-0.5-0.2c-0.2-0.1-0.4-0.3-0.6-0.5c-0.1,0.1-0.1,0.1-0.2,0.2c-0.2,0.2-0.5,0.4-0.9,0.6c-0.1,0-0.1,0-0.1-0.1
			c-0.1-0.1-0.1-0.2-0.2-0.2s-0.1-0.1-0.1-0.1c0.2-0.1,0.5-0.2,0.8-0.4c0.1-0.1,0.2-0.2,0.3-0.3c-0.1-0.1-0.1-0.2-0.2-0.3
			c-0.2-0.2-0.2-0.5-0.3-0.8c0-0.1-0.1-0.1-0.1-0.2c-0.1,0.4-0.2,0.6-0.3,0.9c-0.2,0.4-0.5,0.8-0.9,1.1c-0.1,0-0.1,0-0.1,0
			c-0.1-0.1-0.2-0.1-0.2-0.1s-0.1,0-0.1-0.1c0,0,0-0.1,0.1-0.1c0.4-0.3,0.7-0.7,0.9-1.2c0.2-0.5,0.4-1,0.4-1.5
			c0-0.1,0.1-0.3,0.1-0.5H207c-0.1,0-0.1-0.1-0.1-0.1v-0.2c0-0.1,0-0.1,0.1-0.1L207.8,300.3L207.8,300.3z M209.6,299.5
			c0.2,0.1,0.3,0.2,0.4,0.4c0,0,0,0.1-0.1,0.1c-0.1,0.2-0.2,0.2-0.2,0.2c-0.2-0.2-0.4-0.3-0.6-0.5c-0.2-0.1-0.3-0.2-0.4-0.2
			c0,0,0.1-0.1,0.2-0.2l0.1-0.1C209.3,299.2,209.5,299.4,209.6,299.5z"/>
	</g>
	<g>
		<path fill="#231815" d="M377.9,359.3C378,359.4,378,359.4,377.9,359.3c0.1,0.1,0.1,0.1,0,0.2c-0.1,0-0.1,0.1-0.1,0.1
			c-0.2,0.4-0.3,0.8-0.5,1c-0.1,0.2-0.3,0.5-0.5,0.7c-0.2,0.2-0.4,0.4-0.6,0.6c-0.1,0-0.1,0-0.1,0c-0.1-0.1-0.2-0.1-0.2-0.1
			c-0.1,0-0.1,0-0.1-0.1c0,0,0-0.1,0.1-0.1c0.3-0.2,0.6-0.5,0.8-0.9c0.1-0.2,0.2-0.4,0.4-0.6c0.1-0.2,0.2-0.6,0.3-0.9
			c0-0.1,0.1-0.1,0.1-0.1L377.9,359.3z M378.5,360.6c0.3,0.2,0.5,0.2,0.5,0.3s0,0.1-0.1,0.1c-0.1,0-0.2,0.1-0.2,0.1
			c-0.3,0.6-0.7,1.4-1.4,2.5c0.7-0.1,1.7-0.2,2.8-0.3c-0.2-0.3-0.4-0.6-0.6-0.9c0-0.1,0.1-0.1,0.3-0.2h0.1c0.4,0.6,0.9,1.2,1.2,1.9
			c0,0.1,0,0.1-0.1,0.1c-0.2,0.1-0.3,0.2-0.4,0.2c-0.1-0.2-0.2-0.5-0.4-0.7c-1.9,0.3-3.1,0.5-3.6,0.6c-0.1,0-0.1,0.1-0.1,0.1
			c0,0.1-0.1,0.1-0.1,0.1s-0.1-0.2-0.2-0.7c0.2,0,0.4,0,0.7-0.1c0.5-0.9,0.8-1.5,0.9-1.8c0.2-0.4,0.3-0.8,0.4-1.2
			C378.3,360.7,378.4,360.7,378.5,360.6C378.4,360.6,378.5,360.6,378.5,360.6z M379.9,359L379.9,359c0.2,0.7,0.4,1.2,0.6,1.5
			c0.2,0.4,0.5,0.7,0.9,0.9c0.1,0,0.1,0.1,0.1,0.1c0,0,0,0.1-0.1,0.1c-0.1,0.1-0.2,0.1-0.2,0.2c-0.1,0.1-0.1,0.1-0.1,0.1
			c-0.4-0.3-0.8-0.6-1-1c-0.1-0.3-0.3-0.8-0.5-1.5h-1c-0.1,0-0.1-0.1-0.1-0.1V359c0-0.1,0-0.1,0.1-0.1h1.3V359z"/>
		<path fill="#231815" d="M387.2,359c0.1,0,0.1,0,0.1,0.1v2.8c0,0.1-0.1,0.1-0.1,0.1h-0.2c-0.1,0-0.1-0.1-0.1-0.1v-0.1h-1.5v0.9h2
			c0.1,0,0.1,0.1,0.1,0.1v0.2c0,0.1,0,0.1-0.1,0.1h-2v0.9h2.5c0.1,0,0.1,0.1,0.1,0.1v0.2c0,0.1,0,0.1-0.1,0.1h-5.4
			c-0.1,0-0.1-0.1-0.1-0.1V364c0-0.1,0-0.1,0.1-0.1h2.5V363H383c-0.1,0-0.1-0.1-0.1-0.1v-0.2c0-0.1,0-0.1,0.1-0.1h1.8v-0.9h-1.5v0.1
			c0,0.1-0.1,0.1-0.1,0.1H383c-0.1,0-0.1,0-0.1-0.1V359c0-0.1,0.1-0.1,0.1-0.1L387.2,359L387.2,359z M384.9,360.2v-0.8h-1.5v0.8
			H384.9z M384.9,361.4v-0.8h-1.5v0.8H384.9z M385.3,360.2h1.5v-0.8h-1.5V360.2z M385.3,361.4h1.5v-0.8h-1.5V361.4z"/>
	</g>
	<path fill="none" stroke="#6A8732" stroke-width="1.6827" stroke-miterlimit="10" d="M220.8,354.2c0,0,2.1-0.9,4.5,0
		c2.4,0.9,6.6,1.3,7.6-0.4c1-1.7,0.7-4.3,3.1-4.6c2.4-0.3,4.1-0.9,5.5-1.5c1.4-0.6,3.8-4.1,5.5-5.6s2.8-1.7,4.9-3.1
		c2.1-1.4,1.7-4.3,3.8-5.8c2.1-1.5,2.4-1.5,4.1-1.8c1.7-0.3,0.4-2.1,2.4-2.3c2.1-0.3,2.4-0.9,3.4,0c1,0.9,2.4,1.8,3.4,1.2
		c1-0.6,0-0.9,2.8-1.7c2.8-0.7,1.8-1.5,3.3-1.5c1.4,0,1.9-2.1,3.3-0.3c1.4,1.8,2.8,3.3,3.4,2.1c0.7-1.2,2.1-5.3,3.8-5.9
		s0.5-0.6,4.7-1.2c4.2-0.6,3.9-0.6,4.9-2.3c1-1.8,0.4-2.3,2.8-3s2.8-1.2,4.1-2.1c1.4-0.9,1.7-3.5,3.8-1.8c2.1,1.8,3.8,3,6.6,4.4
		c2.8,1.5,3.4,3.3,5.8,4.4c2.4,1.2,2.4,1.5,4.5,1.2c2.1-0.3,3.4-2.6,5.2-0.3c1.7,2.3,1.7,4.7,4.1,5c2.4,0.3,1.7-0.5,3.4,0.3
		c3.1,1.4,2.4,1.2,3.1,3.9c0.7,2.6,2,6.7,3.4,4.7c0.5-0.7,0-2.6,2.1-1.2c2.1,1.5,2.1,2.1,3.4,4c1.4,1.9,0.7,4.6,3.1,4.9
		c2.4,0.3,2.1,0.6,2.8,2.6c0.7,2.1,0.4,2.2,2.8,2.3c1.5,0.1,1.7,0.1,3.4,2.1c1.7,2.1,2.2,3,2.2,3"/>
	<path fill="#E50012" d="M222.8,354.2c0,1.2-1,2.3-2.3,2.3c-1.2,0-2.3-1-2.3-2.3s1-2.3,2.3-2.3C221.8,352,222.8,353,222.8,354.2z"/>
	<path fill="#E50012" d="M364.7,354.2c0,1.2-1,2.3-2.3,2.3s-2.3-1-2.3-2.3s1-2.3,2.3-2.3C363.7,352,364.7,353,364.7,354.2z"/>
</g>
<g>
	<rect x="280.5" y="202.7" fill="#DF6E49" width="7.3" height="15"/>
	<rect x="280.5" y="225.7" fill="#E5CC53" width="7.3" height="15"/>
	<rect x="280.5" y="248.6" fill="#69B46C" width="7.3" height="15"/>
	<g>
		<path fill="#231815" d="M293.5,206.9c0,0.1-0.1,0.1-0.1,0.1c-0.1,0-0.1,0.1-0.1,0.2v2.4h2.8c0.1,0,0.1,0.1,0.1,0.1v0.3
			c0,0.1-0.1,0.1-0.1,0.1h-2.8v3h3.4c0.1,0,0.1,0.1,0.1,0.1v0.3c0,0.1-0.1,0.1-0.1,0.1H290c-0.1,0-0.1-0.1-0.1-0.1v-0.3
			c0-0.1,0.1-0.1,0.1-0.1h2.8v-6.2c0-0.1,0.1-0.1,0.1-0.1C293.3,206.9,293.5,206.9,293.5,206.9z"/>
		<path fill="#231815" d="M298.9,209v-1.6c0-0.1,0.1-0.1,0.1-0.1c0.4,0,0.6,0.1,0.6,0.1s-0.1,0.1-0.1,0.1c-0.1,0-0.1,0.1-0.1,0.2
			v1.3h0.9c0.1,0,0.1,0.1,0.1,0.1v0.2c0,0.1-0.1,0.1-0.1,0.1h-0.9v2.5c0.3-0.1,0.6-0.2,0.9-0.3c0,0,0,0,0.1,0c0.1,0,0.1,0,0.1,0.1
			c0,0.2,0,0.4-0.1,0.4c-0.7,0.3-1.4,0.6-2.2,0.8c-0.1,0.1-0.1,0.2-0.2,0.2c-0.1,0-0.1-0.2-0.3-0.6c0.3-0.1,0.7-0.2,1.2-0.3v-2.7
			H298c-0.1,0-0.1-0.1-0.1-0.1v-0.2c0-0.1,0.1-0.1,0.1-0.1L298.9,209L298.9,209z M304.3,209.9c0.1,0,0.1,0,0.1,0.1
			c0.1,0.1,0.1,0.2,0.1,0.2c-0.1,0.5-0.2,0.9-0.4,1.2c-0.1,0.4-0.3,0.6-0.4,0.9c-0.1,0.1-0.2,0.2-0.2,0.4c0.1,0.1,0.1,0.1,0.2,0.1
			c0.2,0.2,0.5,0.4,0.8,0.4c0.2,0.1,0.4,0.1,0.7,0.2c0,0-0.1,0.1-0.1,0.1c-0.1,0.1-0.2,0.2-0.3,0.4c0,0.1-0.1,0.1-0.1,0.1
			c-0.6-0.2-1-0.4-1.3-0.6c-0.1-0.1-0.2-0.1-0.2-0.2c-0.2,0.2-0.4,0.4-0.7,0.5c-0.2,0.1-0.5,0.2-0.8,0.3c-0.1,0-0.1,0-0.1-0.1
			c-0.1-0.1-0.1-0.2-0.2-0.2c-0.1-0.1-0.1-0.1-0.1-0.1c0-0.1,0-0.1,0.1-0.1c0.2-0.1,0.4-0.1,0.6-0.2c0.4-0.1,0.6-0.3,0.9-0.6
			c-0.1-0.1-0.1-0.1-0.2-0.2c-0.2-0.2-0.4-0.6-0.5-0.9c-0.1-0.3-0.2-0.7-0.2-1.1h-0.4c0,0.7-0.1,1.2-0.2,1.6
			c-0.1,0.4-0.2,0.8-0.4,1.2c-0.1,0.2-0.3,0.5-0.5,0.7c-0.1,0-0.1,0-0.1,0c-0.1-0.1-0.2-0.1-0.3-0.2c-0.1-0.1-0.1-0.1-0.1-0.1
			c0.2-0.2,0.4-0.5,0.6-0.9c0.2-0.4,0.3-0.7,0.4-1.2c0.1-0.4,0.1-0.9,0.1-1.5V208c0-0.1,0.1-0.1,0.1-0.1h1.5v-1
			c0-0.1,0.1-0.1,0.1-0.1c0.4,0,0.6,0.1,0.6,0.1s-0.1,0.1-0.1,0.1c-0.1,0-0.1,0.1-0.1,0.2v0.7h1.7c0.1,0,0.1,0,0.1,0.1
			c0.1,0.1,0.2,0.2,0.2,0.2l-0.7,1.4c0,0.1-0.1,0.1-0.1,0.1c-0.3-0.1-0.4-0.1-0.4-0.2l0.6-1h-1.3v1.6
			C303.1,209.9,304.3,209.9,304.3,209.9z M301.5,209.9h1.1v-1.6h-1.1V209.9z M302.5,211.3c0.1,0.4,0.2,0.6,0.4,0.9
			c0.1,0.1,0.1,0.1,0.1,0.2c0.1-0.1,0.2-0.2,0.2-0.4c0.2-0.2,0.3-0.6,0.4-0.9c0.1-0.2,0.1-0.4,0.2-0.7h-1.6
			C302.4,210.8,302.4,211.1,302.5,211.3z"/>
		<path fill="#231815" d="M325,213.2v-4.1h-1.1v-0.3h0.1c0.2,0,0.4-0.1,0.7-0.2s0.4-0.3,0.5-0.6h0.4v5.1H325z"/>
		<path fill="#231815" d="M327.8,213.2v-0.9h0.9v0.9H327.8z"/>
		<path fill="#231815" d="M331.4,213.3c-1.1,0-1.7-0.9-1.7-2.6c0-0.9,0.1-1.5,0.4-1.9s0.7-0.7,1.3-0.7c0.6,0,1,0.2,1.3,0.7
			c0.2,0.4,0.4,1,0.4,1.9C333,212.3,332.5,213.3,331.4,213.3z M332.2,209c-0.2-0.3-0.4-0.4-0.9-0.4c-0.4,0-0.7,0.1-0.9,0.4
			c-0.2,0.3-0.3,0.9-0.3,1.7s0.1,1.3,0.3,1.7c0.2,0.3,0.4,0.5,0.9,0.5c0.4,0,0.6-0.2,0.9-0.5c0.2-0.4,0.3-0.9,0.3-1.7
			C332.5,209.8,332.4,209.3,332.2,209z"/>
		<path fill="#231815" d="M335.6,213.2v-4.1h-1.1v-0.3h0.1c0.2,0,0.4-0.1,0.7-0.2c0.2-0.1,0.4-0.3,0.5-0.6h0.4v5.1H335.6z"/>
		<path fill="#231815" d="M341.1,207.5c0.1,0.1,0.1,0.1,0.1,0.1c0,0.1-0.1,0.1-0.1,0.1c-0.1,0-0.2,0.1-0.2,0.1
			c-0.2,0.6-0.4,1-0.6,1.2c-0.2,0.3-0.4,0.6-0.6,0.9s-0.4,0.5-0.7,0.7c-0.1,0-0.1,0-0.2-0.1c-0.1-0.1-0.2-0.1-0.3-0.1
			c-0.1,0-0.1-0.1-0.1-0.1c0-0.1,0-0.1,0.1-0.1c0.4-0.3,0.7-0.6,1-1c0.2-0.2,0.3-0.5,0.4-0.8c0.1-0.3,0.3-0.7,0.4-1.1
			c0.1-0.1,0.1-0.1,0.1-0.1L341.1,207.5z M341.8,209.1c0.4,0.2,0.6,0.3,0.6,0.4s-0.1,0.1-0.1,0.1c-0.1,0-0.2,0.1-0.2,0.1
			c-0.4,0.7-0.9,1.8-1.7,3.1c0.9-0.1,2.1-0.2,3.4-0.4c-0.2-0.4-0.5-0.8-0.7-1.1c0-0.1,0.1-0.1,0.4-0.2c0,0,0.1,0,0.1,0.1
			c0.6,0.7,1,1.5,1.5,2.3c0,0.1,0,0.1-0.1,0.1c-0.2,0.1-0.4,0.2-0.5,0.2c-0.2-0.3-0.3-0.6-0.5-0.9c-2.3,0.4-3.8,0.6-4.6,0.7
			c-0.1,0-0.1,0.1-0.2,0.1c-0.1,0.1-0.1,0.1-0.1,0.1c-0.1,0-0.2-0.3-0.2-0.9c0.2,0,0.6,0,0.9-0.1c0.6-1.1,1-1.8,1.2-2.2
			c0.2-0.5,0.4-1,0.6-1.4c0-0.1,0.1-0.1,0.1-0.1C341.8,209.1,341.8,209.1,341.8,209.1z M343.6,207.1c0.1,0,0.1,0.1,0.1,0.1
			c0.2,0.9,0.4,1.5,0.6,1.8c0.2,0.6,0.6,0.9,1.2,1.1c0.1,0,0.1,0.1,0.1,0.1s0,0.1-0.1,0.1c-0.1,0.1-0.2,0.2-0.2,0.2
			c-0.1,0.1-0.1,0.1-0.1,0.1c-0.6-0.4-1-0.8-1.2-1.3c-0.2-0.4-0.4-1-0.6-1.8H342c-0.1,0-0.1-0.1-0.1-0.1v-0.2c0-0.1,0.1-0.1,0.1-0.1
			L343.6,207.1L343.6,207.1z"/>
		<path fill="#231815" d="M352.6,207.1c0.1,0,0.1,0.1,0.1,0.1v3.6c0,0.1-0.1,0.1-0.1,0.1h-0.3c-0.1,0-0.1-0.1-0.1-0.1v-0.1h-1.9v1
			h2.4c0.1,0,0.1,0.1,0.1,0.1v0.2c0,0.1-0.1,0.1-0.1,0.1h-2.4v1h3.1c0.1,0,0.1,0.1,0.1,0.1v0.2c0,0.1-0.1,0.1-0.1,0.1h-6.8
			c-0.1,0-0.1-0.1-0.1-0.1v-0.2c0-0.1,0.1-0.1,0.1-0.1h3.1v-1h-2.3c-0.1,0-0.1-0.1-0.1-0.1v-0.2c0-0.1,0.1-0.1,0.1-0.1h2.3v-1h-1.8
			v0.2c0,0.1-0.1,0.1-0.1,0.1h-0.3c-0.1,0-0.1-0.1-0.1-0.1v-3.6c0-0.1,0.1-0.1,0.1-0.1C347.4,207.1,352.6,207.1,352.6,207.1z
			 M349.8,208.6v-1h-1.8v1H349.8z M349.8,210.1v-1h-1.8v1H349.8z M350.3,208.6h1.9v-1h-1.9V208.6z M350.3,210.1h1.9v-1h-1.9V210.1z"
			/>
		<path fill="#231815" d="M373.7,213.3c-0.3,0-0.6-0.1-0.8-0.3s-0.3-0.4-0.4-0.6l0.5-0.2c0.2,0.4,0.4,0.6,0.8,0.6
			c0.7,0,1-0.6,1.1-1.8c-0.3,0.3-0.7,0.5-1.1,0.5c-0.4,0-0.8-0.1-1-0.4c-0.2-0.2-0.4-0.7-0.4-1.2s0.1-0.9,0.4-1.2
			c0.2-0.4,0.6-0.6,1.1-0.6c0.6,0,1,0.3,1.3,0.8c0.2,0.4,0.3,1,0.3,1.8C375.4,212.4,374.8,213.3,373.7,213.3z M373.8,208.5
			c-0.3,0-0.5,0.1-0.7,0.4c-0.2,0.2-0.2,0.6-0.2,0.9c0,0.7,0.3,1,1,1c0.4,0,0.7-0.2,1-0.6C374.8,209.1,374.4,208.5,373.8,208.5z"/>
		<path fill="#231815" d="M376.6,213.2v-0.9h0.9v0.9H376.6z"/>
		<path fill="#231815" d="M381.6,212.7c-0.3,0.4-0.7,0.6-1.2,0.6c-1.2,0-1.7-0.9-1.7-2.5c0-1.8,0.6-2.7,1.7-2.7c0.7,0,1.2,0.4,1.5,1
			l-0.5,0.2c-0.1-0.2-0.2-0.4-0.3-0.5c-0.2-0.1-0.4-0.2-0.6-0.2c-0.7,0-1.1,0.6-1.2,1.9c0.4-0.3,0.7-0.5,1.2-0.5
			c0.5,0,0.9,0.2,1.2,0.4c0.2,0.3,0.4,0.7,0.4,1.1C382,212,381.8,212.3,381.6,212.7z M381.2,210.7c-0.2-0.2-0.5-0.3-0.8-0.3
			c-0.2,0-0.4,0.1-0.7,0.2c-0.2,0.1-0.4,0.2-0.6,0.4c0.1,1.2,0.4,1.7,1.2,1.7c0.4,0,0.6-0.1,0.9-0.4c0.2-0.2,0.3-0.5,0.3-0.8
			C381.5,211.2,381.3,210.9,381.2,210.7z"/>
		<path fill="#231815" d="M385.1,210.4c-0.2,0.2-0.5,0.4-0.9,0.4c-0.4,0-0.7-0.1-0.9-0.4s-0.3-0.6-0.3-1s0.1-0.7,0.3-1
			c0.2-0.2,0.5-0.4,0.9-0.4s0.7,0.1,0.9,0.4c0.2,0.2,0.3,0.6,0.3,1C385.4,209.8,385.3,210.2,385.1,210.4z M383.6,213.2l-0.4-0.4
			l4.9-4.9l0.4,0.4L383.6,213.2z M384.2,208.5c-0.2,0-0.3,0.1-0.4,0.2c-0.1,0.2-0.2,0.4-0.2,0.6c0,0.2,0.1,0.4,0.2,0.6
			c0.1,0.1,0.2,0.2,0.4,0.2c0.4,0,0.6-0.2,0.6-0.8C384.8,208.8,384.7,208.5,384.2,208.5z M388.5,212.8c-0.2,0.2-0.5,0.4-0.9,0.4
			c-0.4,0-0.7-0.1-0.9-0.4c-0.2-0.2-0.3-0.6-0.3-1s0.1-0.7,0.3-1c0.2-0.2,0.5-0.4,0.9-0.4c0.4,0,0.7,0.1,0.9,0.4
			c0.2,0.2,0.3,0.6,0.3,1C388.8,212.3,388.7,212.6,388.5,212.8z M387.6,211c-0.2,0-0.4,0.1-0.4,0.2c-0.1,0.2-0.2,0.4-0.2,0.6
			s0.1,0.4,0.2,0.6c0.1,0.1,0.2,0.2,0.4,0.2c0.4,0,0.6-0.2,0.6-0.8C388.3,211.3,388,211,387.6,211z"/>
		<path fill="#231815" d="M296.4,230.2c0.1,0,0.1,0.1,0.1,0.1v0.3c0,0.1-0.1,0.1-0.1,0.1h-2.7v3.1h3.1c0.1,0,0.1,0.1,0.1,0.1v0.3
			c0,0.1-0.1,0.1-0.1,0.1h-3.1v2.5c0,0.1-0.1,0.1-0.2,0.1h-0.3c-0.1,0-0.1-0.1-0.1-0.1v-2.5H290c-0.1,0-0.1-0.1-0.1-0.1v-0.3
			c0-0.1,0.1-0.1,0.1-0.1h3.1v-3.1h-2.7c-0.1,0-0.1-0.1-0.1-0.1v-0.3c0-0.1,0.1-0.1,0.1-0.1H296.4z M291.8,232.3
			c0.1,0.3,0.2,0.6,0.3,0.9c0,0.1-0.2,0.1-0.6,0.2c-0.1-0.2-0.1-0.4-0.2-0.7c-0.1-0.4-0.3-0.7-0.5-1c0-0.1,0.1-0.1,0.4-0.2
			C291.5,231.6,291.7,232,291.8,232.3z M296,231.5c0.1,0.1,0.1,0.1,0.1,0.1c0,0.1-0.1,0.1-0.1,0.1c-0.1,0-0.2,0.1-0.2,0.1
			c-0.2,0.4-0.4,0.9-0.7,1.5c-0.1,0-0.1,0-0.1-0.1l-0.4-0.2c0.2-0.3,0.4-0.6,0.5-0.9c0.1-0.3,0.2-0.6,0.3-0.9c0-0.1,0.1-0.1,0.1-0.1
			L296,231.5z"/>
		<path fill="#231815" d="M298.9,232v-1.7c0-0.1,0.1-0.1,0.1-0.1c0.4,0,0.6,0.1,0.6,0.1c0,0.1-0.1,0.1-0.1,0.1
			c-0.1,0-0.1,0.1-0.1,0.2v1.5h0.9c0.1,0,0.1,0.1,0.1,0.1v0.2c0,0.1-0.1,0.1-0.1,0.1h-0.9v2.6c0.4-0.1,0.7-0.2,1-0.4c0,0,0,0,0.1,0
			c0.1,0,0.1,0.1,0.1,0.1c0,0.3,0,0.4-0.1,0.4c-0.7,0.2-1.4,0.5-2.2,0.7c-0.1,0.1-0.2,0.2-0.2,0.2c-0.1,0-0.2-0.2-0.3-0.7
			c0.3-0.1,0.6-0.1,1-0.2v-2.8H298c-0.1,0-0.1-0.1-0.1-0.1v-0.2c0-0.1,0.1-0.1,0.1-0.1L298.9,232L298.9,232z M304.6,231.6l0.1,0.1
			c0,0.1,0,0.1,0,0.2c-0.1,0.9-0.1,1.6-0.1,2c-0.1,0.4-0.1,0.7-0.2,0.7c-0.1,0.1-0.2,0.1-0.3,0.1h-0.3c-0.2,0-0.2-0.1-0.2-0.1
			c-0.1-0.1-0.1-0.2-0.1-0.4c0-0.1,0-0.1,0.1-0.1c0.1,0,0.2,0.1,0.4,0.1h0.2c0.1,0,0.1-0.1,0.1-0.4c0.1-0.4,0.1-0.9,0.1-1.5
			l-1.1,0.4v2.5c0,0.1-0.1,0.1-0.1,0.1h-0.3c-0.1,0-0.1-0.1-0.1-0.1v-2.3l-0.9,0.2v2.8c0,0.2,0.1,0.3,0.4,0.3h1.5
			c0.3,0,0.5-0.1,0.6-0.1c0.1-0.1,0.2-0.4,0.3-0.9c0.1,0.1,0.2,0.2,0.3,0.3c0.1,0.1,0.1,0.1,0.1,0.1c-0.2,0.6-0.3,0.9-0.4,0.9
			c-0.1,0.1-0.2,0.2-0.5,0.2h-2c-0.6,0-0.9-0.2-0.9-0.6v-3.1l-0.6,0.2c-0.1,0-0.1,0-0.1-0.1l-0.1-0.3c0-0.1,0-0.1,0.1-0.1l0.8-0.2
			v-2c0-0.1,0-0.1,0.1-0.1l0.5,0.1c0.1,0,0.1,0,0.1,0.1c0,0.1,0,0.1-0.1,0.1c-0.1,0-0.1,0.1-0.1,0.1v1.5l0.9-0.2v-2.1
			c0-0.1,0.1-0.1,0.1-0.1c0.4,0,0.6,0.1,0.6,0.1s-0.1,0.1-0.1,0.1c-0.1,0-0.1,0.1-0.1,0.2v1.6l1.4-0.5
			C304.5,231.5,304.6,231.5,304.6,231.6z"/>
		<path fill="#231815" d="M326.4,235.8c-0.3,0.2-0.7,0.4-1.2,0.4c-0.6,0-0.9-0.1-1.2-0.4c-0.3-0.2-0.4-0.6-0.4-1
			c0-0.6,0.3-1.1,0.9-1.4c-0.5-0.2-0.7-0.6-0.7-1.1c0-0.4,0.1-0.7,0.4-0.9c0.2-0.2,0.6-0.3,1-0.3c0.4,0,0.8,0.1,1,0.3
			c0.2,0.2,0.4,0.6,0.4,0.9c0,0.5-0.2,0.9-0.7,1.1c0.6,0.3,0.9,0.8,0.9,1.4C326.9,235.2,326.7,235.6,326.4,235.8z M326,233.9
			c-0.2-0.2-0.5-0.3-0.8-0.3c-0.3,0-0.6,0.1-0.8,0.3c-0.2,0.2-0.3,0.5-0.3,0.8c0,0.3,0.1,0.5,0.2,0.7c0.2,0.2,0.5,0.3,0.9,0.3
			c0.7,0,1.1-0.3,1.1-1C326.3,234.4,326.2,234.1,326,233.9z M325.2,231.5c-0.6,0-0.9,0.2-0.9,0.8c0,0.2,0.1,0.4,0.2,0.6
			c0.2,0.2,0.4,0.2,0.7,0.2c0.2,0,0.5-0.1,0.7-0.2c0.2-0.1,0.2-0.4,0.2-0.6C326.1,231.8,325.8,231.5,325.2,231.5z"/>
		<path fill="#231815" d="M328,236.2v-0.9h0.9v0.9H328z"/>
		<path fill="#231815" d="M332.7,235.7c-0.3,0.3-0.7,0.5-1.2,0.5c-0.7,0-1.2-0.4-1.5-1l0.5-0.2c0.2,0.5,0.5,0.8,1,0.8
			c0.3,0,0.6-0.1,0.7-0.3c0.2-0.2,0.4-0.6,0.4-1c0-0.8-0.3-1.2-0.9-1.2c-0.4,0-0.7,0.2-0.9,0.6h-0.5v-2.7h2.7v0.5h-2.2v1.4
			c0.2-0.2,0.5-0.4,0.9-0.4c0.4,0,0.8,0.2,1,0.5c0.2,0.3,0.4,0.7,0.4,1.3C333.2,234.9,333.1,235.4,332.7,235.7z"/>
		<path fill="#231815" d="M337.3,235.7c-0.3,0.3-0.7,0.5-1.2,0.5c-0.7,0-1.2-0.4-1.5-1l0.5-0.2c0.2,0.5,0.5,0.8,1,0.8
			c0.3,0,0.6-0.1,0.7-0.3c0.2-0.2,0.4-0.6,0.4-1c0-0.8-0.3-1.2-0.9-1.2c-0.4,0-0.7,0.2-0.9,0.6h-0.5v-2.7h2.7v0.5h-2.2v1.4
			c0.2-0.2,0.5-0.4,0.9-0.4c0.4,0,0.8,0.2,1,0.5s0.4,0.7,0.4,1.3C337.8,234.9,337.6,235.4,337.3,235.7z"/>
		<path fill="#231815" d="M341.7,230.5c0.1,0.1,0.1,0.1,0.1,0.1c0,0.1-0.1,0.1-0.1,0.1c-0.1,0-0.2,0.1-0.2,0.1
			c-0.2,0.6-0.4,1-0.6,1.2c-0.2,0.3-0.4,0.6-0.6,0.9c-0.2,0.2-0.4,0.5-0.7,0.7c-0.1,0-0.1,0-0.2-0.1c-0.1-0.1-0.2-0.1-0.3-0.1
			c-0.1,0-0.1-0.1-0.1-0.1c0-0.1,0-0.1,0.1-0.1c0.4-0.3,0.7-0.6,1-1c0.2-0.2,0.3-0.5,0.4-0.8c0.1-0.3,0.3-0.7,0.4-1.1
			c0.1-0.1,0.1-0.1,0.1-0.1L341.7,230.5z M342.4,232.2c0.4,0.2,0.6,0.3,0.6,0.4s-0.1,0.1-0.1,0.1c-0.1,0-0.2,0.1-0.2,0.1
			c-0.4,0.7-0.9,1.8-1.7,3.1c0.9-0.1,2.1-0.2,3.4-0.4c-0.2-0.4-0.5-0.8-0.7-1.1c0-0.1,0.1-0.1,0.4-0.2c0,0,0.1,0,0.1,0.1
			c0.6,0.7,1,1.5,1.5,2.3c0,0.1,0,0.1-0.1,0.1c-0.2,0.1-0.4,0.2-0.5,0.2c-0.2-0.3-0.3-0.6-0.5-0.9c-2.3,0.4-3.8,0.6-4.6,0.7
			c-0.1,0-0.1,0.1-0.2,0.1c0,0.1-0.1,0.1-0.1,0.1c-0.1,0-0.2-0.3-0.2-0.9c0.2,0,0.6,0,0.9-0.1c0.6-1.1,1-1.8,1.2-2.2
			c0.2-0.5,0.4-1,0.6-1.4c0-0.1,0.1-0.1,0.1-0.1C342.4,232.1,342.4,232.2,342.4,232.2z M344.2,230.1c0.1,0,0.1,0.1,0.1,0.1
			c0.2,0.9,0.4,1.5,0.6,1.8c0.2,0.6,0.6,0.9,1.2,1.1c0.1,0,0.1,0.1,0.1,0.1s0,0.1-0.1,0.1c-0.1,0.1-0.2,0.2-0.2,0.2
			c-0.1,0.1-0.1,0.1-0.1,0.1c-0.6-0.4-1-0.8-1.2-1.3c-0.2-0.4-0.4-1-0.6-1.8h-1.2c-0.1,0-0.1-0.1-0.1-0.1v-0.2
			c0-0.1,0.1-0.1,0.1-0.1L344.2,230.1L344.2,230.1z"/>
		<path fill="#231815" d="M353.3,230.1c0.1,0,0.1,0.1,0.1,0.1v3.6c0,0.1-0.1,0.1-0.1,0.1H353c-0.1,0-0.1-0.1-0.1-0.1v-0.1h-1.9v1
			h2.4c0.1,0,0.1,0.1,0.1,0.1v0.2c0,0.1-0.1,0.1-0.1,0.1h-2.4v1h3.1c0.1,0,0.1,0.1,0.1,0.1v0.2c0,0.1-0.1,0.1-0.1,0.1h-6.8
			c-0.1,0-0.1-0.1-0.1-0.1v-0.3c0-0.1,0.1-0.1,0.1-0.1h3.1v-1h-2.3c-0.1,0-0.1-0.1-0.1-0.1v-0.2c0-0.1,0.1-0.1,0.1-0.1h2.3v-1h-1.8
			v0.2c0,0.1-0.1,0.1-0.1,0.1h-0.3c-0.1,0-0.1-0.1-0.1-0.1v-3.6c0-0.1,0.1-0.1,0.1-0.1L353.3,230.1L353.3,230.1z M350.4,231.6v-1
			h-1.8v1H350.4z M350.4,233.1v-1h-1.8v1H350.4z M350.9,231.6h1.9v-1h-1.9V231.6z M350.9,233.1h1.9v-1h-1.9V233.1z"/>
		<path fill="#231815" d="M371.1,235.8c-0.3,0.2-0.7,0.4-1.2,0.4s-0.9-0.1-1.2-0.4c-0.3-0.2-0.4-0.6-0.4-1c0-0.6,0.3-1.1,0.9-1.4
			c-0.5-0.2-0.7-0.6-0.7-1.1c0-0.4,0.1-0.7,0.4-0.9c0.2-0.2,0.6-0.3,1-0.3c0.4,0,0.8,0.1,1,0.3c0.2,0.2,0.4,0.6,0.4,0.9
			c0,0.5-0.2,0.9-0.7,1.1c0.6,0.3,0.9,0.8,0.9,1.4C371.6,235.2,371.4,235.6,371.1,235.8z M370.7,233.9c-0.2-0.2-0.5-0.3-0.8-0.3
			c-0.3,0-0.6,0.1-0.8,0.3c-0.2,0.2-0.3,0.5-0.3,0.8c0,0.3,0.1,0.5,0.2,0.7c0.2,0.2,0.5,0.3,0.9,0.3c0.7,0,1.1-0.3,1.1-1
			C371,234.4,370.9,234.1,370.7,233.9z M369.9,231.5c-0.6,0-0.9,0.2-0.9,0.8c0,0.2,0.1,0.4,0.2,0.6c0.2,0.2,0.4,0.2,0.7,0.2
			c0.2,0,0.5-0.1,0.7-0.2c0.2-0.1,0.2-0.4,0.2-0.6C370.8,231.8,370.5,231.5,369.9,231.5z"/>
		<path fill="#231815" d="M374.2,236.2v-4.1h-1.1v-0.3h0.1c0.2,0,0.4-0.1,0.7-0.2c0.2-0.1,0.4-0.3,0.5-0.6h0.4v5.1H374.2z"/>
		<path fill="#231815" d="M377.2,236.2v-0.9h0.9v0.9H377.2z"/>
		<path fill="#231815" d="M380.9,236.2c-1.1,0-1.7-0.9-1.7-2.6c0-0.9,0.1-1.5,0.4-1.9c0.2-0.4,0.7-0.7,1.3-0.7c0.6,0,1,0.2,1.3,0.7
			c0.2,0.4,0.4,1,0.4,1.9C382.6,235.4,382,236.2,380.9,236.2z M381.8,232c-0.2-0.3-0.4-0.4-0.9-0.4c-0.4,0-0.7,0.1-0.9,0.4
			c-0.2,0.3-0.3,0.9-0.3,1.7s0.1,1.3,0.3,1.7c0.2,0.3,0.4,0.5,0.9,0.5s0.6-0.2,0.9-0.5c0.2-0.4,0.3-0.9,0.3-1.7
			C382.1,232.8,382,232.3,381.8,232z"/>
		<path fill="#231815" d="M385.7,233.4c-0.2,0.2-0.5,0.4-0.9,0.4c-0.4,0-0.7-0.1-0.9-0.4c-0.2-0.2-0.3-0.6-0.3-1
			c0-0.4,0.1-0.7,0.3-1c0.2-0.2,0.5-0.4,0.9-0.4s0.7,0.1,0.9,0.4c0.2,0.2,0.3,0.6,0.3,1C386.1,232.8,386,233.1,385.7,233.4z
			 M384.3,236.2l-0.4-0.4l4.9-4.9l0.4,0.4L384.3,236.2z M384.9,231.5c-0.2,0-0.3,0.1-0.4,0.2c-0.1,0.2-0.2,0.4-0.2,0.6
			c0,0.2,0.1,0.4,0.2,0.6c0.1,0.1,0.2,0.2,0.4,0.2c0.4,0,0.6-0.2,0.6-0.8C385.5,231.8,385.3,231.5,384.9,231.5z M389.2,235.8
			c-0.2,0.2-0.5,0.4-0.9,0.4c-0.4,0-0.7-0.1-0.9-0.4c-0.2-0.2-0.3-0.6-0.3-1s0.1-0.7,0.3-1s0.5-0.4,0.9-0.4s0.7,0.1,0.9,0.4
			c0.2,0.2,0.3,0.6,0.3,1S389.3,235.6,389.2,235.8z M388.3,234c-0.2,0-0.4,0.1-0.4,0.2c-0.1,0.2-0.2,0.4-0.2,0.6s0.1,0.4,0.2,0.6
			c0.1,0.1,0.2,0.2,0.4,0.2c0.4,0,0.6-0.2,0.6-0.8C388.9,234.3,388.7,234,388.3,234z"/>
		<path fill="#231815" d="M296.8,253.2c0.1,0,0.1,0.1,0.1,0.1v0.3c0,0.1-0.1,0.1-0.1,0.1h-3.2v1.5c0.6,0.3,1,0.6,1.4,0.8
			c0.4,0.3,0.8,0.6,1.1,0.9c0,0,0,0.1-0.1,0.1c-0.2,0.2-0.3,0.4-0.3,0.4c-0.5-0.4-1-0.8-1.5-1.1c-0.2-0.1-0.4-0.2-0.6-0.4v4
			c0,0.1-0.1,0.1-0.2,0.1h-0.3c-0.1,0-0.1-0.1-0.1-0.1v-6.2h-3c-0.1,0-0.1-0.1-0.1-0.1v-0.3c0-0.1,0.1-0.1,0.1-0.1H296.8z"/>
		<path fill="#231815" d="M298.9,254.9v-1.6c0-0.1,0.1-0.1,0.1-0.1c0.4,0,0.6,0.1,0.6,0.1c0,0.1-0.1,0.1-0.1,0.1
			c-0.1,0-0.1,0.1-0.1,0.2v1.3h0.9c0.1,0,0.1,0.1,0.1,0.1v0.2c0,0.1-0.1,0.1-0.1,0.1h-0.9v2.5c0.3-0.1,0.6-0.2,0.9-0.3
			c0,0,0,0,0.1,0c0.1,0,0.1,0,0.1,0.1c0,0.2,0,0.4-0.1,0.4c-0.7,0.3-1.4,0.6-2.2,0.8c-0.1,0.1-0.1,0.2-0.2,0.2
			c-0.1,0-0.1-0.2-0.3-0.6c0.3-0.1,0.7-0.2,1.2-0.3v-2.7H298c-0.1,0-0.1-0.1-0.1-0.1v-0.2c0-0.1,0.1-0.1,0.1-0.1L298.9,254.9
			L298.9,254.9z M304.3,255.9c0.1,0,0.1,0,0.1,0.1c0.1,0.1,0.1,0.2,0.1,0.2c-0.1,0.5-0.2,0.9-0.4,1.2c-0.1,0.4-0.3,0.6-0.4,0.9
			c-0.1,0.1-0.2,0.2-0.2,0.4c0.1,0.1,0.1,0.1,0.2,0.1c0.2,0.2,0.5,0.4,0.8,0.4c0.2,0.1,0.4,0.1,0.7,0.2c0,0-0.1,0.1-0.1,0.1
			c-0.1,0.1-0.2,0.2-0.3,0.4c0,0.1-0.1,0.1-0.1,0.1c-0.6-0.2-1-0.4-1.3-0.6c-0.1-0.1-0.2-0.1-0.2-0.2c-0.2,0.2-0.4,0.4-0.7,0.5
			c-0.2,0.1-0.5,0.2-0.8,0.3c-0.1,0-0.1,0-0.1-0.1c-0.1-0.1-0.1-0.2-0.2-0.2c-0.1-0.1-0.1-0.1-0.1-0.1c0-0.1,0-0.1,0.1-0.1
			c0.2-0.1,0.4-0.1,0.6-0.2c0.4-0.1,0.6-0.3,0.9-0.6c-0.1-0.1-0.1-0.1-0.2-0.2c-0.2-0.2-0.4-0.6-0.5-0.9c-0.1-0.3-0.2-0.7-0.2-1.1
			h-0.4c0,0.7-0.1,1.2-0.2,1.6c-0.1,0.4-0.2,0.8-0.4,1.2c-0.1,0.2-0.3,0.5-0.5,0.7c-0.1,0-0.1,0-0.1,0c-0.1-0.1-0.2-0.1-0.3-0.2
			c-0.1-0.1-0.1-0.1-0.1-0.1c0.2-0.2,0.4-0.5,0.6-0.9s0.3-0.7,0.4-1.2c0.1-0.4,0.1-0.9,0.1-1.5v-2.1c0-0.1,0.1-0.1,0.1-0.1h1.5v-1
			c0-0.1,0.1-0.1,0.1-0.1c0.4,0,0.6,0.1,0.6,0.1s-0.1,0.1-0.1,0.1c-0.1,0-0.1,0.1-0.1,0.2v0.7h1.7c0.1,0,0.1,0,0.1,0.1
			c0.1,0.1,0.2,0.2,0.2,0.2l-0.7,1.4c0,0.1-0.1,0.1-0.1,0.1c-0.3-0.1-0.4-0.1-0.4-0.2l0.6-1h-1.3v1.6L304.3,255.9L304.3,255.9z
			 M301.5,255.9h1.1v-1.6h-1.1V255.9z M302.5,257.3c0.1,0.4,0.2,0.6,0.4,0.9c0.1,0.1,0.1,0.1,0.1,0.2c0.1-0.1,0.2-0.2,0.2-0.4
			c0.2-0.2,0.3-0.6,0.4-0.9c0.1-0.2,0.1-0.4,0.2-0.7h-1.6C302.4,256.8,302.4,257.1,302.5,257.3z"/>
		<path fill="#231815" d="M325.2,259.2c-1.1,0-1.7-0.9-1.7-2.6c0-0.9,0.1-1.5,0.4-1.9c0.2-0.4,0.7-0.7,1.3-0.7c0.6,0,1,0.2,1.3,0.7
			c0.2,0.4,0.4,1,0.4,1.9C326.9,258.3,326.3,259.2,325.2,259.2z M326.1,254.9c-0.2-0.3-0.4-0.4-0.9-0.4c-0.4,0-0.7,0.1-0.9,0.4
			c-0.2,0.3-0.3,0.9-0.3,1.7c0,0.8,0.1,1.3,0.3,1.7c0.2,0.3,0.4,0.5,0.9,0.5c0.4,0,0.6-0.2,0.9-0.5c0.2-0.4,0.3-0.9,0.3-1.7
			C326.3,255.8,326.3,255.3,326.1,254.9z"/>
		<path fill="#231815" d="M328,259.2v-0.9h0.9v0.9H328z"/>
		<path fill="#231815" d="M331.6,259.2c-0.3,0-0.6-0.1-0.8-0.3c-0.2-0.2-0.3-0.4-0.4-0.6l0.5-0.2c0.2,0.4,0.4,0.6,0.8,0.6
			c0.7,0,1-0.6,1.1-1.8c-0.3,0.3-0.7,0.5-1.1,0.5s-0.8-0.1-1-0.4c-0.2-0.2-0.4-0.7-0.4-1.2c0-0.5,0.1-0.9,0.4-1.2
			c0.2-0.4,0.6-0.6,1.1-0.6c0.6,0,1,0.3,1.3,0.8c0.2,0.4,0.3,1,0.3,1.8C333.2,258.4,332.7,259.2,331.6,259.2z M331.6,254.5
			c-0.3,0-0.5,0.1-0.7,0.4c-0.2,0.2-0.2,0.6-0.2,0.9c0,0.7,0.3,1,1,1c0.4,0,0.7-0.2,1-0.6C332.7,255,332.3,254.5,331.6,254.5z"/>
		<path fill="#231815" d="M336.1,259.2c-0.3,0-0.6-0.1-0.8-0.3c-0.2-0.2-0.3-0.4-0.4-0.6l0.5-0.2c0.2,0.4,0.4,0.6,0.8,0.6
			c0.7,0,1-0.6,1.1-1.8c-0.3,0.3-0.7,0.5-1.1,0.5s-0.8-0.1-1-0.4c-0.2-0.2-0.4-0.7-0.4-1.2c0-0.5,0.1-0.9,0.4-1.2
			c0.2-0.4,0.6-0.6,1.1-0.6c0.6,0,1,0.3,1.3,0.8c0.2,0.4,0.3,1,0.3,1.8C337.8,258.4,337.2,259.2,336.1,259.2z M336.2,254.5
			c-0.3,0-0.5,0.1-0.7,0.4c-0.2,0.2-0.2,0.6-0.2,0.9c0,0.7,0.3,1,1,1c0.4,0,0.7-0.2,1-0.6C337.2,255,336.9,254.5,336.2,254.5z"/>
		<path fill="#231815" d="M341.7,253.5c0.1,0.1,0.1,0.1,0.1,0.1c0,0.1-0.1,0.1-0.1,0.1c-0.1,0-0.2,0.1-0.2,0.1
			c-0.2,0.6-0.4,1-0.6,1.2c-0.2,0.3-0.4,0.6-0.6,0.9c-0.2,0.2-0.4,0.5-0.7,0.7c-0.1,0-0.1,0-0.2-0.1c-0.1-0.1-0.2-0.1-0.3-0.1
			c-0.1,0-0.1-0.1-0.1-0.1c0-0.1,0-0.1,0.1-0.1c0.4-0.3,0.7-0.6,1-1c0.2-0.2,0.3-0.5,0.4-0.8c0.1-0.3,0.3-0.7,0.4-1.1
			c0.1-0.1,0.1-0.1,0.1-0.1L341.7,253.5z M342.4,255.1c0.4,0.2,0.6,0.3,0.6,0.4s-0.1,0.1-0.1,0.1c-0.1,0-0.2,0.1-0.2,0.1
			c-0.4,0.7-0.9,1.8-1.7,3.1c0.9-0.1,2.1-0.2,3.4-0.4c-0.2-0.4-0.5-0.8-0.7-1.1c0-0.1,0.1-0.1,0.4-0.2c0,0,0.1,0,0.1,0.1
			c0.6,0.7,1,1.5,1.5,2.3c0,0.1,0,0.1-0.1,0.1c-0.2,0.1-0.4,0.2-0.5,0.2c-0.2-0.3-0.3-0.6-0.5-0.9c-2.3,0.4-3.8,0.6-4.6,0.7
			c-0.1,0-0.1,0.1-0.2,0.1c0,0.1-0.1,0.1-0.1,0.1c-0.1,0-0.2-0.3-0.2-0.9c0.2,0,0.6,0,0.9-0.1c0.6-1.1,1-1.8,1.2-2.2
			c0.2-0.5,0.4-1,0.6-1.4c0-0.1,0.1-0.1,0.1-0.1C342.4,255.1,342.4,255.1,342.4,255.1z M344.2,253.1c0.1,0,0.1,0.1,0.1,0.1
			c0.2,0.9,0.4,1.5,0.6,1.8c0.2,0.6,0.6,0.9,1.2,1.1c0.1,0,0.1,0.1,0.1,0.1s0,0.1-0.1,0.1c-0.1,0.1-0.2,0.2-0.2,0.2
			c-0.1,0.1-0.1,0.1-0.1,0.1c-0.6-0.4-1-0.8-1.2-1.3c-0.2-0.4-0.4-1-0.6-1.8h-1.2c-0.1,0-0.1-0.1-0.1-0.1v-0.2
			c0-0.1,0.1-0.1,0.1-0.1L344.2,253.1L344.2,253.1z"/>
		<path fill="#231815" d="M353.3,253.1c0.1,0,0.1,0.1,0.1,0.1v3.6c0,0.1-0.1,0.1-0.1,0.1H353c-0.1,0-0.1-0.1-0.1-0.1v-0.1h-1.9v1
			h2.4c0.1,0,0.1,0.1,0.1,0.1v0.2c0,0.1-0.1,0.1-0.1,0.1h-2.4v1h3.1c0.1,0,0.1,0.1,0.1,0.1v0.2c0,0.1-0.1,0.1-0.1,0.1h-6.8
			c-0.1,0-0.1-0.1-0.1-0.1v-0.2c0-0.1,0.1-0.1,0.1-0.1h3.1v-1h-2.3c-0.1,0-0.1-0.1-0.1-0.1v-0.2c0-0.1,0.1-0.1,0.1-0.1h2.3v-1h-1.8
			v0.2c0,0.1-0.1,0.1-0.1,0.1h-0.3c-0.1,0-0.1-0.1-0.1-0.1v-3.6c0-0.1,0.1-0.1,0.1-0.1H353.3z M350.4,254.6v-1h-1.8v1H350.4z
			 M350.4,256.1v-1h-1.8v1H350.4z M350.9,254.6h1.9v-1h-1.9V254.6z M350.9,256.1h1.9v-1h-1.9V256.1z"/>
		<path fill="#231815" d="M374.3,259.2c-0.3,0-0.6-0.1-0.8-0.3c-0.2-0.2-0.3-0.4-0.4-0.6l0.5-0.2c0.2,0.4,0.4,0.6,0.8,0.6
			c0.7,0,1-0.6,1.1-1.8c-0.3,0.3-0.7,0.5-1.1,0.5c-0.4,0-0.8-0.1-1-0.4c-0.2-0.2-0.4-0.7-0.4-1.2c0-0.5,0.1-0.9,0.4-1.2
			c0.2-0.4,0.6-0.6,1.1-0.6c0.6,0,1,0.3,1.3,0.8c0.2,0.4,0.3,1,0.3,1.8C376,258.4,375.4,259.2,374.3,259.2z M374.4,254.5
			c-0.3,0-0.5,0.1-0.7,0.4c-0.2,0.2-0.2,0.6-0.2,0.9c0,0.7,0.3,1,1,1c0.4,0,0.7-0.2,1-0.6C375.4,255,375.1,254.5,374.4,254.5z"/>
		<path fill="#231815" d="M377.2,259.2v-0.9h0.9v0.9H377.2z"/>
		<path fill="#231815" d="M381.9,257.9v1.2h-0.6v-1.2h-2.1v-0.5l2.2-3.3h0.5v3.4h0.7v0.5L381.9,257.9L381.9,257.9z M381.3,255
			l-1.5,2.4h1.5V255z"/>
		<path fill="#231815" d="M385.7,256.3c-0.2,0.2-0.5,0.4-0.9,0.4c-0.4,0-0.7-0.1-0.9-0.4s-0.3-0.6-0.3-1c0-0.4,0.1-0.7,0.3-1
			c0.2-0.2,0.5-0.4,0.9-0.4s0.7,0.1,0.9,0.4c0.2,0.2,0.3,0.6,0.3,1C386,255.8,386,256.2,385.7,256.3z M384.3,259.2l-0.4-0.4l4.9-4.9
			l0.4,0.4L384.3,259.2z M384.8,254.5c-0.2,0-0.3,0.1-0.4,0.2c-0.1,0.2-0.2,0.4-0.2,0.6c0,0.2,0.1,0.4,0.2,0.6
			c0.1,0.1,0.2,0.2,0.4,0.2c0.4,0,0.6-0.2,0.6-0.8C385.5,254.8,385.3,254.5,384.8,254.5z M389.1,258.8c-0.2,0.2-0.5,0.4-0.9,0.4
			c-0.4,0-0.7-0.1-0.9-0.4c-0.2-0.2-0.3-0.6-0.3-1s0.1-0.7,0.3-1c0.2-0.2,0.5-0.4,0.9-0.4c0.4,0,0.7,0.1,0.9,0.4
			c0.2,0.2,0.3,0.6,0.3,1C389.5,258.2,389.3,258.6,389.1,258.8z M388.3,257c-0.2,0-0.4,0.1-0.4,0.2c-0.1,0.2-0.2,0.4-0.2,0.6
			s0.1,0.4,0.2,0.6c0.1,0.1,0.2,0.2,0.4,0.2c0.4,0,0.6-0.2,0.6-0.8C388.9,257.3,388.7,257,388.3,257z"/>
	</g>
	<g>
		<path fill="#E5CB51" d="M230,202.7c-16.8,0-30.4,13.6-30.4,30.4s13.6,30.4,30.4,30.4s30.4-13.6,30.4-30.4S246.8,202.7,230,202.7z
			 M230,254.1c-11.6,0-20.9-9.4-20.9-20.9s9.4-20.9,20.9-20.9c11.6,0,20.9,9.4,20.9,20.9C250.9,244.7,241.5,254.1,230,254.1z"/>
		<g>
			<path fill="#69B46C" d="M230,202.7c-5.8,0-11.3,1.7-15.9,4.6c1.8,2.7,3.7,5.5,5.4,7.9c3.1-1.8,6.7-2.9,10.6-2.9l0,0L230,202.7
				L230,202.7z"/>
		</g>
		<g>
			<path fill="#DF6E49" d="M230,202.7c5.8,0,11.3,1.7,15.9,4.6c-1.8,2.7-3.7,5.5-5.4,7.9c-3.1-1.8-6.7-2.9-10.6-2.9l0,0L230,202.7
				L230,202.7z"/>
		</g>
	</g>
</g>
</svg>
