<?xml version="1.0" encoding="utf-8"?>
<!-- Generator: Adobe Illustrator 18.0.0, SVG Export Plug-In . SVG Version: 6.00 Build 0)  -->
<!DOCTYPE svg PUBLIC "-//W3C//DTD SVG 1.1//EN" "http://www.w3.org/Graphics/SVG/1.1/DTD/svg11.dtd">
<svg version="1.1" id="圖層_1" xmlns="http://www.w3.org/2000/svg" xmlns:xlink="http://www.w3.org/1999/xlink" x="0px" y="0px"
	 viewBox="0 0 800 100" enable-background="new 0 0 800 100" xml:space="preserve">
<g>
	<g>
		<path fill="#3E3A39" d="M195.6,52.4c-1.5,1-2.9,1.9-4.7,3.1c0.7,0.4,1.2,0.8,1.8,0.9c2.1,0.4,3.7-0.7,5.1-2.1
			c1.7-1.7,0.8-5.9-1.5-6.7c-0.7-0.2-1.7,0.1-2.4,0.4c-0.2,0.1,0,1.2,0.2,1.8C194.3,50.6,194.9,51.3,195.6,52.4z"/>
		<path fill="#3E3A39" d="M349.7,57.9c1,1,2.6,0.8,4.1-0.5c2-1.8,2.5-3.7,1.2-5.1c-0.9-0.9-2.1-1.5-3.2-2c-0.5-0.2-1.3,0.3-2,0.5
			c0.4,0.6,0.8,1.3,1.3,1.7c0.6,0.5,1.3,0.7,2.4,1.3C352,55.3,350.9,56.6,349.7,57.9z"/>
		<path fill="#3E3A39" d="M310.5,48.3c0.2-0.1,0.5-0.2,0.7-0.2c0.3-2.8,0.7-5.6,0-8.4c0-0.1-0.1-0.3-0.2-0.3
			c-0.4-0.2-0.8-0.4-1.2-0.6c-0.2,0.4-0.5,0.7-0.5,1.1c0,2.2-0.1,4.4,0.1,6.6C309.4,47,310.1,47.6,310.5,48.3z"/>
		<g>
			<path fill="#3E3A39" d="M289.9,57c0,1.6,0.4,3.2-0.1,4.4c-0.8,1.8,0.2,2.7,1.1,3.7c0.3,0.3,1.2,0.3,1.6,0.1
				c0.3-0.1,0.5-0.9,0.5-1.4c0.1-1.8,0-3.7,0-5.7c0.8,0.3,1.5,0.6,2.2,0.9c1.5,0.6,3.1,1.3,4.7,1.8c0.4,0.1,1.1-0.2,1.4-0.5
				c0.2-0.2,0.1-1-0.2-1.3c-0.7-0.9-1.6-1.8-2.7-2.9c-0.3,0.4-0.6,0.8-0.8,1.2c-5-2.1-5.7-3.3-4.5-8c0.6,0,1.3,0.2,1.9,0.1
				c0.6-0.1,1.2-0.4,1.8-0.6c-0.3-0.6-0.5-1.4-1-1.7c-0.8-0.5-1.8-0.7-2.9-1c0-0.5,0-1.1,0-1.7c-0.1-3.5,0-6.9-0.3-10.4
				c-0.2-2.5-0.4-1.5-0.8-4c-0.2-1.4-1.4-1.7-2.6-1.9c-0.1,0.8-0.4,1.6-0.3,2.4c0.4,4.1,0.6,4.7,0.9,8.8c0.2,2.4,0,4.8,0,7.3
				c-1.6,0-2.9-0.1-4.2,0c-0.5,0-1.4,0.5-1.4,0.8c-0.1,0.6,0.3,1.4,0.7,1.7c0.6,0.4,1.5,0.5,2.2,0.6c0.8,0.1,1.5-0.1,2.5-0.2
				c0,0.7-0.1,1.3,0,1.8c0.3,1.8-0.3,2.9-2,3.6c-2.1,1-4.2,2.1-6.2,3.3c-0.4,0.3-0.9,1.2-0.7,1.5c0.2,0.5,0.9,0.9,1.5,1
				c0.4,0.1,0.9-0.3,1.4-0.5C285.7,59.3,287.6,58.2,289.9,57z"/>
			<path fill-rule="evenodd" clip-rule="evenodd" fill="#3E3A39" d="M289.9,57c-2.3,1.2-4.2,2.3-6.2,3.3c-0.4,0.2-1,0.6-1.4,0.5
				c-0.6-0.1-1.3-0.5-1.5-1c-0.1-0.4,0.3-1.3,0.7-1.5c2-1.2,4.1-2.3,6.2-3.3c1.7-0.8,2.3-1.8,2-3.6c-0.1-0.5,0-1.1,0-1.8
				c-0.9,0.1-1.7,0.3-2.5,0.2c-0.8-0.1-1.6-0.2-2.2-0.6c-0.4-0.3-0.8-1.1-0.7-1.7c0-0.3,0.9-0.8,1.4-0.8c1.3-0.1,2.6,0,4.2,0
				c0-2.6,0.2-5,0-7.3c-0.3-4.1-0.5-4.7-0.9-8.8c-0.1-0.8,0.2-1.6,0.3-2.4c1.2,0.2,2.4,0.5,2.6,1.9c0.4,2.5,0.6,1.5,0.8,4
				c0.2,3.5,0.2,6.9,0.3,10.4c0,0.6,0,1.2,0,1.7c1.1,0.4,2.1,0.5,2.9,1c0.5,0.3,0.7,1.1,1,1.7c-0.6,0.2-1.2,0.5-1.8,0.6
				c-0.6,0.1-1.3-0.1-1.9-0.1c-1.2,4.7-0.5,5.9,4.5,8c0.3-0.4,0.6-0.8,0.8-1.2c1.1,1.1,1.9,2,2.7,2.9c0.2,0.3,0.4,1.1,0.2,1.3
				c-0.3,0.3-1,0.6-1.4,0.5c-1.6-0.5-3.1-1.1-4.7-1.8c-0.7-0.3-1.3-0.6-2.2-0.9c0,2.1,0,3.9,0,5.7c0,0.5-0.2,1.2-0.5,1.4
				c-0.5,0.2-1.4,0.2-1.6-0.1c-0.9-1-1.9-2-1.1-3.7C290.3,60.2,289.9,58.6,289.9,57z"/>
		</g>
		<g>
			<path fill="#3E3A39" d="M121.2,53.1c0.5,3.3-0.6,5.8-2.8,7.8c-0.6,0.5-1.7,0.3-2.6,0.6c-0.4,0.1-0.8,0.6-1.2,0.9
				c0.6,0.7,1.1,1.9,1.7,2c1.3,0.1,2.8-0.2,3.8-0.9c2.7-2.1,4.3-4.9,4.2-8.5c0-0.6-0.1-1.5,0.2-1.8c1.3-1.1,0.5-1.8-0.3-2.5
				c-1.9-1.5-2.2-2.8-1-5c1.3-2.4,0.9-4.5-1.1-6.3c-1.7-1.5-3.7-1.7-5.7-1.6c-0.6,0-1.2,0.6-1.8,0.9c0.4,0.6,0.7,1.5,1.2,1.9
				c0.5,0.3,1.3,0.1,1.9,0.2c1,0.2,2.6,0.3,2.9,0.9c0.4,0.8,0.1,2.5-0.5,3.1c-1.6,1.5-1.3,2.7-0.2,4.2c0.2,0.2,0.2,0.5,0.3,0.9
				c-0.7-0.1-1.3-0.4-1.8-0.3c-0.8,0.1-2.2,0.3-2.3,0.8c-0.3,1.3,0.7,2,1.9,2.2C119,52.9,120,53,121.2,53.1z"/>
			<path fill="#3E3A39" d="M105.2,46.2c0.2,0.7,0.4,1.1,0.5,1.5c0.4,1.9,0.6,3.8,1.1,5.6c0.2,0.7,1.2,1.2,1.8,1.8
				c0.4-0.5,1.2-1,1.1-1.4c-0.5-3.2-1.2-6.5-2-10.1c0.8-0.8,2-2.1,3.3-3.3c0.7-0.7,1-1.4,0.1-2c-0.7-0.6-1.5-1.4-2.5-0.4
				c-2.5,2.7-5.1,5.4-7.7,8c-0.8,0.8-1,1.5-0.2,2.4c0.9,0.9,1.7,0.9,2.5-0.1C103.9,47.6,104.5,47,105.2,46.2z"/>
			<path fill-rule="evenodd" clip-rule="evenodd" fill="#3E3A39" d="M121.2,53.1c-1.2-0.1-2.2-0.2-3.3-0.4c-1.2-0.2-2.3-0.9-1.9-2.2
				c0.1-0.4,1.5-0.6,2.3-0.8c0.5-0.1,1.1,0.2,1.8,0.3c-0.1-0.4-0.2-0.7-0.3-0.9c-1.1-1.5-1.4-2.7,0.2-4.2c0.7-0.6,0.9-2.3,0.5-3.1
				c-0.3-0.6-1.9-0.7-2.9-0.9c-0.6-0.1-1.5,0.1-1.9-0.2c-0.6-0.4-0.8-1.2-1.2-1.9c0.6-0.3,1.2-0.9,1.8-0.9c2.1-0.2,4.1,0.1,5.7,1.6
				c2,1.8,2.4,3.9,1.1,6.3c-1.2,2.1-0.9,3.4,1,5c0.9,0.7,1.7,1.4,0.3,2.5c-0.3,0.3-0.2,1.2-0.2,1.8c0.1,3.6-1.5,6.4-4.2,8.5
				c-0.9,0.7-2.5,1-3.8,0.9c-0.6,0-1.1-1.3-1.7-2c0.4-0.3,0.7-0.7,1.2-0.9c0.8-0.3,2-0.1,2.6-0.6C120.6,59,121.7,56.4,121.2,53.1z"
				/>
			<path fill-rule="evenodd" clip-rule="evenodd" fill="#3E3A39" d="M105.2,46.2c-0.7,0.8-1.3,1.4-1.8,2c-0.8,0.9-1.7,0.9-2.5,0.1
				c-0.8-0.8-0.6-1.5,0.2-2.4c2.6-2.6,5.1-5.3,7.7-8c1-1.1,1.8-0.2,2.5,0.4c0.9,0.7,0.6,1.4-0.1,2c-1.3,1.2-2.5,2.5-3.3,3.3
				c0.7,3.6,1.4,6.8,2,10.1c0.1,0.4-0.7,0.9-1.1,1.4c-0.6-0.6-1.6-1.1-1.8-1.8c-0.6-1.8-0.8-3.7-1.1-5.6
				C105.6,47.3,105.4,46.9,105.2,46.2z"/>
		</g>
		<g>
			<path fill="#3E3A39" d="M60.2,58.1c0-0.2-0.1-0.4-0.1-0.6c0.2-0.3,0.5-0.6,0.7-0.9c1.7-2.6,3.5-5.1,5.2-7.7c0.8-1.2,0-2-1-2.5
				c-1.1-0.5-1.5,0-2,1c-1.8,3.7-3.9,7.2-7.3,9.6c-0.3,0.2-0.5,1.5-0.2,1.8c0.5,0.6,1.4,1.1,2.2,1.2c2.6,0.2,5.3,0.4,8,0.3
				c7.2-0.2,14.4-0.5,21.5-0.8c1.2,0,1.6-0.6,1.5-1.8c-0.1-0.9-0.3-1.8-0.2-2.8c0.1-2,0.4-4.1,0.5-6.1c0-0.7-0.5-1.5-1-1.9
				c-0.4-0.4-1.3-0.2-1.9-0.3c0,0.7-0.1,1.4-0.1,2.1c-0.1,2.6-0.2,5.1-0.3,7.9C76.8,57.3,68.5,57.7,60.2,58.1z"/>
			<path fill="#3E3A39" d="M74.6,32.6c-0.1,0.2-0.2,0.4-0.2,0.7c-0.8,4.7-1.7,9.3-2.4,14c-0.3,2-0.7,4-0.7,6c0,0.7,1.3,1.3,1.9,2
				c0.3-0.6,0.7-1.3,0.9-1.9c0.2-0.5,0.1-1.1,0.2-1.6c1-5.4,2-10.8,2.9-16.2C77.6,33.4,76.9,32.7,74.6,32.6z"/>
			<path fill-rule="evenodd" clip-rule="evenodd" fill="#3E3A39" d="M60.2,58.1c8.3-0.4,16.6-0.8,25.2-1.2c0.1-2.8,0.2-5.4,0.3-7.9
				c0-0.7,0.1-1.4,0.1-2.1c0.6,0.1,1.5-0.1,1.9,0.3c0.5,0.4,1,1.3,1,1.9c0,2-0.3,4.1-0.5,6.1c-0.1,0.9,0.1,1.8,0.2,2.8
				c0.1,1.2-0.3,1.7-1.5,1.8c-7.2,0.3-14.4,0.6-21.5,0.8c-2.7,0.1-5.3-0.1-8-0.3c-0.8-0.1-1.6-0.6-2.2-1.2c-0.3-0.3-0.2-1.5,0.2-1.8
				c3.4-2.5,5.5-6,7.3-9.6c0.5-1.1,1-1.5,2-1c1,0.5,1.8,1.3,1,2.5c-1.7,2.6-3.4,5.1-5.2,7.7c-0.2,0.3-0.5,0.6-0.7,0.9
				C60.1,57.8,60.2,57.9,60.2,58.1z"/>
			<path fill-rule="evenodd" clip-rule="evenodd" fill="#3E3A39" d="M74.6,32.6c2.3,0.1,3,0.8,2.6,2.9c-0.9,5.4-1.9,10.8-2.9,16.2
				c-0.1,0.5,0,1.1-0.2,1.6c-0.2,0.7-0.6,1.3-0.9,1.9c-0.7-0.7-1.9-1.3-1.9-2c0-2,0.4-4,0.7-6c0.8-4.7,1.6-9.4,2.4-14
				C74.4,33,74.5,32.8,74.6,32.6z"/>
		</g>
		<g>
			<path fill="#3E3A39" d="M254.3,46.2c0.2-1.3,0.4-2.5,0.6-3.8c0.2-1.6-1.1-1.9-2.1-2.1c-1.1-0.3-1,0.7-1.2,1.5
				c-1.6,6.3-3.4,12.6-5,18.9c-0.2,0.8-0.2,1.9,0.2,2.4c0.8,1,2.1,0.9,3,0.1c0.5-0.5,0.6-1.4,0.7-2.2c0.1-0.6-0.2-1.2-0.1-1.7
				c0.7-2.7,1.6-5.5,2.4-8.2C253.3,49.5,253.8,47.8,254.3,46.2c0,2,0.9,2.8,3,2.6c2.3-0.2,4.6-0.6,7.1-1c-1,4.6-1.9,9-2.9,13.4
				c-0.7,3.2,0.2,5.2,3.4,5.7c3,0.5,6.1,0.4,9.2,0.5c0.3,0,1-1.1,0.9-1.3c-0.7-1-1.5-1.9-2.6-3.2c-0.3,1-0.4,1.5-0.6,2
				c-2-0.1-3.8-0.1-5.7-0.3c-2.1-0.2-2.3-0.6-1.9-2.6c1-4.6,2.1-9.1,3.2-13.7c0.7-2.8-0.1-3.7-3.1-3.5c-2.2,0.2-4.4,0.6-6.6,0.9
				C256.7,46,255.5,46.1,254.3,46.2z"/>
			<path fill="#3E3A39" d="M250.2,40c0.7-0.1,0.9-0.2,1.1-0.2c3.5-0.8,7.1-1.6,10.6-2.5c0.4-0.1,1.1-0.5,1.1-0.8
				c0-0.4-0.4-1.1-0.7-1.3c-0.8-0.3-1.7-0.6-2.5-0.5c-3.2,0.6-6.3,1.3-9.4,2.1c-0.7,0.2-1.2,0.9-1.8,1.3
				C249.1,38.8,249.7,39.5,250.2,40z"/>
			<path fill="#3E3A39" d="M255,52.4c-0.4,0.4-1.1,0.6-1.2,1c-0.1,0.5,0.2,1.3,0.6,1.6c1.3,0.8,2.7,1.4,4.2,1.9
				c0.4,0.1,1.2-0.3,1.5-0.7c0.2-0.2-0.1-1.2-0.4-1.4C258.3,53.9,256.7,53.2,255,52.4z"/>
			<path fill-rule="evenodd" clip-rule="evenodd" fill="#3E3A39" d="M254.3,46.2c1.2-0.1,2.4-0.2,3.6-0.4c2.2-0.3,4.4-0.7,6.6-0.9
				c2.9-0.3,3.7,0.7,3.1,3.5c-1.1,4.6-2.2,9.1-3.2,13.7c-0.5,2.1-0.2,2.4,1.9,2.6c1.8,0.2,3.7,0.2,5.7,0.3c0.2-0.6,0.3-1,0.6-2
				c1.1,1.3,1.9,2.2,2.6,3.2c0.1,0.2-0.6,1.3-0.9,1.3c-3.1-0.1-6.2,0-9.2-0.5c-3.2-0.6-4.2-2.6-3.4-5.7c1-4.4,1.9-8.8,2.9-13.4
				c-2.5,0.4-4.8,0.7-7.1,1C255.2,49,254.3,48.2,254.3,46.2L254.3,46.2z"/>
			<path fill-rule="evenodd" clip-rule="evenodd" fill="#3E3A39" d="M254.4,46.2c-0.5,1.7-1.1,3.3-1.6,5c-0.8,2.7-1.6,5.4-2.4,8.2
				c-0.1,0.5,0.2,1.2,0.1,1.7c-0.1,0.8-0.2,1.8-0.7,2.2c-0.9,0.8-2.2,0.9-3-0.1c-0.4-0.5-0.4-1.7-0.2-2.4c1.6-6.3,3.4-12.6,5-18.9
				c0.2-0.8,0.1-1.8,1.2-1.5c1,0.3,2.3,0.6,2.1,2.1C254.7,43.7,254.5,45,254.4,46.2C254.3,46.2,254.4,46.2,254.4,46.2z"/>
			<path fill-rule="evenodd" clip-rule="evenodd" fill="#3E3A39" d="M250.2,40c-0.5-0.5-1.1-1.2-1.8-1.9c0.6-0.4,1.1-1.1,1.8-1.3
				c3.1-0.8,6.2-1.5,9.4-2.1c0.8-0.1,1.7,0.1,2.5,0.5c0.4,0.2,0.7,0.8,0.7,1.3c0,0.3-0.6,0.7-1.1,0.8c-3.5,0.9-7.1,1.7-10.6,2.5
				C251,39.8,250.9,39.9,250.2,40z"/>
			<path fill-rule="evenodd" clip-rule="evenodd" fill="#3E3A39" d="M255,52.4c1.7,0.8,3.3,1.5,4.7,2.4c0.3,0.2,0.6,1.2,0.4,1.4
				c-0.3,0.4-1.1,0.8-1.5,0.7c-1.4-0.5-2.9-1.1-4.2-1.9c-0.4-0.2-0.7-1.1-0.6-1.6C253.9,53,254.6,52.7,255,52.4z"/>
		</g>
		<g>
			<path fill="#3E3A39" d="M227.5,67.7C227.5,67.7,227.6,67.7,227.5,67.7c0.1-0.7,0.3-1.6,0-2.2c-0.4-0.7-1.2-1.3-1.9-1.8
				c-0.1-0.1-1.1,0.5-1.1,0.8c-0.1,1.6-0.2,3.2,0.1,4.8c0.1,0.6,1.2,1,1.8,1.5c0.4-0.6,0.8-1.2,1-1.9
				C227.6,68.6,227.5,68.2,227.5,67.7z"/>
			<path fill="#3E3A39" d="M233.2,64c0.9,1.4,1.7,2.9,2.6,4.3c0.2,0.3,1.1,0.3,1.5,0.1c0.3-0.1,0.6-0.9,0.5-1.2
				c-0.4-1.2-0.7-2.4-1.5-3.3C235.7,63,234.6,62.5,233.2,64z"/>
			<path fill="#3E3A39" d="M232.5,67.4c-0.9-1.1-1.7-2.3-2.7-3.1c-0.7-0.6-1.7-0.1-1.6,0.9c0.2,1.1,0.7,2.2,1.3,3.2
				c0.2,0.4,1.2,0.5,1.8,0.4C231.7,68.8,231.9,68.1,232.5,67.4z"/>
			<path fill-rule="evenodd" clip-rule="evenodd" fill="#3E3A39" d="M227.5,67.7c0,0.4,0.1,0.9,0,1.3c-0.3,0.7-0.7,1.3-1,1.9
				c-0.6-0.5-1.7-0.9-1.8-1.5c-0.3-1.5-0.2-3.2-0.1-4.8c0-0.3,1-0.9,1.1-0.8c0.7,0.5,1.5,1,1.9,1.8C227.8,66.1,227.6,67,227.5,67.7
				C227.6,67.7,227.5,67.7,227.5,67.7z"/>
			<path fill-rule="evenodd" clip-rule="evenodd" fill="#3E3A39" d="M233.2,64c1.4-1.5,2.5-1.1,3.2-0.1c0.7,1,1.1,2.2,1.5,3.3
				c0.1,0.3-0.2,1.1-0.5,1.2c-0.4,0.2-1.3,0.1-1.5-0.1C234.8,66.9,234,65.5,233.2,64z"/>
			<path fill-rule="evenodd" clip-rule="evenodd" fill="#3E3A39" d="M232.5,67.4c-0.6,0.7-0.8,1.4-1.2,1.5c-0.6,0.1-1.5,0-1.8-0.4
				c-0.6-1-1.1-2.1-1.3-3.2c-0.2-1.1,0.9-1.5,1.6-0.9C230.8,65.1,231.6,66.3,232.5,67.4z"/>
			<g>
				<path fill="#3E3A39" d="M238.5,43.2c-0.3-6.1-3.8-9.1-9.9-8.8c-4.1,0.2-8.1,0.2-12.2,0.3c-0.4,0-1,0.3-1.1,0.6
					c-1.4,4.3-2.8,8.7-4.1,13.1c-0.7,2.5-0.1,3.8,2.6,4.2c3.3,0.6,6.7,0.7,10.3,1c0.1,0.3,0.2,0.9,0.3,1.6c-0.8,0.1-1.5,0-2.1,0.2
					c-0.7,0.2-1.3,0.7-1.9,1c0.6,0.6,1.1,1.4,1.9,1.7c0.7,0.3,1.6,0.1,2.4,0.1c0,0.2,0.1,0.5,0.1,0.7c-0.9,0.1-1.8,0.3-2.6,0.4
					c-2.7,0.1-3,0.5-1.9,3.1c-1.4,1.5-2.8,3.2-4.4,4.6c-0.8,0.7-1.5,1.3-0.7,2.3c0.7,1,1.8,1.2,2.7,0.3c1.5-1.6,3-3.3,4.5-4.9
					c1.3-1.4,2.2-3.4,4.7-2.2c0.2,0.1,0.5-0.1,0.7-0.1c2.1-0.3,4.2-0.5,6.3-0.8c0.6-0.1,1.1-0.4,1.7-0.6c-0.3-0.5-0.5-1.4-1-1.5
					c-1.6-0.4-3.2-0.5-4.8-0.7c-0.7-0.1-1.4-0.1-2.1-0.2c0-0.2,0-0.4,0-0.6c0.8,0,1.6,0.1,2.4,0c0.5-0.1,1.1-0.5,1.4-0.9
					c0.1-0.2-0.3-1-0.7-1.2c-0.7-0.4-1.6-0.5-2.4-0.9c-0.5-0.2-0.9-0.7-1.3-1c0.1-0.2,0.2-0.3,0.3-0.5c0.2,0,0.5,0,0.7,0
					c2.5,0.3,5,0.5,7.6,0.8c2.4,0.3,2.8-0.1,2.9-2.4C238.6,48.8,238.7,46,238.5,43.2z M224,50.8c-2.9,0-5.7,0.1-8.5,0
					c-1.2,0-1.8-0.6-1.3-2c0.7-2.1,1.3-4.2,2-6.4c2.5,2.3,4.4,5,7.8,5.7C224,48.8,224,49.6,224,50.8z M235.5,51.6
					c-2.9-0.3-5.6-0.6-8.6-0.9c0.4-0.8,0.6-1.6,1.1-2c2.3-2,2.9-4.8,3.7-7.5c0.4-1.4-0.5-1.9-1.6-2.2c-1.3-0.3-1.3,0.6-1.5,1.5
					c-0.3,1.2-0.8,2.4-1.6,3.6c0-0.7,0-1.4,0-2.1c0-1.4-1.1-1.9-2.2-2.1c-0.3,0-0.9,0.7-0.9,1.1c-0.1,1.4,0,2.8,0,4.7
					c-2.3-1.8-4.5-3.5-6.8-5.4c0.1-0.3,0.4-1,0.6-1.8c0.2-1.1,0.9-1.3,1.9-1.3c3.5-0.1,7-0.2,10.6-0.3c3.2-0.1,5.1,1.1,5.4,4.3
					C235.8,44.6,235.5,48,235.5,51.6z"/>
			</g>
		</g>
		<g>
			<path fill="#3E3A39" d="M319.7,38.8c-0.2-1.2-0.1-1.9-0.4-2.6c-0.2-0.4-0.8-0.7-1.3-1c-0.3,0.4-0.7,0.9-0.7,1.3
				c-0.1,0.9,0,1.8,0,2.8c-0.9,0.2-1.9,0.3-2.7,0.6c-0.4,0.1-1.1,0.8-1,1c0.2,0.5,0.7,1.1,1.1,1.2c1.2,0.1,2.3-0.1,3.5-0.3
				c3.8-0.7,7.5-1.5,11.5-2.4c-0.2,2.1,1.5,4,0.1,5.9c0.4,0.6,0.7,1.2,1.2,1.7c0.5,0.4,1.1,0.6,1.6,0.9c0.2-0.6,0.6-1.2,0.6-1.7
				c-0.2-2.3-0.7-4.5-0.9-6.8c-0.3-2.6-0.8-3-3.3-2.4C325.9,37.7,322.9,38.2,319.7,38.8z"/>
			<path fill="#3E3A39" d="M316,49.6c0.1,0,0.3-0.1,0.5-0.3c0.8-1,1.7-2,2.2-3.1c0.2-0.5-0.4-1.4-0.6-2.1c-0.5,0.2-1.2,0.2-1.5,0.6
				c-0.7,0.7-1.3,1.5-1.8,2.3C314.1,48,314.8,49.6,316,49.6z"/>
			<path fill="#3E3A39" d="M323.4,43.8c-0.4,2.5,1.3,3.1,2.7,3.8c0.3,0.2,1.1,0.1,1.3-0.1c0.2-0.3,0.2-0.9,0-1.3
				C326.6,44.7,325.2,44.1,323.4,43.8z"/>
			<path fill-rule="evenodd" clip-rule="evenodd" fill="#3E3A39" d="M319.7,38.8c3.1-0.6,6.1-1.1,9.1-1.8c2.5-0.6,3-0.2,3.3,2.4
				c0.3,2.3,0.7,4.5,0.9,6.8c0.1,0.6-0.4,1.2-0.6,1.7c-0.6-0.3-1.2-0.5-1.6-0.9c-0.5-0.4-0.8-1.1-1.2-1.7c1.5-2-0.2-3.9-0.1-5.9
				c-4,0.8-7.8,1.6-11.5,2.4c-1.1,0.2-2.3,0.3-3.5,0.3c-0.4,0-0.9-0.7-1.1-1.2c-0.1-0.2,0.6-0.8,1-1c0.9-0.3,1.8-0.4,2.7-0.6
				c0-1-0.1-1.9,0-2.8c0.1-0.5,0.5-0.9,0.7-1.3c0.4,0.3,1.1,0.6,1.3,1C319.6,36.9,319.6,37.7,319.7,38.8z"/>
			<path fill-rule="evenodd" clip-rule="evenodd" fill="#3E3A39" d="M316,49.6c-1.2-0.1-1.9-1.6-1.3-2.6c0.5-0.8,1.1-1.6,1.8-2.3
				c0.4-0.3,1-0.4,1.5-0.6c0.2,0.7,0.9,1.6,0.6,2.1c-0.5,1.1-1.4,2.1-2.2,3.1C316.3,49.5,316,49.6,316,49.6z"/>
			<path fill-rule="evenodd" clip-rule="evenodd" fill="#3E3A39" d="M323.4,43.8c1.8,0.3,3.2,0.8,4,2.4c0.2,0.4,0.2,1,0,1.3
				c-0.2,0.2-0.9,0.3-1.3,0.1C324.7,46.9,323,46.3,323.4,43.8z"/>
			<g>
				<path fill="#3E3A39" d="M329.5,56.2c-2.9-0.4-5.8-1-8.9-1.6c0.8-0.9,1.6-1.6,1.9-2.5c0.3-0.6,0.2-1.7-0.2-2.2
					c-0.6-0.7-1.3-0.3-1.9,0.5c-1.4,1.9-2.8,3.8-5.3,4.4c-0.3,0.1-0.6,0.5-0.7,0.8c-1.2,2.8-2.4,5.6-3.5,8.4c-1,2.6-0.5,4,2.3,4.7
					c2.1,0.6,4.4,0.7,6.5,1.1c3.8,0.7,7.5,1.5,11.3,2.1c0.7,0.1,1.9-0.5,2.2-1c0.9-2.2,1.9-4.4,2.2-6.7
					C335.9,58.6,336.3,57.1,329.5,56.2z M325.8,57.8c-0.4,3.2-2,4.7-3.8,3.7C323.2,60.2,324.3,59.2,325.8,57.8z M312.8,65.7
					c1.2-2.7,2.4-5.4,3.6-8.1c0.1-0.3,0.7-0.5,1.1-0.5c1.3,0,2.5,0.2,4.2,0.3c-1.1,1.4-1.5,3.2-3.6,2.5c-0.2-0.1-0.6,0.2-0.6,0.2
					c0.2,1.1,0.3,2.3,0.7,3.3c0.1,0.3,1.1,0.4,1.6,0.5c0.7,0.1,1.4,0,2.4,0C320,67.5,316.8,68,312.8,65.7z M332.6,63.6
					c-0.4,2-1.1,4-1.8,6.3c-2.9-0.7-5.4-1.3-7.9-1.9c1.2-2.7,1.6-2.8,4-1.8c0.6,0.2,1.4-0.1,2.1-0.1c-0.3-0.7-0.6-1.4-1.1-2
					c-0.3-0.4-0.9-0.5-1.4-0.7c0.7-1.5,1.3-2.8,2-4.4c0,0,0.3,0,0.5,0C333.2,59.5,333.3,59.6,332.6,63.6z"/>
			</g>
		</g>
		<g>
			<path fill="#3E3A39" d="M167.1,53.9c1.4,0.3,2.5,0.5,3.5,0.8c1.7,0.6,2.1,0.4,2.2-1.5c0.1-3,0-6.1,0.1-9.1c0-2.1-0.8-3-3-3.1
				c-2,0-4-0.2-5.9-0.2c-0.6,0-1.3,0.4-1.9,0.6c0.4,0.7,0.8,1.4,1.4,1.9c0.3,0.3,0.9,0.3,1.4,0.3c1.6,0,3.2,0,4.8,0
				c0,2.8,0,5.3,0,7.9c-1-0.1-1.8-0.1-3-0.2c0-1.5,0-2.9,0-4.4c-0.1-1.4-1.3-2.6-2.3-2.4c-1.4,0.4-1,1.5-0.9,2.4
				c0.1,0.4,0.1,0.7,0.1,1.1c0.5,8.1,1,16.2,1.6,24.3c0,0.6,0.1,1.4,0.5,1.7c0.5,0.4,1.3,0.7,1.9,0.6c0.3,0,0.7-1,0.7-1.6
				c-0.1-1.8-0.4-3.6-0.5-5.3C167.5,63.4,167.4,58.9,167.1,53.9z"/>
			<path fill="#3E3A39" d="M153.2,50.2c-1.2,1.5-2.5,3.1-3.8,4.9c-0.4,0.5-0.5,1.5-0.3,2c0.3,0.5,1.1,1,1.7,1c0.9,0,1.8-0.4,2.7-0.7
				c1.9-0.5,3.9-2.2,5.2,0.8c0.2,0.4,1.3,0.3,1.9,0.4c0-0.7,0.3-1.4,0.1-1.9c-1-2.6-2.1-3.2-4.8-2.8c-0.5,0.1-0.9,0.1-1.8,0.2
				c1.3-1.7,2.4-3.2,3.6-4.6c1.2-1.6,1.1-2.6-0.8-3.2c-1.6-0.5-1.3-1.4-0.8-2.2c0.9-0.6,1.8-1.3,2.7-1.9c-1-0.6-2.1-1.3-3.1-1.9
				c-0.7-0.8-1.1-2.1-1.8-3.2c-0.2-0.4-1.1-0.3-1.6-0.5c-0.1,0.5-0.4,1.1-0.4,1.6c0.1,1,0.3,2,0.5,2.8c-1,1.2-3.5,0-3.1,2.3
				c0.3,1.9,2.1,1.4,3.6,1.3c0,0.6,0.1,1,0.1,1.3c-0.9,0.5-1.7,0.9-2.5,1.3C151.3,48.1,152.1,49,153.2,50.2z"/>
			<path fill-rule="evenodd" clip-rule="evenodd" fill="#3E3A39" d="M167.1,53.9c0.2,5,0.4,9.5,0.7,14c0.1,1.8,0.4,3.6,0.5,5.3
				c0,0.5-0.4,1.5-0.7,1.6c-0.6,0.1-1.4-0.2-1.9-0.6c-0.4-0.3-0.5-1.1-0.5-1.7c-0.5-8.1-1.1-16.2-1.6-24.3c0-0.4,0-0.7-0.1-1.1
				c-0.1-1-0.6-2.1,0.9-2.4c1-0.3,2.2,1,2.3,2.4c0.1,1.4,0,2.8,0,4.4c1.1,0.1,2,0.1,3,0.2c0-2.6,0-5.1,0-7.9c-1.6,0-3.2,0-4.8,0
				c-0.5,0-1.1,0-1.4-0.3c-0.6-0.5-0.9-1.3-1.4-1.9c0.6-0.2,1.3-0.6,1.9-0.6c2,0,4,0.2,5.9,0.2c2.1,0,3,1,3,3.1
				c-0.1,3,0,6.1-0.1,9.1c0,1.9-0.4,2-2.2,1.5C169.6,54.4,168.5,54.2,167.1,53.9z"/>
			<path fill-rule="evenodd" clip-rule="evenodd" fill="#3E3A39" d="M153.2,50.2c-1.1-1.2-1.9-2.2-2.8-3.1c0.8-0.4,1.5-0.8,2.5-1.3
				c0-0.2-0.1-0.7-0.1-1.3c-1.5,0.1-3.3,0.7-3.6-1.3c-0.4-2.3,2.1-1.1,3.1-2.3c-0.1-0.8-0.4-1.8-0.5-2.8c0-0.5,0.2-1.1,0.4-1.6
				c0.6,0.2,1.4,0.1,1.6,0.5c0.7,1.1,1.2,2.3,1.8,3.2c1,0.6,2.1,1.3,3.1,1.9c-0.9,0.6-1.8,1.3-2.7,1.9c-0.5,0.8-0.9,1.7,0.8,2.2
				c1.9,0.6,2,1.6,0.8,3.2c-1.1,1.4-2.2,2.9-3.6,4.6c0.9-0.1,1.3-0.1,1.8-0.2c2.7-0.4,3.8,0.2,4.8,2.8c0.2,0.6,0,1.3-0.1,1.9
				c-0.7-0.1-1.8-0.1-1.9-0.4c-1.4-3.1-3.4-1.3-5.2-0.8c-0.9,0.2-1.8,0.7-2.7,0.7c-0.6,0-1.5-0.5-1.7-1c-0.2-0.5-0.1-1.5,0.3-2
				C150.7,53.4,152.1,51.7,153.2,50.2z"/>
			<g>
				<path fill="#3E3A39" d="M146.2,41.3c-0.1-1.8-1.4-2.5-3.1-2.6c-0.9-0.1-1.9,0-2.8,0.1c-3,0.4-3.6,1.5-3.7,4.5
					c-0.2,4.5-0.9,9-1.4,13.5c-0.1,1.2-0.3,2.4-0.1,3.5c0.1,0.7,1,1.2,1.6,1.7c0.4-0.5,1.1-1,1.2-1.6c0.5-2.4,0.8-4.8,1.1-7.1
					c1.4,0.1,2.6,0.1,3.7,0.2c0.6,0.1,1.6,0.3,1.6,0.5c0.2,1.6,0.9,3.8,0.2,4.9c-1.4,2.1-0.1,3.2,0.7,4.5c0.2,0.4,1.1,0.7,1.6,0.6
					c0.4-0.1,0.9-0.9,0.8-1.4C147.3,55.6,146.7,48.5,146.2,41.3z M143.3,41.3c0.3,1.6,0.5,3,0.8,4.7c-1.4,0.1-2.7,0.3-4.1,0.4
					c-0.1-1.5-0.1-2.9-0.2-4.5C140.8,41.7,141.9,41.5,143.3,41.3z M144.2,50.7c-1.6,0.1-3.1,0.2-4.9,0.3c0.1-0.6,0.1-1.1,0.2-1.6
					c1.1-0.1,2.1-0.1,3-0.3C144,48.7,144.4,49.2,144.2,50.7z"/>
			</g>
		</g>
	</g>
	<g>
		<path fill="#3E3A39" d="M689.6,58.6c-0.2,1-0.4,2-0.8,2.9c-0.5,1.2,0.2,1.8,1.1,1.9c0.6,0.1,1.5-0.4,1.8-0.9c0.6-0.9,0.7-2,1.1-3
			c0.1-0.2,0.5-0.6,0.6-0.5c0.3,0.1,0.6,0.4,0.7,0.7c0.1,0.5,0.1,1,0,1.5c-0.4,1.6,0.4,2.4,1.6,3c1,0.5,2.1,0.9,3.2,1.1
			c0.4,0.1,1.2-0.3,1.3-0.6c0.1-0.4-0.2-1-0.5-1.5c-0.2-0.3-0.7-0.4-1-0.4c-1.2-0.2-1.6-0.7-1.6-2c0.1-1.4,0.7-1.6,1.8-1.8
			c1-0.2,2.5-0.6,2.7-1.3c0.9-2.8,1.8-5.7,2-8.6c0.2-2.5-1.5-4-4.1-4.3c-1.8-0.2-3.7-0.3-5.5-0.3c-0.6,0-1.1,0.6-1.7,0.9
			c0.5,0.4,0.9,1.1,1.4,1.2c1.5,0.3,3.1,0.5,4.7,0.4c1.4,0,2.1,0.7,2,1.9c-0.1,1.8-0.6,3.6-0.9,5.3c-0.4,2-1.7,2.6-3.5,2.4
			c-3.1-0.3-6.3-0.8-9.4-1.3c-1.2-0.2-1.6-0.9-1.2-2c0.4-1,0.5-2.1,1-3.1c1.6-3,2.5-6,1.7-9.4c0-0.1,0.1-0.2,0.1-0.3
			c0.1,0.1,0.1,0.2,0.2,0.3c0.9-0.6,1.8-1.2,2.7-1.8c-0.9-0.6-1.8-1.2-3-2c-0.5-0.4-1.3-1.1-2-1.8c-0.5,0.8-1,1.6-1.5,2.4
			c-0.3,0.5-0.9,0.8-1.3,1.2c-0.1,0.1,0.2,0.8,0.4,1.1c1.9,1.8,2,4.2,0.9,6.6c-1.1,2.3-1.8,4.8-2.4,7.3c-0.3,1.3,0.3,2.3,1.6,2.8
			C686,57.3,687.6,57.9,689.6,58.6z"/>
		<path fill="#3E3A39" d="M663.7,56.4c0.2,1.9,0.1,3.4,0.6,4.6c0.3,0.8,1.6,1.2,2.4,1.7c0.3-0.7,0.8-1.5,0.8-2.2
			c0.1-1.1-0.2-2.2-0.3-3.4c-0.1-1.4-1.1-1.8-2.3-1.7C664.5,55.5,664,56.2,663.7,56.4z"/>
		<path fill="#3E3A39" d="M673.8,59.8c-0.5-1.8-0.7-3.2-1.1-4.5c-0.4-1.3-1.5-1.8-2.7-1.4c-1.2,0.4-0.8,1.4-0.4,2.4
			c0.3,0.8,0.3,1.8,0.7,2.5c0.4,0.7,1.1,1.3,1.8,1.6C672.5,60.6,673.2,60.1,673.8,59.8z"/>
		<path fill-rule="evenodd" clip-rule="evenodd" fill="#3E3A39" d="M689.6,58.6c-1.9-0.7-3.6-1.3-5.2-1.9c-1.3-0.5-2-1.6-1.6-2.8
			c0.7-2.5,1.3-5,2.4-7.3c1.1-2.4,1-4.7-0.9-6.6c-0.3-0.3-0.5-0.9-0.4-1.1c0.4-0.5,1-0.8,1.3-1.2c0.5-0.8,1-1.6,1.5-2.4
			c0.8,0.7,1.6,1.4,2,1.8c1.2,0.8,2.1,1.4,3,2c-0.9,0.6-1.8,1.2-2.7,1.8c-0.1-0.1-0.1-0.2-0.2-0.3c-0.1,0.1-0.2,0.2-0.1,0.3
			c0.8,3.4-0.2,6.4-1.7,9.4c-0.5,0.9-0.6,2-1,3.1c-0.4,1.2,0,1.9,1.2,2c3.1,0.5,6.2,1,9.4,1.3c1.7,0.2,3.1-0.5,3.5-2.4
			c0.3-1.8,0.8-3.6,0.9-5.3c0.1-1.2-0.6-1.9-2-1.9c-1.6,0-3.2-0.1-4.7-0.4c-0.5-0.1-0.9-0.8-1.4-1.2c0.6-0.3,1.1-0.9,1.7-0.9
			c1.8,0,3.7,0,5.5,0.3c2.6,0.3,4.3,1.9,4.1,4.3c-0.3,2.9-1.1,5.8-2,8.6c-0.2,0.7-1.7,1.1-2.7,1.3c-1.1,0.2-1.8,0.4-1.8,1.8
			c-0.1,1.3,0.3,1.9,1.6,2c0.4,0,0.8,0.2,1,0.4c0.3,0.4,0.6,1.1,0.5,1.5c-0.1,0.3-0.9,0.7-1.3,0.6c-1.1-0.3-2.2-0.7-3.2-1.1
			c-1.2-0.6-2.1-1.4-1.6-3c0.1-0.5,0.1-1,0-1.5c-0.1-0.3-0.4-0.6-0.7-0.7c-0.1,0-0.5,0.3-0.6,0.5c-0.4,1-0.6,2.1-1.1,3
			c-0.3,0.5-1.3,1-1.8,0.9c-0.9-0.1-1.6-0.7-1.1-1.9C689.2,60.6,689.3,59.6,689.6,58.6z"/>
		<path fill-rule="evenodd" clip-rule="evenodd" fill="#3E3A39" d="M663.7,56.4c0.3-0.2,0.7-0.9,1.3-1c1.1-0.1,2.1,0.3,2.3,1.7
			c0.1,1.1,0.4,2.2,0.3,3.4c0,0.8-0.5,1.5-0.8,2.2c-0.8-0.6-2.1-1-2.4-1.7C663.8,59.7,663.9,58.3,663.7,56.4z"/>
		<path fill-rule="evenodd" clip-rule="evenodd" fill="#3E3A39" d="M673.8,59.8c-0.5,0.2-1.2,0.8-1.6,0.7c-0.7-0.3-1.4-1-1.8-1.6
			c-0.4-0.7-0.4-1.7-0.7-2.5c-0.4-0.9-0.9-1.9,0.4-2.4c1.2-0.4,2.3,0.1,2.7,1.4C673.1,56.7,673.3,58,673.8,59.8z"/>
		<g>
			<path fill="#3E3A39" d="M663.6,32c-2.9,0.4-5.7,1-8.5,1.7c-0.4,0.1-1.1,0.7-1.1,1c0,0.4,0.5,1,1,1.2c0.6,0.2,1.3,0.2,2,0
				c1.9-0.4,3.9-1,6-1.6c-0.5,3.1-0.8,5.9-1.3,8.6c-0.1,0.5-0.7,1.1-1.1,1.1c-1.2,0.1-2.8-1.6-2.9-2.9c-0.1-1.4-0.8-2.3-2.1-2
				c-0.8,0.2-1.5,1.1-2.1,1.7c-0.8-0.2-1.6-0.3-2.4-0.5c-0.5-0.2-1.1-0.5-1.4-0.9c-1.9-2.8-5.3-3.6-8.3-1.9
				c-0.6,0.4-1.2,0.8-2.3,1.4c0.7-2.1,1.3-3.7,1.9-5.2c1.2-3,3.4-4.7,6.6-4.8c1.3-0.1,2.5,0.1,3.8,0c0.5,0,1-0.4,1.6-0.6
				c-0.4-0.4-0.7-1.2-1.1-1.3c-3.9-0.9-7.9-1.2-10.9,1.8c-1.7,1.7-2.8,4.3-3.6,6.7c-1.3,3.8-2.3,7.7-0.7,11.7
				c1.4,3.5,5.3,5.2,8.4,3.4c2.3-1.3,4.1-3.2,5-5.8c0.7-2.1,0.7-2.1,3.2-1.6c-3.2,5.8-7.4,10.7-11.9,15.4c-1.1,1.2-2.3,2.5-3.4,3.7
				c1.7,1.9,2.6,2,3.6,1c1.7-1.9,3.5-3.7,5-5.7c1.4-1.9,2.8-0.9,4.3-0.6c-0.8,0.5-1.7,0.7-2.5,1.1c-0.4,0.2-0.9,0.6-0.9,1
				c0,0.4,0.5,0.9,0.8,1c0.7,0.3,1.5,0.3,3,0.6c-1,0.7-1.5,1.2-2.1,1.6c-0.5,0.4-1.1,0.9-1.6,1.3c0.7,0.4,1.4,1.1,2.2,1.1
				c1,0.1,2.1-0.3,3.1-0.5c-0.5,0.7-1.1,1.1-1.7,1.6c-0.4,0.4-1,1.1-0.9,1.5c0.1,0.5,0.9,0.9,1.4,1.1c0.5,0.2,1.1,0.1,1.7,0
				c2.4-0.2,4.8-0.5,7.2-0.8c0.7-0.1,1.4-0.5,2.1-0.8c-0.6-0.6-1-1.3-1.7-1.7c-0.5-0.3-1.3-0.1-2,0c-0.8,0-1.5,0.1-1.8,0.1
				c-0.2-1.3,0-2.6-0.6-3.2c-0.7-0.6-2-0.6-3.5-0.9c0.7-0.8,1.2-1.6,1.8-2c0.8-0.6,2.6-1,2.5-1.3c-0.3-1.6-1.7-1.2-2.9-1.3
				c-0.1,0-0.1-0.2-0.3-0.3c0.2-0.2,0.4-0.3,0.5-0.5c0.4-0.5,0.9-1,1.3-1.5c-0.7-0.4-1.4-1-2.1-1.1c-1.1-0.1-2.3,0.2-3.6,0.4
				c2-3.1,2-3.1,5.4-2.2c1.7,0.4,3.3,1.1,5.1,1.6c0.6,0.2,1.3-0.2,2-0.3c-0.4-0.6-0.6-1.4-1.1-1.9c-0.4-0.4-1-0.4-1.6-0.6
				c-1.9-0.7-3.9-1.3-5.9-2c0.8-1.4,1.5-2.7,2.3-4c0.9,0.7,1.7,1.3,2.5,1.8c2.3,1.5,5.4,1.1,5.9-2.5c0.3-2.8,0.9-5.6,1.5-8.4
				C666.8,32.6,666.2,31.7,663.6,32z M641.9,48.9c-0.7,0-1.7-0.5-2.2-1.1c-1.1-1.3-1.3-3.7-0.7-5.8c2.3,2.8,5.2,2.1,8.1,1.5
				C646.7,45.6,643.8,48.8,641.9,48.9z M647.5,40.9c-1.8,0.1-3.6,0.3-5.7,0.4c0.8-1.8,2.1-2.3,3.5-2.4c0.8,0,1.6,0.7,2.4,1.1
				C647.6,40.3,647.5,40.6,647.5,40.9z"/>
		</g>
		<g>
			<path fill="#3E3A39" d="M744.1,67.4c-0.5-0.3-1.3-0.4-2-0.5c-1.2-0.1-2.5-0.2-3.6-0.2c0.4-0.8,1.2-1.5,1.1-2.2
				c-0.2-2.3-1.8-5.6-4.9-5.7c-2.3-0.1-4.6,0.3-7.2,0.6c-0.2-0.2-0.6-0.8-1-1.3c1.3-1.1,1.2-1.1,0.3-2.2c-0.4-0.4-0.5-1-0.9-1.7
				c0.8,0,1.1,0.1,1.4,0c0.6-0.1,1.2-0.4,1.7-0.6c-0.4-0.5-0.8-1-1.3-1.4c-0.5-0.3-1.1-0.4-1.7-0.5c0-0.2,0-0.4,0.1-0.6
				c0.4,0,0.8-0.2,1.2-0.1c0.9,0.2,1.8,0.6,2.7,0.9c2.5,0.7,5,1.4,7.5,1.9c0.6,0.1,1.9-0.5,2.1-1.1c0.6-1.9,1-3.9,1-5.9
				c0.1-2.6,0.1-5.3-0.3-7.9c-0.5-3.4-4.4-6.6-7.8-6.7c-0.5,0-1.1,0.5-1.6,0.7c0.3,0.5,0.4,1,0.8,1.4c0.3,0.3,0.9,0.5,1.4,0.5
				c2.4-0.1,3.4,1.6,4.1,3.3c1.7,4.5,0.7,8.9-0.6,13.6c-3-1-5.9-1.9-8.7-2.8c-1.6-0.5-1.9-1.5-1.3-3.1c1.1-2.9,2.1-5.8,3.2-8.7
				c0.4-1.1,0.3-1.8-0.8-2.3c-1.2-0.5-1.7,0-2.1,1.1c-0.4,1.4-1,2.9-1.5,4.3c-1,2.9-2.6,5.6-1.9,8.9c0,0.1-0.2,0.2-0.4,0.4
				c-0.2-0.3-0.2-0.7-0.4-0.9c-0.6-0.4-1.4-0.7-2-1c-0.2,0.6-0.4,1.3-0.5,1.9c-0.1,0.8,0,1.6,0,1.9c-1.1,0.6-1.7,1-2.4,1.4
				c0.6,0.5,1.1,1,1.6,1.5c0.3,0.3,0.5,0.7,0.8,1.4c-1.1,0.2-2,0.2-2.7,0.4c-0.6,0.2-1.2,0.7-1.7,1c0.6,0.4,1.1,1.1,1.7,1.2
				c0.8,0.2,1.8,0.1,2.9,0.1c-3.4,1.9-3.4,1.9-2.5,3.3c-0.8,0.7-1.6,1.3-2.3,1.8c1.8,2.9,3.4,1.3,5,0.9c2.1,4.7,6,5.2,10.4,4.3
				c0.6-0.1,1.3-0.4,1.9-0.3c3.4,0.4,6.7,0.9,10.1,1.3c0.6,0.1,1.3-0.5,1.7-1C744.9,68.7,744.5,67.7,744.1,67.4z M723.6,63
				c1-0.1,2.1-0.2,3.3-0.4c0.8,1.1,1.9,2.4,2.9,3.7C725.9,67.8,724.1,66.8,723.6,63z M735,64.9c-2.1,1-3.4,0.3-5.3-3.1
				c1.6-0.3,3-0.7,4.4-0.8c1.6-0.2,2.1,1.2,2.2,2.3C736.5,63.9,735.7,64.7,735,64.9z"/>
			<path fill="#3E3A39" d="M721.9,44.8c0.3-1.2,0.3-2.5,0.4-3.7c0,0,0,0-0.1,0c0-0.9,0.2-1.8-0.1-2.6c-0.2-0.7-0.7-1.5-1.3-1.8
				c-1.1-0.4-2.3-0.4-3.5-0.5c-0.3,0-0.8,0.3-1.1,0.6c-1,1.4-2,2.9-2.9,4.4c-0.6,1-0.6,1.8,0.3,2.7c1.8,2,4.2,2.6,6.7,2.5
				C720.9,46.3,721.7,45.5,721.9,44.8z M719.2,44.1c-1.2-0.3-2.1-0.5-3.5-0.9c1.2-1.7,2.2-3.1,3.5-4.9
				C719.2,40.5,719.2,42.1,719.2,44.1z"/>
			<path fill="#3E3A39" d="M716.9,32.2c0.5,0.3,1.2,0.3,1.8,0.3c2.1-0.1,4.3-0.3,6.4-0.5c0.6-0.1,1.1-0.5,1.6-0.8
				c-0.4-0.5-0.7-1.3-1.2-1.5c-0.9-0.3-2-0.3-3-0.4c-0.2-1.1-0.2-2.2-0.7-3c-0.5-0.6-1.6-0.8-2.5-1.2c-0.1,0.7-0.3,1.5-0.1,2.1
				c0.7,1.9,0.3,2.4-1.9,2.8c-0.5,0.1-1,0.5-1.5,0.7C716.1,31.3,716.4,31.9,716.9,32.2z"/>
		</g>
	</g>
	<g>
		<path fill="#3E3A39" d="M509.2,49.4c-5.5,0.7-10.3,1.3-15.2,2c-0.4,0.1-1,0.6-1.1,1c-0.1,0.4,0.3,1.1,0.6,1.3
			c0.6,0.3,1.4,0.5,2,0.4c4.5-0.6,8.9-1.3,13.4-1.9c0.9-0.1,2.2,0.1,1.9-1.3C510.6,50.3,509.6,49.8,509.2,49.4z"/>
		<g>
			<path fill="#3E3A39" d="M427.7,44.7c-0.1-0.2-0.2-0.4-0.3-0.6c1.6-2,3.2-3.9,4.7-5.9c1.3-1.7,2.6-3.3,3.8-5
				c0.7-1,0.4-1.9-0.5-2.3c-0.4-0.2-1.4,0.1-1.8,0.5c-3.2,4-6.3,8.1-9.4,12.1c-1.1,1.4-0.8,2.8,0.9,3c2.1,0.2,4.3,0.2,6.4-0.2
				c2.6-0.6,5.2-1.6,7.8-2.5c1.5-0.5,2.7-0.5,3.6,1.1c0.3,0.6,1,1.2,1.6,1.5c0.5,0.3,1.3,0.2,1.9,0.2c-0.1-0.6,0.1-1.5-0.3-1.9
				c-1.4-2-2.9-3.9-4.4-5.7c-0.7-0.8-1.5-2-2.7-1.1c-1.1,0.9,0,1.7,0.4,2.5c0,0.1,0,0.2,0.1,0.6C435.6,42.3,431.6,43.5,427.7,44.7z"
				/>
			<path fill-rule="evenodd" clip-rule="evenodd" fill="#3E3A39" d="M427.7,44.7c4-1.2,7.9-2.4,11.9-3.5c-0.1-0.4-0.1-0.5-0.1-0.6
				c-0.4-0.8-1.6-1.7-0.4-2.5c1.2-1,2.1,0.3,2.7,1.1c1.5,1.9,3,3.8,4.4,5.7c0.3,0.5,0.2,1.3,0.3,1.9c-0.6-0.1-1.4,0-1.9-0.2
				c-0.6-0.3-1.3-0.9-1.6-1.5c-0.9-1.6-2.1-1.6-3.6-1.1c-2.6,0.9-5.1,1.9-7.8,2.5c-2.1,0.4-4.3,0.4-6.4,0.2c-1.7-0.2-2-1.6-0.9-3
				c3.1-4,6.3-8.1,9.4-12.1c0.3-0.4,1.4-0.7,1.8-0.5c0.9,0.5,1.2,1.4,0.5,2.3c-1.3,1.7-2.5,3.4-3.8,5c-1.6,2-3.1,3.9-4.7,5.9
				C427.5,44.3,427.6,44.5,427.7,44.7z"/>
			<g>
				<path fill="#3E3A39" d="M441.6,49.2c-1.9-0.4-3.9-0.6-5.8-0.8c-0.5,0-1.2,0.5-1.4,0.9c-1.3,2.9-2.5,5.9-3.7,8.9
					c-0.5,1.2-0.1,2.2,1,2.6c2.9,1,5.9,1.8,8.9,2.5c0.4,0.1,1.4-0.5,1.5-0.9c0.7-2.9,1.3-5.9,1.9-8.9
					C443.7,51.8,444,49.7,441.6,49.2z M439.5,60.8c-2-0.6-3.9-1.2-6.1-1.9c1.1-2.6,2.1-5.1,3.4-7.4c0.3-0.5,2-0.4,3-0.3
					c0.5,0.1,1.2,0.7,1.3,1.2C441.2,55.2,440.5,58,439.5,60.8z"/>
			</g>
		</g>
		<g>
			<path fill="#3E3A39" d="M399.9,38.5c0.1,2.2,0.3,4.3,0.3,6.3c0,0.5-0.3,1.2-0.6,1.4c-1.4,0.8-0.7,1.6-0.2,2.4
				c0.4,0.7,0.9,1.5,1,2.3c0.2,2.7,0.2,5.4,0.5,8.2c0.1,1.5,0.6,2.6,2.6,2.6c5.8,0,11.6,0.3,17.4,0.4c0.5,0,1.1,0.1,1.5-0.1
				c0.4-0.2,0.9-0.8,0.9-1.2c0-0.4-0.5-0.9-0.9-1.1c-0.5-0.2-1.1-0.2-1.6-0.3c-5.4-0.1-10.8-0.2-16.1-0.4c-0.4,0-1.2-0.7-1.2-1.1
				c-0.1-3-0.1-6-0.1-9.2c0.8-0.2,1.9-0.3,2.8-0.6c0.6-0.2,1.7-0.8,1.7-1.2c0-1.3-1.1-1.5-2.1-1.5c-0.8,0-1.7,0.2-2.7,0.4
				c-0.1-1.8-0.1-3.5-0.3-5.1C402.6,39.2,402,38.1,399.9,38.5z"/>
			<path fill="#3E3A39" d="M391.5,48.6c-0.1,0.1-0.3,0.3-0.4,0.4c-0.9-0.7-1.6-1.6-2.6-2.2c-0.5-0.3-1.3-0.2-2-0.3
				c0.1,0.7-0.1,1.6,0.3,2c1.3,1.2,2.8,2.1,4.3,3.2c0.4,0.3,1.1,0.4,1.2,0.8c0.4,1.8,0.7,3.7,1.1,5.9c-3.6-0.2-6.7-0.5-9.8-0.5
				c-0.7,0-1.5,0.7-2.2,1.1c0.7,0.6,1.3,1.3,2,1.7c0.4,0.2,1,0,1.5,0c3.1,0,6.2-0.1,9.2,0.1c2,0.1,2.4-0.2,2-2.2
				c-0.6-3.6-1.4-7.3-2.1-10.9c-0.3-1.3-0.4-2.7-0.9-3.9c-0.3-0.6-1.4-0.9-2.1-1.3c-0.2,0.6-0.5,1.3-0.4,1.9
				C390.8,45.7,391.2,47.1,391.5,48.6z"/>
			<path fill-rule="evenodd" clip-rule="evenodd" fill="#3E3A39" d="M399.9,38.5c2.1-0.4,2.7,0.7,2.8,2.2c0.1,1.7,0.2,3.3,0.3,5.1
				c1-0.1,1.8-0.3,2.7-0.4c1,0,2.2,0.2,2.1,1.5c0,0.4-1,0.9-1.7,1.2c-1,0.3-2,0.5-2.8,0.6c0,3.2,0,6.2,0.1,9.2
				c0,0.4,0.8,1.1,1.2,1.1c5.4,0.2,10.7,0.3,16.1,0.4c0.5,0,1.2,0,1.6,0.3c0.4,0.2,0.9,0.8,0.9,1.1c0,0.4-0.5,1-0.9,1.2
				c-0.4,0.2-1,0.1-1.5,0.1c-5.8-0.2-11.6-0.4-17.4-0.4c-2,0-2.5-1.1-2.6-2.6c-0.2-2.7-0.2-5.4-0.5-8.2c-0.1-0.8-0.6-1.6-1-2.3
				c-0.5-0.9-1.1-1.7,0.2-2.4c0.4-0.2,0.7-0.9,0.6-1.4C400.2,42.8,400,40.7,399.9,38.5z"/>
			<path fill-rule="evenodd" clip-rule="evenodd" fill="#3E3A39" d="M391.5,48.6c-0.3-1.4-0.7-2.9-0.9-4.3c-0.1-0.6,0.3-1.3,0.4-1.9
				c0.7,0.4,1.8,0.7,2.1,1.3c0.6,1.2,0.7,2.6,0.9,3.9c0.7,3.6,1.4,7.3,2.1,10.9c0.3,2-0.1,2.2-2,2.2c-3.1-0.1-6.2-0.1-9.2-0.1
				c-0.5,0-1.1,0.2-1.5,0c-0.7-0.5-1.4-1.1-2-1.7c0.7-0.4,1.5-1.1,2.2-1.1c3.1,0,6.2,0.3,9.8,0.5c-0.4-2.3-0.7-4.1-1.1-5.9
				c-0.1-0.3-0.8-0.5-1.2-0.8c-1.4-1-3-2-4.3-3.2c-0.4-0.3-0.2-1.3-0.3-2c0.7,0.1,1.5,0,2,0.3c0.9,0.6,1.7,1.4,2.6,2.2
				C391.3,48.8,391.4,48.7,391.5,48.6z"/>
		</g>
		<path fill-rule="evenodd" clip-rule="evenodd" fill="#3E3A39" d="M509.2,49.4c0.4,0.4,1.4,0.9,1.6,1.6c0.3,1.3-1,1.2-1.9,1.3
			c-4.4,0.6-8.9,1.3-13.4,1.9c-0.7,0.1-1.4-0.1-2-0.4c-0.4-0.2-0.7-0.9-0.6-1.3c0.1-0.4,0.7-0.9,1.1-1
			C498.8,50.7,503.7,50.1,509.2,49.4z"/>
		<g>
			<path fill="#3E3A39" d="M533,49.6c0-2.7,0.2-4.7-0.1-6.7c-0.1-0.7-1.2-1.2-1.9-1.8c-0.4,0.5-1.2,1.1-1.2,1.6
				c0,3.3,0.1,6.5,0.2,9.8c0,1,0.7,2.4,0.2,3.1c-1.2,1.9,0,2.8,1,3.9c0.5,0.5,1.3,0.6,2,0.9c0.2-0.7,0.7-1.4,0.6-2.1
				C533.6,55.1,533.3,52,533,49.6z"/>
			<path fill="#3E3A39" d="M522.9,52.1c-0.1,0.1-0.2,0.2-0.3,0.3c0.6,0.7,1.2,1.4,1.8,2.1c0.5-0.7,1.2-1.4,1.5-2.2
				c0.3-0.6,0.5-1.5,0.3-2.2c-0.2-0.7-0.9-1.3-1.4-1.9c-0.5,0.5-1.2,0.9-1.4,1.5C523,50.4,523,51.3,522.9,52.1z"/>
			<path fill="#3E3A39" d="M540.2,52.9c-0.1-1.9-1.3-3.4-2.5-3.2c-0.5,0.1-0.9,0.7-1.4,1.1c0.9,1.1,1.8,2.1,2.7,3.2
				C539.6,53.5,540,53.1,540.2,52.9z"/>
			<path fill-rule="evenodd" clip-rule="evenodd" fill="#3E3A39" d="M533,49.6c0.2,2.4,0.6,5.5,0.9,8.6c0.1,0.7-0.4,1.4-0.6,2.1
				c-0.7-0.3-1.5-0.4-2-0.9c-1-1-2.2-2-1-3.9c0.4-0.7-0.2-2-0.2-3.1c-0.1-3.3-0.2-6.5-0.2-9.8c0-0.5,0.8-1.1,1.2-1.6
				c0.7,0.6,1.8,1.2,1.9,1.8C533.2,44.9,533,46.9,533,49.6z"/>
			<path fill-rule="evenodd" clip-rule="evenodd" fill="#3E3A39" d="M522.9,52.1c0.1-0.8,0.1-1.7,0.4-2.4c0.3-0.6,0.9-1,1.4-1.5
				c0.5,0.6,1.2,1.2,1.4,1.9c0.2,0.6,0,1.5-0.3,2.2c-0.4,0.8-1,1.5-1.5,2.2c-0.6-0.7-1.2-1.4-1.8-2.1
				C522.6,52.3,522.8,52.2,522.9,52.1z"/>
			<path fill-rule="evenodd" clip-rule="evenodd" fill="#3E3A39" d="M540.2,52.9c-0.2,0.2-0.7,0.7-1.1,1.1c-0.9-1.1-1.8-2.1-2.7-3.2
				c0.5-0.4,0.9-1,1.4-1.1C538.9,49.5,540.2,51,540.2,52.9z"/>
		</g>
		<g>
			<path fill="#3E3A39" d="M473.3,36.8c0.3-1.2,0.7-2.2,0.6-3.2c-0.1-0.6-0.9-1.2-1.5-1.8c-0.4,0.5-1.1,0.8-1.3,1.4
				c-0.7,1.7-1.2,3.5-1.7,5c-1.7,0-3.1,0-4.6,0c0.3-0.7,0.7-1.1,0.8-1.6c0.2-0.9,0.5-2-0.8-2.5c-1.3-0.5-1.5,0.4-2,1.3
				c-1.6,2.7-3.3,5.3-4.9,8c-0.3,0.4-0.2,1-0.3,1.6c0.7,0.1,1.5,0.5,1.9,0.3c0.9-0.5,1.6-1.4,2.2-2.2c1.8-2.3,3.8-2.7,6.4-1.4
				c0.5,0.2,1.4-0.1,2.1-0.4c0.5-0.2,0.8-0.8,1.4-1.6c-0.3,2.3,0.7,3.1,2.3,3.2c0.5,0,1.1-0.4,1.7-0.7c-0.3-0.6-0.6-1.3-1.1-1.8
				c-0.3-0.3-0.9-0.3-1.9-0.6c1.5-0.4,2.5-0.5,3.4-0.9c0.6-0.3,1-0.9,1.5-1.4c-0.7-0.4-1.4-1-2.1-1.1
				C474.8,36.2,474.1,36.6,473.3,36.8z"/>
			<path fill-rule="evenodd" clip-rule="evenodd" fill="#3E3A39" d="M473.3,36.8c0.8-0.2,1.6-0.6,2.2-0.4c0.7,0.1,1.4,0.7,2.1,1.1
				c-0.5,0.5-0.9,1.2-1.5,1.4c-0.9,0.4-1.9,0.5-3.4,0.9c1,0.3,1.6,0.3,1.9,0.6c0.5,0.5,0.7,1.2,1.1,1.8c-0.6,0.2-1.1,0.7-1.7,0.7
				c-1.6-0.1-2.7-0.9-2.3-3.2c-0.7,0.7-1,1.3-1.4,1.6c-0.6,0.3-1.5,0.6-2.1,0.4c-2.6-1.3-4.6-0.8-6.4,1.4c-0.6,0.8-1.4,1.6-2.2,2.2
				c-0.4,0.3-1.3-0.2-1.9-0.3c0.1-0.5,0.1-1.1,0.3-1.6c1.6-2.7,3.3-5.3,4.9-8c0.5-0.8,0.7-1.8,2-1.3c1.3,0.5,1,1.5,0.8,2.5
				c-0.1,0.5-0.5,1-0.8,1.6c1.6,0,2.9,0,4.6,0c0.5-1.6,1-3.3,1.7-5c0.2-0.5,0.9-0.9,1.3-1.4c0.5,0.6,1.4,1.1,1.5,1.8
				C474,34.6,473.5,35.6,473.3,36.8z"/>
			<g>
				<path fill="#3E3A39" d="M478.8,55.9c-0.2-1.4-1.2-1.9-2.6-1.6c-1.4,0.3-2.7,0.5-4.3,0.8c-0.1-0.8-0.2-1.4-0.3-1.9
					c2.9-0.5,2.9-0.5,3.2-3.4c0.1-0.6,0.1-1.2,0.3-1.8c0.6-2.5-0.3-3.5-2.9-2.9c-1.4,0.3-2.7,0.7-4.2,1c-0.4-1.5-2.6-3.6-3.8-3.7
					c-0.4,0-1,0.3-1.2,0.6c-0.2,0.3,0,1.1,0.3,1.3c0.9,0.8,1.9,1.4,2.9,2.1c-0.8,1.2-0.1,1.9,1.1,2.4c0.4,0.2,0.7,0.5,1,0.7
					c-0.3,0.4-0.5,0.9-0.8,1c-2.5,1-3.6,3-4.5,5.4c-0.6,1.8,0.2,2.8,2.2,2.7c1.3-0.1,2.5-0.3,4.5-0.5c-0.7,1.1-1,1.9-1.5,2.3
					c-2.6,2.1-5.3,4.1-8,6c-0.8,0.6-1.5,1-0.7,2.1c0.8,1,1.5,1,2.5,0.1c2.4-2,5-3.8,8-6.1c0,2.8-0.2,5.1,0.1,7.3
					c0.1,0.8,1,2.1,1.7,2.2c1.2,0.2,1.3-1.1,1.3-2.2c-0.1-1.8,0-3.7,0-5.8c1.5,0.4,2.9,0.8,4.3,1.3c1.1,0.4,2,0.4,1.9-1
					C479.3,61.6,479.1,58.7,478.8,55.9z M466.6,55.8c-0.1-0.1-0.2-0.3-0.2-0.4c0.6-0.8,1.2-1.6,2.2-2.8c0.1,1.3,0.2,2,0.3,2.9
					C468,55.6,467.3,55.7,466.6,55.8z M472.4,57.6c1.1-0.2,2.2-0.5,3.6-0.7c0.1,2,0.3,3.8,0.4,5.6C472.6,62.4,472.3,62,472.4,57.6z"
					/>
			</g>
		</g>
		<g>
			<path fill="#3E3A39" d="M556.7,44.9c1.5-0.2,3.2-0.3,4.8-0.6c0.5-0.1,1.1-0.5,1.4-1c0.1-0.2-0.2-1.1-0.5-1.2
				c-1.6-0.5-1.6-2-2.1-3.1c-0.3-0.6-0.5-1.4-1-1.7c-0.5-0.4-1.3-0.3-2-0.4c-0.1,0.6-0.4,1.3-0.2,1.9c0.3,1,0.9,1.8,1.5,3.1
				c-1.9,0.1-3.4,0.1-4.9,0.2c-0.5,0-1.2,0.3-1.4,0.6c-0.2,0.3-0.1,1.2,0.2,1.4c1.5,1,1.1,2.6,1.3,4c0.2,2.2-0.9,4.9,2.2,6.5
				c-1.5,0.1-2.7,0.2-3.7,0.4c-0.5,0.1-1.1,0.6-1.2,0.9c-0.1,0.4,0.2,1.2,0.6,1.4c0.6,0.3,1.4,0.4,2.1,0.4c2.5-0.1,5.1-0.2,7.6-0.4
				c1.2-0.1,3,1.2,3.4-0.5c0.2-0.9-1.2-2.2-1.9-3.3c-0.1,0.2-0.2,0.4-0.3,0.6c-1,0.2-2.1,0.4-3.1,0.6c-0.1-0.2-0.2-0.4-0.2-0.6
				c2.5-1.6,3.6-4,3.9-6.7c0.1-0.7-0.9-1.5-1.4-2.3c-0.5,0.6-1.1,1.1-1.6,1.7c-0.3,0.4-0.2,0.9-0.3,1.4c-0.4,1.9-1.3,3.5-3.2,4.8
				C556.7,50.3,556.7,47.8,556.7,44.9z"/>
			<path fill-rule="evenodd" clip-rule="evenodd" fill="#3E3A39" d="M556.7,44.9c0,2.8,0,5.4,0,8.3c1.9-1.3,2.7-2.9,3.2-4.8
				c0.1-0.5,0.1-1.1,0.3-1.4c0.4-0.6,1-1.2,1.6-1.7c0.5,0.8,1.4,1.6,1.4,2.3c-0.3,2.7-1.4,5.1-3.9,6.7c0.1,0.2,0.2,0.4,0.2,0.6
				c1-0.2,2.1-0.4,3.1-0.6c0.1-0.2,0.2-0.4,0.3-0.6c0.7,1.1,2.1,2.4,1.9,3.3c-0.4,1.7-2.2,0.4-3.4,0.5c-2.5,0.2-5.1,0.3-7.6,0.4
				c-0.7,0-1.5-0.1-2.1-0.4c-0.4-0.2-0.7-1-0.6-1.4c0.1-0.4,0.7-0.9,1.2-0.9c1.1-0.2,2.2-0.2,3.7-0.4c-3-1.6-1.9-4.2-2.2-6.5
				c-0.1-1.4,0.2-3-1.3-4c-0.3-0.2-0.4-1.1-0.2-1.4c0.2-0.4,0.9-0.6,1.4-0.6c1.5-0.1,3-0.2,4.9-0.2c-0.6-1.3-1.2-2.1-1.5-3.1
				c-0.2-0.6,0.1-1.3,0.2-1.9c0.7,0.1,1.5,0,2,0.4c0.5,0.3,0.7,1.1,1,1.7c0.5,1.2,0.5,2.7,2.1,3.1c0.3,0.1,0.7,1,0.5,1.2
				c-0.3,0.4-0.9,0.9-1.4,1C559.9,44.6,558.3,44.7,556.7,44.9z"/>
			<g>
				<path fill="#3E3A39" d="M584.5,55.4c-1.3-4.5-2.7-7.3-8.6-7.5c-0.2-0.7-0.4-1.5-0.6-2.4c1.3-0.4,2.6-0.6,3.8-1.1
					c0.6-0.3,1-1.1,1.5-1.7c-0.8-0.3-1.5-1-2.3-0.9c-1.2,0.1-2.4,0.6-3.7,1c0.1-1.6,0.4-3,0.2-4.4c-0.1-0.7-1.1-1.8-1.8-1.9
					c-1.2-0.2-1.2,1-1.2,2c-0.1,2-0.2,4-0.7,5.9c-0.5,1.9-0.6,2.1,1.6,2.4c-3.1,3.8-5.1,8.2-6.7,12.8c-1.3,3.7-0.6,5.8,2.9,7.4
					c3.1,1.4,6.5,2.3,9.8,3.2c2.6,0.7,3.6,0.1,4.9-2.3C585.8,63.8,585.8,59.8,584.5,55.4z M580.8,66.7c-0.3,0.5-1.3,1.1-1.9,1
					c-2.8-0.7-5.6-1.4-8.3-2.5c-2.7-1.1-3.2-2.3-2.1-5c1.2-3,2.7-6,4.3-8.8c0.4-0.7,1.7-0.8,2.6-1.2c3.6,0.1,5.1,1.2,5.8,4.7
					c0.5,2.4,1.1,4.9,1.1,7.4C582.4,63.7,581.5,65.3,580.8,66.7z"/>
			</g>
		</g>
		<g>
			<path fill="#3E3A39" d="M603,59.8c-2.2-0.1-3.7,1.7-3.9,4.5c-0.1,0.8,2.5,2.9,3.7,3c2.5,0.2,4.5-1.2,4.6-3.4
				C607.5,61.6,605.7,59.9,603,59.8z M603.3,64.9c-0.6-0.1-1.4-0.9-1.6-1.5c-0.1-0.4,0.7-1.1,1.5-2.1c0.8,1.1,1.6,1.7,1.6,2.2
				C604.7,64.1,603.7,65,603.3,64.9z"/>
		</g>
	</g>
</g>
</svg>
